<svg width="240" height="137" viewBox="0 0 240 137" fill="none" xmlns="http://www.w3.org/2000/svg">
<path d="M69.8008 26L86.2013 53.334M69.8008 26H113.006L128.701 53.334M69.8008 26L37 81.0207L53.2241 108.355M86.2013 53.334H128.701M86.2013 53.334L79.1473 65.8548M128.701 53.334L121.647 65.8548L102.954 65.467M79.1473 65.8548C62 50 48 78.5 62 97.5975M79.1473 65.8548L102.954 65.467M53.2241 108.355L62 97.5975M53.2241 108.355H98.0166L104.718 97.5975M62 97.5975H104.718M104.718 97.5975C98.6134 89.1566 96.9585 73.6141 102.954 65.467" stroke="#0D2149" stroke-width="6"/>
<path d="M123.817 90.8339C121.817 90.8339 120.29 90.3206 119.237 89.2939C118.197 88.2672 117.677 86.7406 117.677 84.7139V76.5139H120.777V84.7339C120.777 85.8806 121.037 86.7473 121.557 87.3339C122.077 87.9072 122.83 88.1939 123.817 88.1939C125.83 88.1939 126.837 87.0406 126.837 84.7339V76.5139H129.897V84.7139C129.897 86.7406 129.384 88.2672 128.357 89.2939C127.33 90.3206 125.817 90.8339 123.817 90.8339Z" fill="#0D2149"/>
<path d="M132.64 90.6139V76.5139H139.08C140.653 76.5139 141.867 76.8939 142.72 77.6539C143.573 78.4139 144 79.4739 144 80.8339C144 81.8872 143.727 82.7672 143.18 83.4739C142.647 84.1673 141.88 84.6406 140.88 84.8939C141.587 85.1073 142.167 85.6206 142.62 86.4339L144.9 90.6139H141.48L139.04 86.1139C138.84 85.7539 138.593 85.5073 138.3 85.3739C138.007 85.2273 137.66 85.1539 137.26 85.1539H135.74V90.6139H132.64ZM135.74 82.9139H138.52C140.187 82.9139 141.02 82.2472 141.02 80.9139C141.02 79.5939 140.187 78.9339 138.52 78.9339H135.74V82.9139Z" fill="#0D2149"/>
<path d="M146.566 90.6139V76.5139H153.026C154.533 76.5139 155.693 76.8406 156.506 77.4939C157.333 78.1472 157.746 79.0406 157.746 80.1739C157.746 80.9206 157.559 81.5672 157.186 82.1139C156.813 82.6472 156.293 83.0472 155.626 83.3139C156.426 83.5406 157.039 83.9406 157.466 84.5139C157.906 85.0873 158.126 85.7939 158.126 86.6339C158.126 87.8873 157.686 88.8672 156.806 89.5739C155.939 90.2672 154.753 90.6139 153.246 90.6139H146.566ZM149.526 82.3139H152.486C154.006 82.3139 154.766 81.7272 154.766 80.5539C154.766 79.3939 154.006 78.8139 152.486 78.8139H149.526V82.3139ZM149.526 88.3139H152.826C153.626 88.3139 154.213 88.1606 154.586 87.8539C154.959 87.5472 155.146 87.0806 155.146 86.4539C155.146 85.8406 154.959 85.3806 154.586 85.0739C154.213 84.7672 153.626 84.6139 152.826 84.6139H149.526V88.3139Z" fill="#0D2149"/>
<path d="M158.794 90.6139L165.274 76.5139H167.774L174.254 90.6139H171.134L169.814 87.5539H163.234L161.934 90.6139H158.794ZM166.494 79.8139L164.274 85.1339H168.794L166.534 79.8139H166.494Z" fill="#0D2149"/>
<path d="M175.472 90.6139V76.5139H177.772L184.812 85.4939V76.5139H187.692V90.6139H185.412L178.352 81.6139V90.6139H175.472Z" fill="#0D2149"/>
<path d="M116.157 110.614L122.637 96.5139H125.137L131.617 110.614H128.497L127.177 107.554H120.597L119.297 110.614H116.157ZM123.857 99.8139L121.637 105.134H126.157L123.897 99.8139H123.857Z" fill="#0D2149"/>
<path d="M132.835 110.614V96.5139H138.355C140.755 96.5139 142.615 97.1272 143.935 98.3539C145.255 99.5672 145.915 101.301 145.915 103.554C145.915 105.807 145.255 107.547 143.935 108.774C142.615 110.001 140.755 110.614 138.355 110.614H132.835ZM135.935 108.074H138.175C141.175 108.074 142.675 106.567 142.675 103.554C142.675 100.554 141.175 99.0539 138.175 99.0539H135.935V108.074Z" fill="#0D2149"/>
<path d="M146.372 110.614L152.852 96.5139H155.352L161.832 110.614H158.712L157.392 107.554H150.812L149.512 110.614H146.372ZM154.072 99.8139L151.852 105.134H156.372L154.112 99.8139H154.072Z" fill="#0D2149"/>
<path d="M163.09 110.614V96.5139H165.67L170.43 105.174L175.17 96.5139H177.71V110.614H174.89V102.014L171.25 108.494H169.51L165.89 102.074V110.614H163.09Z" fill="#0D2149"/>
</svg>
