<svg width="650" height="650" viewBox="0 0 650 650" fill="none" xmlns="http://www.w3.org/2000/svg">
<path d="M127.777 496.275C236.704 553.176 413.296 553.176 522.223 496.275C631.15 439.374 631.137 347.113 522.223 290.212C413.309 233.311 236.704 233.311 127.777 290.212C18.85 347.113 18.863 439.4 127.777 496.275Z" fill="#F5F5F5"/>
<path d="M524.238 452.27C518.149 454.766 511.321 454.766 505.232 452.27C500.032 449.761 500.032 445.77 505.232 443.17C511.319 440.661 518.151 440.661 524.238 443.17C529.49 445.705 529.49 449.8 524.238 452.27Z" fill="#E0E0E0"/>
<path d="M107.276 445.042C113.472 447.59 120.424 447.59 126.62 445.042C131.963 442.442 131.963 438.36 126.62 435.812C120.421 433.278 113.475 433.278 107.276 435.812C101.933 438.36 101.933 442.494 107.276 445.042Z" fill="#E0E0E0"/>
<path d="M435.227 416C438.477 416.416 442.234 415.298 443.859 413.14C445.77 410.605 444.925 406.64 445.848 404.521C446.771 402.402 449.748 402.74 451.139 400.946C452.53 399.152 450.372 394.862 451.139 392.587C451.906 390.312 454.116 388.141 455.117 386.581C456.118 385.021 455.117 382.681 451.698 383.864C448.279 385.047 446.498 389.142 443.183 388.453C439.868 387.764 437.034 389.753 436.982 393.042C437.076 394.328 436.825 395.616 436.254 396.773C435.63 397.787 433.966 398.359 433.212 399.932L435.227 416Z" fill="#8AD4C2"/>
<path opacity="0.2" d="M435.227 416C438.477 416.416 442.234 415.298 443.859 413.14C445.77 410.605 444.925 406.64 445.848 404.521C446.771 402.402 449.748 402.74 451.139 400.946C452.53 399.152 450.372 394.862 451.139 392.587C451.906 390.312 454.116 388.141 455.117 386.581C456.118 385.021 455.117 382.681 451.698 383.864C448.279 385.047 446.498 389.142 443.183 388.453C439.868 387.764 437.034 389.753 436.982 393.042C437.076 394.328 436.825 395.616 436.254 396.773C435.63 397.787 433.966 398.359 433.212 399.932L435.227 416Z" fill="black"/>
<path d="M453.596 384.8C448.825 387.4 435.877 402.272 434.811 410.176" stroke="white" stroke-width="0.5" stroke-miterlimit="10" stroke-linecap="round"/>
<path d="M140.179 376.298L198.263 342.758V199.459L140.179 232.999V376.298Z" fill="#F49B9E"/>
<path d="M140.179 232.999L76.804 196.417V339.703L140.179 376.298V232.999Z" fill="#FEB8AF"/>
<path d="M198.263 199.459L134.901 162.877L76.804 196.417L140.179 232.999L198.263 199.459Z" fill="#37474F"/>
<path d="M100.529 353.431V329.03L116.948 338.468V362.856L100.529 353.431Z" fill="#E0E0E0"/>
<path d="M107.692 333.151L109.291 334.074V358.462L107.692 357.539V333.151Z" fill="#263238"/>
<path d="M133.536 335.855V322.257L122.668 315.978V329.576L133.536 335.855Z" fill="#E0E0E0"/>
<path d="M122.668 329.576L125.385 328.016V317.551L122.668 315.978V329.576Z" fill="#263238"/>
<path d="M133.536 332.722L125.385 328.016L122.668 329.576L133.536 335.855V332.722Z" fill="#37474F"/>
<path d="M133.536 361.907V348.309L122.668 342.043V355.641L133.536 361.907Z" fill="#E0E0E0"/>
<path d="M122.668 355.641L125.385 354.068V343.603L122.668 342.043V355.641Z" fill="#263238"/>
<path d="M133.536 358.774L125.385 354.068L122.668 355.641L133.536 361.907V358.774Z" fill="#37474F"/>
<path d="M133.536 310.349V296.751L122.668 290.485V304.083L133.536 310.349Z" fill="#E0E0E0"/>
<path d="M122.668 304.083L125.385 302.51V292.045L122.668 290.485V304.083Z" fill="#263238"/>
<path d="M133.536 307.216L125.385 302.51L122.668 304.083L133.536 310.349V307.216Z" fill="#37474F"/>
<path d="M133.536 284.843V271.245L122.668 264.979V278.577L133.536 284.843Z" fill="#E0E0E0"/>
<path d="M122.668 278.577L125.385 277.004V266.539L122.668 264.979V278.577Z" fill="#263238"/>
<path d="M133.536 281.71L125.385 277.004L122.668 278.577L133.536 284.843V281.71Z" fill="#37474F"/>
<path d="M133.536 259.35V245.739L122.668 239.473V253.071L133.536 259.35Z" fill="#E0E0E0"/>
<path d="M122.668 253.071L125.385 251.498V241.046L122.668 239.473V253.071Z" fill="#263238"/>
<path d="M133.536 256.204L125.385 251.498L122.668 253.071L133.536 259.35V256.204Z" fill="#37474F"/>
<path d="M94.328 313.222V299.624L83.46 293.345V306.943L94.328 313.222Z" fill="#E0E0E0"/>
<path d="M83.46 306.943L86.177 305.383V294.918L83.46 293.345V306.943Z" fill="#263238"/>
<path d="M94.328 310.089L86.177 305.383L83.46 306.943L94.328 313.222V310.089Z" fill="#37474F"/>
<path d="M94.328 339.274V325.676L83.46 319.41V332.995L94.328 339.274Z" fill="#E0E0E0"/>
<path d="M83.46 332.995L86.177 331.435V320.97L83.46 319.41V332.995Z" fill="#263238"/>
<path d="M94.328 336.141L86.177 331.435L83.46 332.995L94.328 339.274V336.141Z" fill="#37474F"/>
<path d="M94.328 287.495V273.897L83.46 267.631V281.229L94.328 287.495Z" fill="#E0E0E0"/>
<path d="M83.46 281.229L86.177 279.656V269.191L83.46 267.631V281.229Z" fill="#263238"/>
<path d="M94.328 284.362L86.177 279.656L83.46 281.229L94.328 287.495V284.362Z" fill="#37474F"/>
<path d="M94.328 261.781V248.183L83.46 241.904V255.502L94.328 261.781Z" fill="#E0E0E0"/>
<path d="M83.46 255.502L86.177 253.942V243.477L83.46 241.904V255.502Z" fill="#263238"/>
<path d="M94.328 258.648L86.177 253.942L83.46 255.502L94.328 261.781V258.648Z" fill="#37474F"/>
<path d="M94.328 236.054V222.456L83.46 216.19V229.788L94.328 236.054Z" fill="#FAFAFA"/>
<path d="M83.46 229.788L86.177 228.215V217.75L83.46 216.19V229.788Z" fill="#263238"/>
<path d="M94.328 232.921L86.177 228.215L83.46 229.788L94.328 236.054V232.921Z" fill="#37474F"/>
<path d="M100.529 225.355L106.86 229.008V320.463L100.529 316.823V225.355Z" fill="#FAFAFA"/>
<path d="M100.529 225.355L103.207 226.902V315.315L100.529 316.823V225.355Z" fill="#263238"/>
<path d="M103.207 315.315L106.86 317.343V320.463L100.529 316.823L103.207 315.315Z" fill="#37474F"/>
<path d="M110.604 231.114L116.948 234.754V326.222L110.604 322.569V231.114Z" fill="#FAFAFA"/>
<path d="M110.604 231.114L113.282 232.661V321.061L110.604 322.569V231.114Z" fill="#263238"/>
<path d="M113.282 321.061L116.948 323.089V326.222L110.604 322.569L113.282 321.061Z" fill="#37474F"/>
<path d="M146.9 335.855V322.257L157.755 315.978V329.576L146.9 335.855Z" fill="#E0E0E0"/>
<path d="M157.755 329.576L155.038 328.016L155.051 317.551L157.755 315.978V329.576Z" fill="#455A64"/>
<path d="M146.9 332.722L155.038 328.016L157.755 329.576L146.9 335.855V332.722Z" fill="#263238"/>
<path d="M163.787 326.144V312.546L174.655 306.28V319.878L163.787 326.144Z" fill="#E0E0E0"/>
<path d="M174.655 319.878L171.938 318.305V307.84L174.655 306.28V319.878Z" fill="#455A64"/>
<path d="M163.787 323.011L171.938 318.305L174.655 319.878L163.787 326.144V323.011Z" fill="#263238"/>
<path d="M180.674 316.446V302.848L191.542 296.569V310.167L180.674 316.446Z" fill="#E0E0E0"/>
<path d="M191.542 310.167L188.825 308.607V298.142L191.542 296.569V310.167Z" fill="#455A64"/>
<path d="M180.674 313.3L188.825 308.607L191.542 310.167L180.674 316.446V313.3Z" fill="#263238"/>
<path d="M146.9 361.907V348.309L157.755 342.043V355.641L146.9 361.907Z" fill="#E0E0E0"/>
<path d="M157.755 355.641L155.038 354.068L155.051 343.603L157.755 342.043V355.641Z" fill="#455A64"/>
<path d="M146.9 358.774L155.038 354.068L157.755 355.641L146.9 361.907V358.774Z" fill="#263238"/>
<path d="M163.787 352.209V338.598L174.655 332.332V345.93L163.787 352.209Z" fill="#E0E0E0"/>
<path d="M174.655 345.93L171.938 344.357V333.905L174.655 332.332V345.93Z" fill="#455A64"/>
<path d="M163.787 349.063L171.938 344.357L174.655 345.93L163.787 352.209V349.063Z" fill="#263238"/>
<path d="M180.674 342.498V328.9L191.542 322.621V336.219L180.674 342.498Z" fill="#E0E0E0"/>
<path d="M191.542 336.219L188.825 334.659V324.194L191.542 322.621V336.219Z" fill="#455A64"/>
<path d="M180.674 339.365L188.825 334.659L191.542 336.219L180.674 342.498V339.365Z" fill="#263238"/>
<path d="M146.9 310.349V296.751L157.755 290.485V304.083L146.9 310.349Z" fill="#E0E0E0"/>
<path d="M157.755 304.083L155.038 302.51L155.051 292.045L157.755 290.485V304.083Z" fill="#455A64"/>
<path d="M146.9 307.216L155.038 302.51L157.755 304.083L146.9 310.349V307.216Z" fill="#263238"/>
<path d="M163.787 300.534V286.936L174.655 280.67V294.268L163.787 300.534Z" fill="#E0E0E0"/>
<path d="M174.655 294.268L171.938 292.695V282.23L174.655 280.67V294.268Z" fill="#455A64"/>
<path d="M163.787 297.401L171.938 292.695L174.655 294.268L163.787 300.534V297.401Z" fill="#263238"/>
<path d="M180.674 290.719V277.121L191.542 270.855V284.453L180.674 290.719Z" fill="#E0E0E0"/>
<path d="M191.542 284.453L188.825 282.88V272.415L191.542 270.855V284.453Z" fill="#455A64"/>
<path d="M180.674 287.586L188.825 282.88L191.542 284.453L180.674 290.719V287.586Z" fill="#263238"/>
<path d="M146.9 284.843V271.245L157.755 264.979V278.577L146.9 284.843Z" fill="#E0E0E0"/>
<path d="M157.755 278.577L155.038 277.004L155.051 266.539L157.755 264.979V278.577Z" fill="#455A64"/>
<path d="M146.9 281.71L155.038 277.004L157.755 278.577L146.9 284.843V281.71Z" fill="#263238"/>
<path d="M163.787 274.924V261.326L174.655 255.047V268.658L163.787 274.924Z" fill="#E0E0E0"/>
<path d="M174.655 268.658L171.938 267.085V256.62L174.655 255.047V268.658Z" fill="#455A64"/>
<path d="M163.787 271.791L171.938 267.085L174.655 268.658L163.787 274.924V271.791Z" fill="#263238"/>
<path d="M180.674 265.005V251.407L191.542 245.128V258.726L180.674 265.005Z" fill="#E0E0E0"/>
<path d="M191.542 258.726L188.825 257.166V246.701L191.542 245.128V258.726Z" fill="#455A64"/>
<path d="M180.674 261.872L188.825 257.166L191.542 258.726L180.674 265.005V261.872Z" fill="#263238"/>
<path d="M146.9 259.35V245.739L157.755 239.473V253.071L146.9 259.35Z" fill="#E0E0E0"/>
<path d="M157.755 253.071L155.038 251.498L155.051 241.046L157.755 239.473V253.071Z" fill="#455A64"/>
<path d="M146.9 256.204L155.038 251.498L157.755 253.071L146.9 259.35V256.204Z" fill="#263238"/>
<path d="M163.787 249.314V235.716L174.655 229.437V243.035L163.787 249.314Z" fill="#E0E0E0"/>
<path d="M174.655 243.035L171.938 241.475V231.01L174.655 229.437V243.035Z" fill="#455A64"/>
<path d="M163.787 246.181L171.938 241.475L174.655 243.035L163.787 249.314V246.181Z" fill="#263238"/>
<path d="M180.674 239.278V225.68L191.542 219.414V233.012L180.674 239.278Z" fill="#E0E0E0"/>
<path d="M191.542 233.012L188.825 231.439V220.974L191.542 219.414V233.012Z" fill="#455A64"/>
<path d="M180.674 236.145L188.825 231.439L191.542 233.012L180.674 239.278V236.145Z" fill="#263238"/>
<path d="M87.373 196.417L134.901 168.974L187.694 199.459L140.179 226.902L87.373 196.417Z" fill="#F0F0F0"/>
<path d="M134.901 168.974V175.071L182.416 202.514L187.694 199.459L134.901 168.974Z" fill="#455A64"/>
<path d="M134.901 168.974L87.373 196.417L92.651 199.459L134.901 175.071V168.974Z" fill="#263238"/>
<path d="M506.688 376.298L448.604 342.758V199.459L506.701 232.999L506.688 376.298Z" fill="#FFE0B0"/>
<path d="M506.701 232.999L570.063 196.417V339.703L506.688 376.298L506.701 232.999Z" fill="#FFC366"/>
<path d="M448.604 199.459L511.979 162.877L570.063 196.417L506.701 232.999L448.604 199.459Z" fill="#FFC366"/>
<path d="M546.351 353.431V329.03L529.919 338.468L529.932 362.856L546.351 353.431Z" fill="#F3F3F3"/>
<path d="M539.175 333.151L537.589 334.074V358.462L539.175 357.539V333.151Z" fill="#CCAA76"/>
<path d="M513.331 335.855V322.257L524.199 315.978V329.576L513.331 335.855Z" fill="#F3F3F3"/>
<path d="M524.199 329.576L521.482 328.016V317.551L524.199 315.978V329.576Z" fill="#CCAA76"/>
<path d="M513.331 332.722L521.482 328.016L524.199 329.576L513.331 335.855V332.722Z" fill="#FFE0B0"/>
<path d="M513.331 361.907V348.309L524.199 342.043V355.641L513.331 361.907Z" fill="#F3F3F3"/>
<path d="M524.199 355.641L521.482 354.068V343.603L524.199 342.043V355.641Z" fill="#CCAA76"/>
<path d="M513.331 358.774L521.482 354.068L524.199 355.641L513.331 361.907V358.774Z" fill="#FFE0B0"/>
<path d="M513.331 310.349V296.751L524.199 290.485V304.083L513.331 310.349Z" fill="#F3F3F3"/>
<path d="M524.199 304.083L521.482 302.51V292.045L524.199 290.485V304.083Z" fill="#CCAA76"/>
<path d="M513.331 307.216L521.482 302.51L524.199 304.083L513.331 310.349V307.216Z" fill="#FFE0B0"/>
<path d="M513.331 284.843V271.245L524.199 264.979V278.577L513.331 284.843Z" fill="#F3F3F3"/>
<path d="M524.199 278.577L521.482 277.004V266.539L524.199 264.979V278.577Z" fill="#CCAA76"/>
<path d="M513.331 281.71L521.482 277.004L524.199 278.577L513.331 284.843V281.71Z" fill="#FFE0B0"/>
<path d="M513.331 259.35V245.739L524.199 239.473V253.071L513.331 259.35Z" fill="#F3F3F3"/>
<path d="M524.199 253.071L521.482 251.498V241.046L524.199 239.473V253.071Z" fill="#CCAA76"/>
<path d="M513.331 256.204L521.482 251.498L524.199 253.071L513.331 259.35V256.204Z" fill="#FFE0B0"/>
<path d="M552.552 313.222V299.624L563.407 293.345V306.943L552.552 313.222Z" fill="#F3F3F3"/>
<path d="M563.407 306.943L560.703 305.383V294.918L563.407 293.345V306.943Z" fill="#CCAA76"/>
<path d="M552.552 310.089L560.703 305.383L563.407 306.943L552.552 313.222V310.089Z" fill="#FFE0B0"/>
<path d="M552.552 339.274V325.676L563.407 319.41V332.995L552.552 339.274Z" fill="#F3F3F3"/>
<path d="M563.407 332.995L560.703 331.435V320.97L563.407 319.41V332.995Z" fill="#CCAA76"/>
<path d="M552.552 336.141L560.703 331.435L563.407 332.995L552.552 339.274V336.141Z" fill="#FFE0B0"/>
<path d="M552.552 287.495V273.897L563.407 267.631V281.229L552.552 287.495Z" fill="#F3F3F3"/>
<path d="M563.407 281.229L560.703 279.656V269.191L563.407 267.631V281.229Z" fill="#CCAA76"/>
<path d="M552.552 284.362L560.703 279.656L563.407 281.229L552.552 287.495V284.362Z" fill="#FFE0B0"/>
<path d="M552.552 261.781V248.183L563.407 241.904V255.502L552.552 261.781Z" fill="#F3F3F3"/>
<path d="M563.407 255.502L560.703 253.942V243.477L563.407 241.904V255.502Z" fill="#CCAA76"/>
<path d="M552.552 258.648L560.703 253.942L563.407 255.502L552.552 261.781V258.648Z" fill="#FFE0B0"/>
<path d="M552.552 236.054V222.456L563.407 216.19V229.788L552.552 236.054Z" fill="#FFFAF2"/>
<path d="M563.407 229.788L560.703 228.215V217.75L563.407 216.19V229.788Z" fill="#CCAA76"/>
<path d="M552.552 232.921L560.703 228.215L563.407 229.788L552.552 236.054V232.921Z" fill="#FFE0B0"/>
<path d="M546.351 225.355L540.007 229.008V320.463L546.351 316.823V225.355Z" fill="#FAFAFA"/>
<path d="M546.351 225.355L543.66 226.902V315.315L546.351 316.823V225.355Z" fill="#CCAA76"/>
<path d="M543.66 315.315L540.007 317.343V320.463L546.351 316.823L543.66 315.315Z" fill="#FFE0B0"/>
<path d="M536.263 231.114L529.932 234.754V326.222L536.263 322.569V231.114Z" fill="#FAFAFA"/>
<path d="M536.263 231.114L533.585 232.661V321.061L536.263 322.569V231.114Z" fill="#CCAA76"/>
<path d="M533.585 321.061L529.932 323.089V326.222L536.263 322.569L533.585 321.061Z" fill="#FFE0B0"/>
<path d="M499.98 335.855V322.257L489.112 315.978V329.576L499.98 335.855Z" fill="#F3F3F3"/>
<path d="M489.112 329.576L491.829 328.016V317.551L489.112 315.978V329.576Z" fill="#F3D09A"/>
<path d="M499.98 332.722L491.829 328.016L489.112 329.576L499.98 335.855V332.722Z" fill="#CCAA76"/>
<path d="M483.08 326.144V312.546L472.225 306.28V319.878L483.08 326.144Z" fill="#F3F3F3"/>
<path d="M472.225 319.878L474.929 318.305V307.84L472.225 306.28V319.878Z" fill="#F3D09A"/>
<path d="M483.08 323.011L474.929 318.305L472.225 319.878L483.08 326.144V323.011Z" fill="#CCAA76"/>
<path d="M466.193 316.446V302.848L455.325 296.569V310.167L466.193 316.446Z" fill="#F3F3F3"/>
<path d="M455.325 310.167L458.042 308.607V298.142L455.325 296.569V310.167Z" fill="#F3D09A"/>
<path d="M466.193 313.3L458.042 308.607L455.325 310.167L466.193 316.446V313.3Z" fill="#CCAA76"/>
<path d="M499.98 361.907V348.309L489.112 342.043V355.641L499.98 361.907Z" fill="#F3F3F3"/>
<path d="M489.112 355.641L491.829 354.068V343.603L489.112 342.043V355.641Z" fill="#F3D09A"/>
<path d="M499.98 358.774L491.829 354.068L489.112 355.641L499.98 361.907V358.774Z" fill="#CCAA76"/>
<path d="M483.08 352.209V338.598L472.225 332.332V345.93L483.08 352.209Z" fill="#F3F3F3"/>
<path d="M472.225 345.93L474.929 344.357V333.905L472.225 332.332V345.93Z" fill="#F3D09A"/>
<path d="M483.08 349.063L474.929 344.357L472.225 345.93L483.08 352.209V349.063Z" fill="#CCAA76"/>
<path d="M466.193 342.498V328.9L455.325 322.621V336.219L466.193 342.498Z" fill="#F3F3F3"/>
<path d="M455.325 336.219L458.042 334.659V324.194L455.325 322.621V336.219Z" fill="#F3D09A"/>
<path d="M466.193 339.365L458.042 334.659L455.325 336.219L466.193 342.498V339.365Z" fill="#CCAA76"/>
<path d="M499.98 310.349V296.751L489.112 290.485V304.083L499.98 310.349Z" fill="#F3F3F3"/>
<path d="M489.112 304.083L491.829 302.51V292.045L489.112 290.485V304.083Z" fill="#F3D09A"/>
<path d="M499.98 307.216L491.829 302.51L489.112 304.083L499.98 310.349V307.216Z" fill="#CCAA76"/>
<path d="M483.08 300.534V286.936L472.225 280.67V294.268L483.08 300.534Z" fill="#F3F3F3"/>
<path d="M472.225 294.268L474.929 292.695V282.23L472.225 280.67V294.268Z" fill="#F3D09A"/>
<path d="M483.08 297.401L474.929 292.695L472.225 294.268L483.08 300.534V297.401Z" fill="#CCAA76"/>
<path d="M466.193 290.719V277.121L455.325 270.855V284.453L466.193 290.719Z" fill="#F3F3F3"/>
<path d="M455.325 284.453L458.042 282.88V272.415L455.325 270.855V284.453Z" fill="#F3D09A"/>
<path d="M466.193 287.586L458.042 282.88L455.325 284.453L466.193 290.719V287.586Z" fill="#CCAA76"/>
<path d="M499.98 284.843V271.245L489.112 264.979V278.577L499.98 284.843Z" fill="#F3F3F3"/>
<path d="M489.112 278.577L491.829 277.004V266.539L489.112 264.979V278.577Z" fill="#F3D09A"/>
<path d="M499.98 281.71L491.829 277.004L489.112 278.577L499.98 284.843V281.71Z" fill="#CCAA76"/>
<path d="M483.08 274.924V261.326L472.225 255.047V268.658L483.08 274.924Z" fill="#F3F3F3"/>
<path d="M472.225 268.658L474.929 267.085V256.62L472.225 255.047V268.658Z" fill="#F3D09A"/>
<path d="M483.08 271.791L474.929 267.085L472.225 268.658L483.08 274.924V271.791Z" fill="#CCAA76"/>
<path d="M466.193 265.005V251.407L455.325 245.128V258.726L466.193 265.005Z" fill="#F3F3F3"/>
<path d="M455.325 258.726L458.042 257.166V246.701L455.325 245.128V258.726Z" fill="#F3D09A"/>
<path d="M466.193 261.872L458.042 257.166L455.325 258.726L466.193 265.005V261.872Z" fill="#CCAA76"/>
<path d="M499.98 259.35V245.739L489.112 239.473V253.071L499.98 259.35Z" fill="#F3F3F3"/>
<path d="M489.112 253.071L491.829 251.498V241.046L489.112 239.473V253.071Z" fill="#F3D09A"/>
<path d="M499.98 256.204L491.829 251.498L489.112 253.071L499.98 259.35V256.204Z" fill="#CCAA76"/>
<path d="M483.08 249.314V235.716L472.225 229.437V243.035L483.08 249.314Z" fill="#F3F3F3"/>
<path d="M472.225 243.035L474.929 241.475V231.01L472.225 229.437V243.035Z" fill="#F3D09A"/>
<path d="M483.08 246.181L474.929 241.475L472.225 243.035L483.08 249.314V246.181Z" fill="#CCAA76"/>
<path d="M466.193 239.278V225.68L455.325 219.414V233.012L466.193 239.278Z" fill="#F3F3F3"/>
<path d="M455.325 233.012L458.042 231.439V220.974L455.325 219.414V233.012Z" fill="#F3D09A"/>
<path d="M466.193 236.145L458.042 231.439L455.325 233.012L466.193 239.278V236.145Z" fill="#CCAA76"/>
<path d="M559.507 196.417L511.979 168.974L459.173 199.459L506.701 226.902L559.507 196.417Z" fill="#F3D09A"/>
<path d="M511.979 168.974V175.071L464.451 202.514L459.173 199.459L511.979 168.974Z" fill="#E0A447"/>
<path d="M511.979 168.974L559.507 196.417L554.216 199.459L511.979 175.071V168.974Z" fill="#FFE0B0"/>
<path d="M420.537 510.211C413.928 512.928 406.515 512.928 399.906 510.211C394.212 507.494 394.212 503.1 399.906 500.383C406.515 497.666 413.928 497.666 420.537 500.383C426.244 503.1 426.244 507.494 420.537 510.211Z" fill="#E0E0E0"/>
<path d="M207.168 501.254C213.781 503.971 221.199 503.971 227.812 501.254C233.506 498.537 233.506 494.143 227.812 491.426C221.199 488.708 213.781 488.708 207.168 491.426C201.5 494.143 201.5 498.537 207.168 501.254Z" fill="#E0E0E0"/>
<path d="M327.821 499.668L454.207 426.699C455.056 426.249 455.766 425.576 456.261 424.752C456.756 423.929 457.017 422.986 457.017 422.025C457.017 421.065 456.756 420.122 456.261 419.299C455.766 418.475 455.056 417.802 454.207 417.352L327.808 344.383C326.936 343.941 325.971 343.711 324.994 343.711C324.016 343.711 323.051 343.941 322.179 344.383L195.793 417.3C194.944 417.75 194.234 418.423 193.739 419.247C193.244 420.07 192.983 421.013 192.983 421.973C192.983 422.934 193.244 423.877 193.739 424.7C194.234 425.524 194.944 426.197 195.793 426.647L322.192 499.616C323.06 500.066 324.022 500.305 325 500.314C325.978 500.323 326.945 500.102 327.821 499.668V499.668Z" fill="#64A3AF"/>
<path d="M327.821 499.668L454.207 426.699C455.056 426.249 455.766 425.576 456.261 424.752C456.756 423.929 457.017 422.986 457.017 422.025C457.017 421.065 456.756 420.122 456.261 419.299C455.766 418.475 455.056 417.802 454.207 417.352L327.808 344.383C326.936 343.941 325.971 343.711 324.994 343.711C324.016 343.711 323.051 343.941 322.179 344.383L195.793 417.3C194.944 417.75 194.234 418.423 193.739 419.247C193.244 420.07 192.983 421.013 192.983 421.973C192.983 422.934 193.244 423.877 193.739 424.7C194.234 425.524 194.944 426.197 195.793 426.647L322.192 499.616C323.06 500.066 324.022 500.305 325 500.314C325.978 500.323 326.945 500.102 327.821 499.668V499.668Z" fill="#64A3AF"/>
<path d="M327.821 499.668L454.207 426.699C455.056 426.249 455.766 425.576 456.261 424.752C456.756 423.929 457.017 422.986 457.017 422.025C457.017 421.065 456.756 420.122 456.261 419.299C455.766 418.475 455.056 417.802 454.207 417.352L327.808 344.383C326.936 343.941 325.971 343.711 324.994 343.711C324.016 343.711 323.051 343.941 322.179 344.383L195.793 417.3C194.944 417.75 194.234 418.423 193.739 419.247C193.244 420.07 192.983 421.013 192.983 421.973C192.983 422.934 193.244 423.877 193.739 424.7C194.234 425.524 194.944 426.197 195.793 426.647L322.192 499.616C323.06 500.066 324.022 500.305 325 500.314C325.978 500.323 326.945 500.102 327.821 499.668V499.668Z" fill="#64A3AF"/>
<path opacity="0.2" d="M327.821 499.668L454.207 426.699C455.056 426.249 455.766 425.576 456.261 424.752C456.756 423.929 457.017 422.986 457.017 422.025C457.017 421.065 456.756 420.122 456.261 419.299C455.766 418.475 455.056 417.802 454.207 417.352L327.808 344.383C326.936 343.941 325.971 343.711 324.994 343.711C324.016 343.711 323.051 343.941 322.179 344.383L195.793 417.3C194.944 417.75 194.234 418.423 193.739 419.247C193.244 420.07 192.983 421.013 192.983 421.973C192.983 422.934 193.244 423.877 193.739 424.7C194.234 425.524 194.944 426.197 195.793 426.647L322.192 499.616C323.06 500.066 324.022 500.305 325 500.314C325.978 500.323 326.945 500.102 327.821 499.668V499.668Z" fill="black"/>
<path d="M195.793 420.602L322.192 493.571C323.064 494.013 324.029 494.243 325.007 494.243C325.984 494.243 326.949 494.013 327.821 493.571L454.207 420.602C454.547 420.487 454.842 420.268 455.05 419.977C455.259 419.685 455.372 419.336 455.372 418.977C455.372 418.618 455.259 418.269 455.05 417.977C454.842 417.686 454.547 417.467 454.207 417.352L327.808 344.383C326.936 343.941 325.971 343.711 324.994 343.711C324.016 343.711 323.051 343.941 322.179 344.383L195.793 417.3C195.434 417.402 195.117 417.618 194.892 417.916C194.667 418.214 194.545 418.577 194.545 418.951C194.545 419.324 194.667 419.688 194.892 419.986C195.117 420.284 195.434 420.5 195.793 420.602Z" fill="#64A3AF"/>
<path d="M346.125 467.753L435.89 415.922V199.459L346.125 251.29V467.753Z" fill="#37474F"/>
<path d="M325 483.002V263.484L214.11 199.459V418.977L325 483.002Z" fill="#455A64"/>
<path d="M325 391.534L214.11 327.509V321.412L203.541 327.509L325 397.631V391.534Z" fill="#64A3AF"/>
<path opacity="0.5" d="M325 391.534L214.11 327.509V321.412L203.541 327.509L325 397.631V391.534Z" fill="white"/>
<path d="M203.541 327.509L325 397.631V403.728L203.541 333.606V327.509Z" fill="#64A3AF"/>
<path d="M325 391.534L346.125 379.34L351.403 382.395L325 397.631V391.534Z" fill="#64A3AF"/>
<path opacity="0.5" d="M325 391.534L346.125 379.34L351.403 382.395L325 397.631V391.534Z" fill="white"/>
<path d="M325 403.728L351.403 388.492V382.395L325 397.631V403.728Z" fill="#64A3AF"/>
<path opacity="0.2" d="M325 403.728L351.403 388.492V382.395L325 397.631V403.728Z" fill="black"/>
<path d="M325 263.484L346.125 251.29V379.34L325 391.534V263.484Z" fill="#263238"/>
<path d="M325 403.728L346.125 391.534V470.808L325 483.002V403.728Z" fill="#263238"/>
<path d="M314.444 373.243V342.758L293.319 330.564V361.049L314.444 373.243Z" fill="#64A3AF"/>
<path opacity="0.5" d="M314.444 373.243V342.758L293.319 330.564V361.049L314.444 373.243Z" fill="white"/>
<path d="M293.319 361.049L298.597 358.007V333.606L293.319 330.564V361.049Z" fill="#263238"/>
<path d="M314.444 367.146L298.597 358.007L293.319 361.049L314.444 373.243V367.146Z" fill="#263238"/>
<path d="M282.75 354.952V324.467L256.347 309.218V339.703L282.75 354.952Z" fill="#64A3AF"/>
<path opacity="0.5" d="M282.75 354.952V324.467L256.347 309.218V339.703L282.75 354.952Z" fill="white"/>
<path d="M261.625 336.661L261.638 312.273L256.347 309.218V339.703L261.625 336.661Z" fill="#263238"/>
<path d="M282.75 348.855V354.952L256.347 339.703L261.625 336.661L282.75 348.855Z" fill="#263238"/>
<path d="M359.32 438.789V408.304L385.723 393.068V423.553L359.32 438.789Z" fill="#64A3AF"/>
<path d="M380.445 420.498V396.11L385.723 393.068V423.553L380.445 420.498Z" fill="#263238"/>
<path d="M359.32 432.692V438.789L385.723 423.553L380.445 420.498L359.32 432.692Z" fill="#263238"/>
<path d="M359.32 387.985V357.5L385.723 342.251V372.736L359.32 387.985Z" fill="#64A3AF"/>
<path d="M380.445 369.694V345.293L385.723 342.251V372.736L380.445 369.694Z" fill="#263238"/>
<path d="M359.32 381.888V387.985L385.723 372.736L380.445 369.694L359.32 381.888Z" fill="#263238"/>
<path d="M359.32 337.168V306.683L385.723 291.434V321.919L359.32 337.168Z" fill="#64A3AF"/>
<path d="M380.445 318.877V294.489L385.723 291.434V321.919L380.445 318.877Z" fill="#263238"/>
<path d="M359.32 331.071V337.168L385.723 321.919L380.445 318.877L359.32 331.071Z" fill="#263238"/>
<path d="M359.32 286.351V255.866L385.723 240.617V271.115L359.32 286.351Z" fill="#64A3AF"/>
<path d="M380.445 268.06V243.672L385.723 240.617V271.115L380.445 268.06Z" fill="#263238"/>
<path d="M359.32 280.254V286.351L385.723 271.115L380.445 268.06L359.32 280.254Z" fill="#263238"/>
<path d="M396.864 417.118V386.633L423.28 371.397L423.267 401.882L396.864 417.118Z" fill="#64A3AF"/>
<path d="M417.989 398.827V374.439L423.28 371.397L423.267 401.882L417.989 398.827Z" fill="#263238"/>
<path d="M396.864 411.034V417.118L423.267 401.882L417.989 398.827L396.864 411.034Z" fill="#263238"/>
<path d="M396.864 366.314V335.816L423.28 320.58L423.267 351.065L396.864 366.314Z" fill="#64A3AF"/>
<path d="M417.989 348.023V323.622L423.28 320.58L423.267 351.065L417.989 348.023Z" fill="#263238"/>
<path d="M396.864 360.217V366.314L423.267 351.065L417.989 348.023L396.864 360.217Z" fill="#263238"/>
<path d="M396.864 315.497V285.012L423.28 269.763L423.267 300.261L396.864 315.497Z" fill="#64A3AF"/>
<path d="M417.989 297.206V272.818L423.28 269.763L423.267 300.261L417.989 297.206Z" fill="#263238"/>
<path d="M396.864 309.4V315.497L423.267 300.261L417.989 297.206L396.864 309.4Z" fill="#263238"/>
<path d="M396.864 264.68V234.195L423.28 218.959L423.267 249.444L396.864 264.68Z" fill="#64A3AF"/>
<path d="M417.989 246.389V222.001L423.28 218.959L423.267 249.444L417.989 246.389Z" fill="#263238"/>
<path d="M396.864 258.583V264.68L423.267 249.444L417.989 246.389L396.864 258.583Z" fill="#263238"/>
<path d="M245.791 333.606V303.121L224.666 290.927V321.412L245.791 333.606Z" fill="#64A3AF"/>
<path opacity="0.5" d="M245.791 333.606V303.121L224.666 290.927V321.412L245.791 333.606Z" fill="white"/>
<path d="M229.944 318.37L224.666 321.412V290.927L229.944 293.982V318.37Z" fill="#263238"/>
<path d="M245.791 327.509L229.944 318.37L224.666 321.412L245.791 333.606V327.509Z" fill="#263238"/>
<path d="M256.347 391.833C256.347 383.227 262.262 379.652 269.555 383.864C276.848 388.076 282.75 398.463 282.75 407.082V458.614L256.347 443.365V391.833Z" fill="#263238"/>
<path d="M282.75 407.082C282.75 398.463 276.848 388.063 269.555 383.864C267.698 382.687 265.539 382.078 263.341 382.109C262.135 384.123 261.543 386.445 261.638 388.791V440.323L282.75 452.517V407.082Z" fill="#455A64"/>
<path d="M282.75 407.082C282.75 398.463 276.848 388.063 269.555 383.864C267.698 382.687 265.539 382.078 263.341 382.109C262.135 384.123 261.543 386.445 261.638 388.791V440.323L282.75 452.517V407.082Z" fill="#64A3AF"/>
<path opacity="0.5" d="M282.75 407.082C282.75 398.463 276.848 388.063 269.555 383.864C267.698 382.687 265.539 382.078 263.341 382.109C262.135 384.123 261.543 386.445 261.638 388.791V440.323L282.75 452.517V407.082Z" fill="white"/>
<path d="M273.364 386.737C272.553 385.972 271.684 385.273 270.764 384.644V398.346L261.664 393.068V396.227L270.764 401.518V441.025L273.364 442.52V403L282.75 408.421V407.121C282.75 406.497 282.75 405.821 282.659 405.236L273.364 399.88V386.737Z" fill="#455A64"/>
<path d="M325 263.484V245.193L208.819 178.126V196.417L325 263.484Z" fill="#64A3AF"/>
<path opacity="0.5" d="M325 263.484V245.193L208.819 178.126V196.417L325 263.484Z" fill="white"/>
<path d="M325 263.484V245.193L441.181 178.126V196.417L325 263.484Z" fill="#64A3AF"/>
<path opacity="0.2" d="M325 263.484V245.193L441.181 178.126V196.417L325 263.484Z" fill="black"/>
<path d="M224.666 230.75C224.666 223.574 229.398 220.48 235.222 223.847C241.046 227.214 245.791 235.768 245.791 242.944V290.927L224.666 278.733V230.75Z" fill="#263238"/>
<path d="M235.222 223.834C233.966 223.081 232.549 222.635 231.088 222.534C230.284 224.147 229.891 225.933 229.944 227.734V275.717L245.791 284.817V242.931C245.791 235.755 241.059 227.201 235.222 223.834Z" fill="#64A3AF"/>
<path opacity="0.5" d="M235.222 223.834C233.966 223.081 232.549 222.635 231.088 222.534C230.284 224.147 229.891 225.933 229.944 227.734V275.717L245.791 284.817V242.931C245.791 235.755 241.059 227.201 235.222 223.834Z" fill="white"/>
<path d="M224.666 278.733L229.944 275.678L245.791 284.817V290.927L224.666 278.733Z" fill="#263238"/>
<path d="M256.347 251.641C256.347 243.022 262.262 239.46 269.555 243.672C276.848 247.884 282.75 258.271 282.75 266.89V312.273L256.347 297.024V251.641Z" fill="#263238"/>
<path d="M282.75 266.89C282.75 258.271 276.848 247.871 269.555 243.672C267.698 242.496 265.539 241.886 263.341 241.917C262.135 243.931 261.543 246.253 261.638 248.599V293.969L282.75 306.176V266.89Z" fill="#64A3AF"/>
<path opacity="0.5" d="M282.75 266.89C282.75 258.271 276.848 247.871 269.555 243.672C267.698 242.496 265.539 241.886 263.341 241.917C262.135 243.931 261.543 246.253 261.638 248.599V293.969L282.75 306.176V266.89Z" fill="white"/>
<path d="M261.638 293.969L256.347 297.024L282.75 312.273V306.176L261.638 293.969Z" fill="#263238"/>
<path d="M293.319 270.4C293.319 263.224 298.038 260.13 303.875 263.497C309.712 266.864 314.444 275.418 314.444 282.594V330.577L293.319 318.383V270.4Z" fill="#263238"/>
<path d="M303.875 263.484C302.618 262.733 301.202 262.287 299.741 262.184C298.935 263.796 298.542 265.583 298.597 267.384V315.367L314.444 324.467V282.581C314.444 275.405 309.712 266.851 303.875 263.484Z" fill="#64A3AF"/>
<path opacity="0.5" d="M303.875 263.484C302.618 262.733 301.202 262.287 299.741 262.184C298.935 263.796 298.542 265.583 298.597 267.384V315.367L314.444 324.467V282.581C314.444 275.405 309.712 266.851 303.875 263.484Z" fill="white"/>
<path d="M298.597 315.315L293.319 318.37L314.444 330.564V324.467L298.597 315.315Z" fill="#263238"/>
<path d="M293.319 410.579C293.319 403.403 298.038 400.309 303.875 403.676C309.712 407.043 314.444 415.597 314.444 422.773V476.905L293.319 464.711V410.579Z" fill="#263238"/>
<path d="M303.875 403.676C302.618 402.925 301.202 402.479 299.741 402.376C298.937 403.988 298.544 405.775 298.597 407.576V461.695L314.444 470.795V422.695C314.444 415.597 309.712 407.043 303.875 403.676Z" fill="#64A3AF"/>
<path opacity="0.5" d="M303.875 403.676C302.618 402.925 301.202 402.479 299.741 402.376C298.937 403.988 298.544 405.775 298.597 407.576V461.695L314.444 470.795V422.695C314.444 415.597 309.712 407.043 303.875 403.676Z" fill="white"/>
<path d="M293.319 464.711V446.42L314.444 458.614V476.905L293.319 464.711Z" fill="#37474F"/>
<path d="M293.319 446.42L298.597 443.365L314.431 452.517L314.444 458.614L293.319 446.42Z" fill="#263238"/>
<path d="M224.666 370.942C224.666 363.766 229.398 360.672 235.222 364.039C241.046 367.406 245.791 375.96 245.791 383.136V437.268L224.666 425.1V370.942Z" fill="#263238"/>
<path d="M235.222 364C233.963 363.253 232.548 362.808 231.088 362.7C230.284 364.313 229.891 366.099 229.944 367.9V422.032L245.791 431.132V383.032C245.791 375.947 241.059 367.393 235.222 364Z" fill="#64A3AF"/>
<path opacity="0.5" d="M235.222 364C233.963 363.253 232.548 362.808 231.088 362.7C230.284 364.313 229.891 366.099 229.944 367.9V422.032L245.791 431.132V383.032C245.791 375.947 241.059 367.393 235.222 364Z" fill="white"/>
<path d="M245.791 437.268V418.977L224.666 406.783V425.074L245.791 437.268Z" fill="#37474F"/>
<path d="M224.666 406.783L229.944 403.728L245.791 412.88V418.977L224.666 406.783Z" fill="#263238"/>
<path d="M256.347 443.365V437.268L282.75 452.517V458.614L256.347 443.365Z" fill="#37474F"/>
<path d="M256.347 437.268L261.638 434.226L282.75 446.42V452.517L256.347 437.268Z" fill="#263238"/>
<path d="M325 245.193L441.181 178.126L325 111.046L208.819 178.126L325 245.193Z" fill="#64A3AF"/>
<path opacity="0.7" d="M325 245.193L441.181 178.126L325 111.046L208.819 178.126L325 245.193Z" fill="white"/>
<path d="M325 232.999L420.056 178.126L325 123.24L229.944 178.126L325 232.999Z" fill="#64A3AF"/>
<path d="M325 123.24V141.544L245.791 187.265L229.944 178.126L325 123.24Z" fill="#64A3AF"/>
<path opacity="0.2" d="M325 123.24V141.544L245.791 187.265L229.944 178.126L325 123.24Z" fill="black"/>
<path d="M325 123.24L420.056 178.126L404.209 187.265L325 141.544V123.24Z" fill="#64A3AF"/>
<path opacity="0.5" d="M325 123.24L420.056 178.126L404.209 187.265L325 141.544V123.24Z" fill="white"/>
<path d="M309.153 138.489L282.75 153.738L319.722 175.071L346.125 159.835L309.153 138.489Z" fill="#455A64"/>
<path d="M282.75 153.738V172.029L319.722 193.362V175.071L282.75 153.738Z" fill="#37474F"/>
<path d="M346.125 159.835V178.126L319.722 193.362V175.071L346.125 159.835Z" fill="#263238"/>
<path d="M300.482 148.72C295.685 151.489 295.685 155.974 300.482 158.743C303.171 160.109 306.144 160.82 309.16 160.82C312.175 160.82 315.148 160.109 317.837 158.743C322.621 155.974 322.621 151.489 317.837 148.72C315.148 147.354 312.175 146.643 309.16 146.643C306.144 146.643 303.171 147.354 300.482 148.72Z" fill="#37474F"/>
<path d="M305.097 151.58C302.848 152.763 302.848 154.7 305.097 155.883C306.37 156.474 307.756 156.78 309.16 156.78C310.563 156.78 311.949 156.474 313.222 155.883C315.458 154.7 315.458 152.763 313.222 151.58C311.949 150.989 310.563 150.683 309.16 150.683C307.756 150.683 306.37 150.989 305.097 151.58V151.58Z" fill="#263238"/>
<path d="M327.886 176.449L333.164 179.491V191.698" stroke="#455A64" stroke-width="2" stroke-linecap="round" stroke-linejoin="round"/>
<path d="M335.556 172.029L340.834 175.071V187.265" stroke="#455A64" stroke-width="2" stroke-linecap="round" stroke-linejoin="round"/>
<path d="M172.276 355.784V397.8C172.301 398.099 172.406 398.386 172.58 398.631C172.754 398.875 172.99 399.069 173.264 399.191C174.014 399.569 174.842 399.766 175.682 399.766C176.522 399.766 177.35 399.569 178.1 399.191C178.374 399.069 178.61 398.875 178.784 398.631C178.958 398.386 179.063 398.099 179.088 397.8V355.81L172.276 355.784Z" fill="#37474F"/>
<path d="M192.088 368.004C192.088 372.355 190.36 376.528 187.283 379.605C184.206 382.682 180.033 384.41 175.682 384.41C171.331 384.41 167.158 382.682 164.081 379.605C161.004 376.528 159.276 372.355 159.276 368.004C159.276 351.234 166.621 332.904 175.682 332.904C184.743 332.904 192.088 351 192.088 368.004Z" fill="#64A3AF"/>
<path d="M192.088 368.004C192.088 367.575 192.088 367.146 192.088 366.704V366.275C191.961 368.063 191.264 369.762 190.099 371.124C186.992 375.024 180.141 379.262 173.069 376.324C161.187 371.345 160.862 357.292 163.501 345.657C160.73 352.786 159.306 360.368 159.302 368.017C159.302 372.368 161.03 376.541 164.107 379.618C167.184 382.695 171.357 384.423 175.708 384.423C180.059 384.423 184.232 382.695 187.309 379.618C190.386 376.541 192.114 372.368 192.114 368.017L192.088 368.004Z" fill="#64A3AF"/>
<path opacity="0.1" d="M192.088 368.004C192.088 367.575 192.088 367.146 192.088 366.704V366.275C191.961 368.063 191.264 369.762 190.099 371.124C186.992 375.024 180.141 379.262 173.069 376.324C161.187 371.345 160.862 357.292 163.501 345.657C160.73 352.786 159.306 360.368 159.302 368.017C159.302 372.368 161.03 376.541 164.107 379.618C167.184 382.695 171.357 384.423 175.708 384.423C180.059 384.423 184.232 382.695 187.309 379.618C190.386 376.541 192.114 372.368 192.114 368.017L192.088 368.004Z" fill="black"/>
<path d="M52.273 282.1V324.103C52.3 324.41 52.4097 324.704 52.5906 324.953C52.7714 325.203 53.0166 325.399 53.3 325.52C54.0476 325.898 54.8737 326.095 55.7115 326.095C56.5493 326.095 57.3754 325.898 58.123 325.52C58.3979 325.397 58.6354 325.204 58.8112 324.96C58.9871 324.715 59.095 324.429 59.124 324.129V282.1H52.273Z" fill="#37474F"/>
<path d="M72.085 294.359C72.1467 296.551 71.7682 298.734 70.9718 300.778C70.1755 302.821 68.9774 304.685 67.4484 306.257C65.9195 307.83 64.0907 309.08 62.0703 309.933C60.0499 310.787 57.8788 311.227 55.6855 311.227C53.4922 311.227 51.3211 310.787 49.3007 309.933C47.2803 309.08 45.4515 307.83 43.9226 306.257C42.3937 304.685 41.1956 302.821 40.3992 300.778C39.6028 298.734 39.2243 296.551 39.286 294.359C39.286 277.589 46.631 259.259 55.679 259.259C64.727 259.259 72.085 277.316 72.085 294.359Z" fill="#64A3AF"/>
<path d="M597.727 282.1V324.103C597.698 324.403 597.59 324.689 597.414 324.934C597.238 325.178 597.001 325.371 596.726 325.494C595.978 325.872 595.152 326.069 594.315 326.069C593.477 326.069 592.651 325.872 591.903 325.494C591.628 325.371 591.391 325.178 591.215 324.934C591.039 324.689 590.931 324.403 590.902 324.103V282.1H597.727Z" fill="#37474F"/>
<path d="M577.915 294.359C577.853 296.551 578.232 298.734 579.028 300.778C579.825 302.821 581.023 304.685 582.552 306.257C584.081 307.83 585.909 309.08 587.93 309.933C589.95 310.787 592.121 311.227 594.315 311.227C596.508 311.227 598.679 310.787 600.699 309.933C602.72 309.08 604.548 307.83 606.077 306.257C607.606 304.685 608.804 302.821 609.601 300.778C610.397 298.734 610.776 296.551 610.714 294.359C610.714 277.589 603.369 259.259 594.321 259.259C585.273 259.259 577.915 277.316 577.915 294.359Z" fill="#64A3AF"/>
<path d="M507 401.05H518.401V388.479C518.401 387.73 518.253 386.989 517.966 386.297C517.679 385.605 517.259 384.977 516.729 384.448C516.199 383.919 515.569 383.5 514.877 383.215C514.185 382.929 513.443 382.783 512.694 382.785V382.785C511.184 382.785 509.736 383.385 508.668 384.453C507.6 385.521 507 386.969 507 388.479V401.05Z" fill="#64A3AF"/>
<g opacity="0.5">
<path d="M507 401.05H518.401V388.479C518.401 387.73 518.253 386.989 517.966 386.297C517.679 385.605 517.259 384.977 516.729 384.448C516.199 383.919 515.569 383.5 514.877 383.215C514.185 382.929 513.443 382.783 512.694 382.785V382.785C511.184 382.785 509.736 383.385 508.668 384.453C507.6 385.521 507 386.969 507 388.479V401.05Z" fill="black"/>
</g>
<path d="M508.521 405.236C509.288 401.414 510.731 397.202 510.653 395.304L509.535 395.369C508.871 395.414 508.242 395.682 507.751 396.131C507.26 396.58 506.935 397.182 506.831 397.839C506.428 400.322 505.817 404.118 505.531 405.639C505.275 407.582 504.84 409.497 504.231 411.359C504.126 411.628 503.927 411.849 503.672 411.983C503.118 412.311 502.618 412.723 502.19 413.205C501.774 413.569 501.449 413.647 501.488 413.777C501.551 413.921 501.667 414.037 501.812 414.099C501.956 414.162 502.119 414.168 502.268 414.115C502.601 414.012 502.92 413.868 503.217 413.686C502.951 414.258 502.591 414.781 502.151 415.233C501.163 416.273 501.072 416.949 502.905 417.105C504.049 417.196 505.011 416.559 506.064 414.115C506.466 413.217 506.805 412.291 507.078 411.346C507.78 408.915 508.222 406.744 508.521 405.236Z" fill="#FFA8A7"/>
<path d="M525.395 438.1C525.824 437.866 526.11 438.425 526.5 438.867C526.838 439.194 527.104 439.588 527.28 440.024C527.266 440.375 527.178 440.718 527.021 441.032C526.864 441.346 526.642 441.623 526.37 441.844C525.719 442.243 525.252 442.883 525.07 443.625C525.021 444.083 524.843 444.517 524.558 444.878C524.273 445.239 523.892 445.512 523.458 445.666C522.953 445.877 522.412 445.985 521.865 445.985C521.319 445.985 520.777 445.877 520.273 445.666C519.662 445.276 520.273 444.834 521.079 443.612C522.197 442.013 523.068 440.869 523.068 439.374L525.395 438.1Z" fill="#263238"/>
<path d="M524.498 436.722L525.408 438.022C525.603 438.301 525.68 438.645 525.624 438.98C525.569 439.315 525.384 439.616 525.109 439.816C524.831 439.985 524.503 440.05 524.182 440C523.86 439.95 523.567 439.788 523.354 439.543L521.924 437.97L524.498 436.722Z" fill="#FFA8A7"/>
<path d="M507 412.308C507.133 415.752 507.781 419.157 508.924 422.409C509.611 424.276 510.482 426.07 511.524 427.765C511.901 428.415 522.652 438.88 522.652 438.88C523.166 438.838 523.651 438.628 524.034 438.282C524.417 437.937 524.676 437.476 524.771 436.969C524.771 436.969 520.364 429.481 519.402 427.947C518.145 426.454 516.688 425.142 515.073 424.047L515.385 410.605L507 412.308Z" fill="#37474F"/>
<path d="M510.753 443.69L508.484 443.174L507.731 446.483L510 446.999L510.753 443.69Z" fill="#FFA8A7"/>
<path d="M508.924 410.436L518.596 410.813C519.254 412.244 519.536 413.819 519.415 415.389C519.09 420.108 514.618 428.545 514.618 428.545C514.827 430.455 514.73 432.386 514.332 434.265C513.315 437.706 512.117 441.09 510.744 444.405C510.305 444.472 509.857 444.442 509.43 444.319C509.004 444.195 508.609 443.981 508.274 443.69C508.274 443.69 509.73 430.755 510.12 427.44C510.549 423.852 511.641 417.3 511.641 417.3C510.917 416.585 510.264 415.801 509.691 414.96C508.677 413.676 508.156 412.071 508.222 410.436" fill="#37474F"/>
<path d="M522.288 407.888C521.96 404.555 521.422 401.247 520.676 397.982C520.588 397.444 520.324 396.95 519.927 396.577C519.53 396.203 519.021 395.971 518.479 395.915V395.915C515.32 397.618 515.346 399.88 518.037 402.61C518.037 402.61 519.155 407.004 519.506 409.11C519.874 411.034 520.048 412.989 520.026 414.947C520.01 415.234 519.885 415.504 519.675 415.701C519.244 416.179 518.884 416.718 518.609 417.3C518.323 417.768 518.024 417.937 518.102 418.054C518.204 418.175 518.347 418.253 518.504 418.273C518.661 418.292 518.819 418.251 518.947 418.158C519.235 417.963 519.498 417.731 519.727 417.469C519.638 418.089 519.449 418.69 519.168 419.25C518.518 420.55 518.622 421.213 520.468 420.836C521.586 420.602 522.327 419.705 522.626 417.053C522.758 416.075 522.819 415.089 522.808 414.102C522.6 411.619 522.444 409.422 522.288 407.888Z" fill="#FFA8A7"/>
<path d="M507.975 445.367L508.04 445.042C507.806 445.042 506.74 446.784 505.765 447.525C504.79 448.266 503.698 448.825 503.165 449.163C502.632 449.501 503.464 450.645 505.089 450.736C506.046 450.791 506.998 450.57 507.832 450.099C508.287 449.67 508.612 448.955 508.976 448.643C509.34 448.331 510.068 448.071 510.276 447.668C510.411 447.276 510.455 446.858 510.406 446.446C510.406 446.017 510.406 445.549 510.237 445.562V445.809C509.806 446.024 509.327 446.127 508.846 446.108C508.495 446.095 507.78 446.004 507.975 445.367Z" fill="#263238"/>
<path d="M510.406 425.243C510.406 425.243 511.381 418.366 511.641 417.3C510.864 416.874 510.14 416.36 509.483 415.766C509.934 416.407 510.424 417.02 510.952 417.599L510.406 425.243Z" fill="#263238"/>
<path d="M516.243 425.009C515.776 426.221 515.233 427.402 514.618 428.545C514.618 428.545 514.735 430.755 514.722 431.145L515.333 431.678C515.348 430.679 515.256 429.681 515.06 428.701C515.588 427.517 515.985 426.279 516.243 425.009V425.009Z" fill="#263238"/>
<path d="M515.073 395.356C516.217 395.485 517.354 395.672 518.479 395.915C515.333 398.125 518.037 402.61 518.037 402.61L516.36 407.251C517.487 408.728 518.401 410.356 519.077 412.087C518.193 413.101 512.941 416.169 506.948 412.308C506.948 412.308 507.299 408.928 507.793 406.38C506.935 402.246 506.688 400.79 506.948 399.815C507.65 397.085 509.262 395.343 511.108 395.239L515.073 395.356Z" fill="#F5F5F5"/>
<path d="M508.924 385.086C508.326 385.437 507.624 386.958 507.624 390.13C507.689 392.821 508.56 393.484 509.002 393.679C509.695 393.824 510.412 393.802 511.095 393.614V395.2C511.095 395.2 509.964 396.5 510.042 397.267C510.12 398.034 511.68 398.177 512.733 397.462C513.504 396.863 514.168 396.138 514.696 395.317V391.612C514.696 391.612 515.19 392.08 515.996 391.365C516.325 391.13 516.549 390.775 516.62 390.376C516.69 389.977 516.602 389.567 516.373 389.233C516.236 389.105 516.07 389.011 515.889 388.96C515.708 388.909 515.518 388.901 515.334 388.938C515.15 388.975 514.977 389.055 514.83 389.172C514.683 389.289 514.565 389.439 514.488 389.61C513.414 389.567 512.367 389.254 511.446 388.7C510.771 388.338 510.191 387.822 509.753 387.194C509.315 386.566 509.031 385.844 508.924 385.086Z" fill="#FFA8A7"/>
<path d="M510.653 389.454C510.653 389.544 510.689 389.63 510.752 389.693C510.815 389.756 510.901 389.792 510.991 389.792C511.081 389.792 511.167 389.756 511.23 389.693C511.293 389.63 511.329 389.544 511.329 389.454C511.333 389.408 511.327 389.362 511.313 389.318C511.298 389.274 511.275 389.233 511.245 389.198C511.215 389.163 511.178 389.134 511.137 389.113C511.095 389.093 511.05 389.08 511.004 389.077C510.956 389.077 510.908 389.087 510.863 389.106C510.819 389.125 510.779 389.153 510.746 389.189C510.713 389.224 510.688 389.266 510.672 389.312C510.656 389.357 510.649 389.406 510.653 389.454V389.454Z" fill="#263238"/>
<path d="M510.562 391.742L509.782 391.989C509.795 392.042 509.819 392.091 509.853 392.134C509.886 392.178 509.927 392.214 509.974 392.24C510.022 392.267 510.074 392.284 510.128 392.29C510.182 392.296 510.237 392.291 510.289 392.275C510.395 392.239 510.483 392.164 510.534 392.064C510.585 391.965 510.595 391.849 510.562 391.742V391.742Z" fill="#F28F8F"/>
<path d="M507.884 388.414L508.56 387.946C508.532 387.9 508.495 387.86 508.452 387.829C508.408 387.798 508.358 387.777 508.306 387.766C508.254 387.755 508.199 387.755 508.147 387.766C508.094 387.777 508.045 387.798 508.001 387.829C507.954 387.859 507.914 387.898 507.883 387.944C507.852 387.99 507.83 388.042 507.819 388.097C507.808 388.151 507.808 388.208 507.819 388.262C507.83 388.317 507.852 388.368 507.884 388.414V388.414Z" fill="#263238"/>
<path d="M508.04 389.207C508.036 389.253 508.042 389.3 508.056 389.343C508.071 389.387 508.094 389.428 508.124 389.463C508.154 389.498 508.191 389.527 508.232 389.548C508.274 389.568 508.319 389.581 508.365 389.584C508.456 389.584 508.543 389.549 508.609 389.486C508.674 389.423 508.713 389.337 508.716 389.246C508.716 389.202 508.707 389.158 508.69 389.117C508.673 389.076 508.648 389.038 508.617 389.007C508.586 388.976 508.548 388.951 508.507 388.934C508.466 388.917 508.422 388.908 508.378 388.908C508.334 388.908 508.29 388.917 508.249 388.934C508.208 388.951 508.17 388.976 508.139 389.007C508.108 389.038 508.083 389.076 508.066 389.117C508.049 389.158 508.04 389.202 508.04 389.246V389.207Z" fill="#263238"/>
<path d="M509.639 389.012L509.587 391.053L508.508 390.728L509.639 389.012Z" fill="#F28F8F"/>
<path d="M511.121 393.614C511.992 393.51 513.721 392.99 514.046 392.314C513.936 392.67 513.718 392.984 513.422 393.211C512.701 393.636 511.928 393.964 511.121 394.186V393.614Z" fill="#F28F8F"/>
<path d="M517.257 404.781L514.891 407.992L516.347 407.251L517.257 404.781Z" fill="#E0E0E0"/>
<path d="M403.741 460.525C404.324 457.292 404.49 453.998 404.235 450.723C404.229 450.646 404.198 450.573 404.148 450.514C404.097 450.456 404.029 450.415 403.954 450.398C403.879 450.38 403.8 450.387 403.729 450.418C403.658 450.448 403.598 450.5 403.559 450.567L401.05 455.221C401.05 455.221 400.751 458.627 400.439 460.954C400.21 463.076 399.775 465.17 399.139 467.207C399.027 467.496 398.815 467.736 398.541 467.883C397.938 468.234 397.39 468.672 396.916 469.183C396.474 469.586 396.11 469.664 396.162 469.807C396.229 469.965 396.353 470.093 396.51 470.163C396.667 470.233 396.845 470.24 397.007 470.184C397.368 470.073 397.713 469.916 398.034 469.716C397.748 470.335 397.362 470.901 396.89 471.393C395.811 472.524 395.72 473.252 397.696 473.421C398.931 473.525 399.984 472.836 401.128 470.171C401.567 469.197 401.936 468.194 402.233 467.168C403 464.516 403.416 462.15 403.741 460.525Z" fill="#B16668"/>
<path d="M415.48 497.445C415.48 497.445 415.636 497.445 416.117 497.744C416.663 498.085 417.14 498.526 417.521 499.044C417.573 499.421 417.544 499.805 417.436 500.17C417.329 500.536 417.145 500.874 416.897 501.163C416.408 501.898 416.15 502.763 416.156 503.646C416.114 504.215 415.954 504.77 415.685 505.273C415.417 505.777 415.046 506.219 414.596 506.571C413.79 507.13 412.802 507.702 412.347 507.559C411.892 507.416 411.866 506.857 412.438 504.387C412.915 502.759 413.255 501.093 413.452 499.408L415.48 497.445Z" fill="#263238"/>
<path d="M415.129 496.977L415.662 497.692C415.746 497.801 415.805 497.928 415.834 498.063C415.863 498.198 415.862 498.337 415.831 498.472C415.751 498.954 415.502 499.392 415.129 499.707C414.916 499.866 414.653 499.945 414.388 499.928C414.205 499.914 414.027 499.862 413.866 499.775C413.704 499.687 413.563 499.567 413.452 499.421L413.036 498.862L415.129 496.977Z" fill="#B16668"/>
<path d="M402.194 466.154L408.2 472.16H408.031L406.653 483.028C407.743 483.766 408.671 484.716 409.383 485.823C410.527 487.591 415.077 496.977 415.077 496.977C415.077 496.977 414.544 499.07 412.984 498.862C412.984 498.862 410.566 495.846 407.966 492.544C405.119 488.917 401.973 484.991 401.804 484.276C400.933 480.376 402.194 466.154 402.194 466.154Z" fill="#455A64"/>
<path d="M409.5 485.823C410.644 487.591 415.194 496.977 415.194 496.977C415.194 496.977 414.661 499.07 413.101 498.862C413.101 498.862 410.683 495.846 408.083 492.544L409.5 485.823Z" fill="#37474F"/>
<path d="M409.019 503.672C408.346 503.013 407.59 502.445 406.77 501.982C406.372 501.956 405.972 501.956 405.574 501.982C405.215 501.982 404.858 501.943 404.508 501.865C403.79 501.605 403.095 501.287 402.428 500.916C402.145 500.743 401.838 500.612 401.518 500.526C400.959 500.422 400.517 500.409 400.322 501.033C400.261 501.222 400.239 501.421 400.257 501.618C400.25 502.196 400.38 502.768 400.638 503.286C400.896 503.803 401.273 504.252 401.739 504.595C402.168 504.881 402.74 505.102 403.195 505.362C403.888 505.649 404.553 505.997 405.184 506.402C406.12 507.208 406.991 508.001 408.304 507.481C408.565 507.407 408.804 507.268 408.997 507.077C409.19 506.886 409.332 506.649 409.409 506.389C409.591 505.7 408.941 504.4 409.019 503.672Z" fill="#263238"/>
<path d="M402.259 465.218L415.129 466.518C415.48 470.233 415.158 473.98 414.18 477.581C413.14 482.248 411.983 487.149 411.983 487.149C412.538 488.952 412.579 490.875 412.1 492.7C411.099 495.963 409.24 504.634 409.24 504.634C408.648 503.386 407.609 502.407 406.328 501.891C406.328 501.891 406.796 497.328 407.082 494.026C407.368 490.724 407.537 487.968 407.641 485.927C407.81 482.677 408.278 472.108 408.278 472.108H408.109C408.109 472.108 403.052 469.716 402.22 466.102L402.259 465.218Z" fill="#455A64"/>
<path d="M408.2 472.16C406.746 471.485 405.394 470.61 404.183 469.56L407.316 472.485L406.744 482.274L408.2 472.16Z" fill="#37474F"/>
<path d="M406.978 449.293C405.067 449.293 402.779 449.904 401.869 451.659C401.057 453.888 400.512 456.205 400.244 458.562C400.244 458.562 400.959 460.109 403.637 459.927L406.978 449.293Z" fill="#D88181"/>
<path d="M419.393 463.398C418.86 457.899 416.871 453.882 416.637 452.504L415.025 459.303C415.559 461.097 415.993 462.92 416.325 464.763C416.72 466.859 416.912 468.987 416.897 471.12C416.873 471.429 416.739 471.72 416.52 471.939C416.043 472.451 415.648 473.034 415.35 473.668C415.038 474.188 414.713 474.357 414.804 474.487C414.913 474.617 415.067 474.702 415.236 474.723C415.405 474.745 415.575 474.702 415.714 474.604C416.029 474.392 416.317 474.144 416.572 473.863C416.483 474.534 416.29 475.188 416 475.8C415.298 477.191 415.415 477.932 417.3 477.516C418.522 477.256 419.328 476.294 419.653 473.408C419.79 472.348 419.855 471.279 419.848 470.21C419.77 467.441 419.549 465.049 419.393 463.398Z" fill="#B16668"/>
<path d="M410.891 449.41C413.153 449.956 416.247 450.71 417.144 453.128C417.889 455.468 418.509 457.846 419.003 460.252C418.509 460.73 417.908 461.082 417.249 461.279C416.591 461.475 415.895 461.511 415.22 461.383L414.7 459.55L415.129 466.557C413.361 468.494 406.029 468.988 402.194 466.154C402.194 466.154 402.857 455.754 402.857 453.817C402.82 453.247 402.898 452.675 403.087 452.136C403.276 451.597 403.572 451.102 403.956 450.68C404.341 450.257 404.807 449.917 405.326 449.679C405.845 449.44 406.407 449.309 406.978 449.293L410.891 449.41Z" fill="#F28F8F"/>
<path d="M414.7 459.55L413.556 455.962L414.804 461.331L414.7 459.55Z" fill="#D88181"/>
<path d="M411.736 439.322C411.94 439.3 412.146 439.323 412.339 439.391C412.532 439.458 412.708 439.568 412.854 439.712C413.335 440.206 413.231 441.116 412.854 443.196L411.372 443.365L411.736 439.322Z" fill="#263238"/>
<path d="M403.104 438.724C402.782 438.725 402.463 438.658 402.168 438.529C401.713 438.269 401.596 438.789 401.843 439.231C402.008 439.555 402.254 439.83 402.557 440.03C402.86 440.231 403.21 440.35 403.572 440.375C403.572 440.375 403.988 439.218 403.988 439.218L403.104 438.724Z" fill="#263238"/>
<path d="M411.047 443.365C411.268 443.495 411.58 443.079 411.853 442.793C411.959 442.67 412.095 442.575 412.248 442.52C412.4 442.464 412.565 442.448 412.725 442.474C412.886 442.5 413.037 442.567 413.164 442.669C413.292 442.77 413.391 442.902 413.452 443.053C413.894 444.002 412.867 445.263 412.269 445.653C412.103 445.798 411.895 445.886 411.675 445.904C411.455 445.923 411.235 445.871 411.047 445.757L410.891 449.384C410.622 449.964 410.214 450.469 409.704 450.854C409.194 451.239 408.597 451.494 407.966 451.594C405.834 451.893 406.276 450.138 406.978 449.267V447.967C406.449 448.082 405.904 448.108 405.366 448.045C404.749 447.598 404.271 446.985 403.988 446.277C403.078 444.479 402.879 442.404 403.429 440.466C404.183 437.216 407.68 437.112 409.76 438.425C411.84 439.738 411.047 443.365 411.047 443.365Z" fill="#B16668"/>
<path d="M411.047 443.742C411.151 443.742 411.567 443.04 411.853 442.793C412.139 442.546 411.736 439.322 411.736 439.322C411.842 438.988 411.865 438.633 411.801 438.288C411.738 437.944 411.59 437.62 411.372 437.346C410.618 436.566 409.175 436.696 408.109 436.657C406.806 436.666 405.514 436.41 404.313 435.903C402.805 435.24 402.688 435.162 402.506 435.825C402.358 436.371 402.339 436.944 402.449 437.499C402.56 438.053 402.797 438.575 403.143 439.023L403.637 439.829C404.201 440.164 404.84 440.352 405.496 440.375C406.888 440.365 408.272 440.155 409.604 439.751C410.007 439.751 410.098 440.089 410.319 441.181C410.54 442.273 410.67 443.729 411.047 443.742Z" fill="#263238"/>
<path d="M411.736 439.569L413.036 438.854C412.995 438.764 412.935 438.684 412.862 438.618C412.788 438.552 412.702 438.501 412.608 438.47C412.514 438.438 412.415 438.426 412.317 438.434C412.218 438.442 412.122 438.47 412.035 438.516C411.859 438.619 411.73 438.787 411.675 438.983C411.619 439.179 411.641 439.389 411.736 439.569V439.569Z" fill="#263238"/>
<path d="M406.978 447.98C407.888 447.805 408.779 447.548 409.643 447.213C410.047 447.004 410.378 446.678 410.592 446.277C410.489 446.677 410.308 447.052 410.059 447.382C409.552 448.032 406.978 448.5 406.978 448.5V447.98Z" fill="#9A4A4D"/>
<path d="M406.9 443.3C406.9 443.407 406.942 443.509 407.018 443.585C407.094 443.66 407.196 443.703 407.303 443.703C407.399 443.686 407.486 443.635 407.549 443.56C407.611 443.486 407.646 443.391 407.646 443.293C407.646 443.196 407.611 443.101 407.549 443.026C407.486 442.952 407.399 442.901 407.303 442.884C407.249 442.884 407.196 442.895 407.146 442.916C407.096 442.937 407.051 442.968 407.013 443.007C406.976 443.045 406.946 443.091 406.927 443.142C406.907 443.192 406.898 443.246 406.9 443.3V443.3Z" fill="#263238"/>
<path d="M407.342 441.805L408.187 442.273C408.244 442.155 408.254 442.019 408.216 441.894C408.177 441.769 408.093 441.663 407.979 441.597C407.924 441.566 407.863 441.547 407.801 441.541C407.738 441.535 407.675 441.541 407.615 441.561C407.555 441.581 407.5 441.612 407.453 441.654C407.406 441.696 407.368 441.748 407.342 441.805V441.805Z" fill="#263238"/>
<path d="M407.16 445.9L406.25 446.238C406.294 446.36 406.384 446.459 406.501 446.515C406.618 446.571 406.752 446.579 406.874 446.537C406.994 446.488 407.091 446.394 407.144 446.276C407.197 446.157 407.203 446.023 407.16 445.9V445.9Z" fill="#9A4A4D"/>
<path d="M403.39 442.13L404.17 441.545C404.134 441.492 404.087 441.447 404.033 441.413C403.979 441.379 403.918 441.356 403.855 441.346C403.791 441.337 403.726 441.34 403.664 441.356C403.602 441.372 403.544 441.401 403.494 441.441C403.392 441.521 403.324 441.637 403.305 441.765C403.286 441.893 403.316 442.024 403.39 442.13V442.13Z" fill="#263238"/>
<path d="M403.637 443.183C403.637 443.286 403.678 443.386 403.751 443.459C403.824 443.532 403.924 443.573 404.027 443.573C404.13 443.573 404.23 443.532 404.303 443.459C404.376 443.386 404.417 443.286 404.417 443.183C404.419 443.13 404.41 443.077 404.391 443.028C404.373 442.978 404.344 442.933 404.308 442.894C404.272 442.856 404.229 442.824 404.18 442.803C404.132 442.781 404.08 442.769 404.027 442.767C403.974 442.769 403.922 442.781 403.874 442.803C403.825 442.824 403.782 442.856 403.746 442.894C403.71 442.933 403.681 442.978 403.663 443.028C403.644 443.077 403.635 443.13 403.637 443.183V443.183Z" fill="#263238"/>
<path d="M405.496 443.131L405.86 445.484L404.56 445.328L405.496 443.131Z" fill="#9A4A4D"/>
<path d="M219.427 438.867C217.786 438.867 216.212 438.215 215.051 437.055C213.891 435.894 213.239 434.32 213.239 432.679V432.419C213.239 431.04 213.787 429.717 214.762 428.742C215.737 427.767 217.06 427.219 218.439 427.219H220.324C221.703 427.219 223.026 427.767 224.001 428.742C224.976 429.717 225.524 431.04 225.524 432.419V432.679C225.524 434.304 224.885 435.865 223.744 437.023C222.603 438.181 221.052 438.843 219.427 438.867V438.867Z" fill="#263238"/>
<path d="M224.016 451.555C223.197 447.408 221.624 442.832 221.702 440.765L222.911 440.843C223.633 440.89 224.319 441.18 224.855 441.666C225.391 442.153 225.746 442.807 225.862 443.521C226.291 446.225 226.954 450.346 227.162 452.036C227.433 454.146 227.899 456.226 228.553 458.25C228.665 458.541 228.883 458.778 229.164 458.913C229.757 459.272 230.3 459.709 230.776 460.213C231.218 460.616 231.582 460.694 231.53 460.837C231.463 460.996 231.339 461.123 231.182 461.193C231.025 461.263 230.847 461.27 230.685 461.214C230.326 461.097 229.981 460.94 229.658 460.746C229.944 461.365 230.33 461.931 230.802 462.423C231.881 463.554 231.972 464.282 229.996 464.451C228.696 464.555 227.708 463.866 226.564 461.201C226.125 460.227 225.756 459.224 225.459 458.198C224.822 455.546 224.341 453.193 224.016 451.555Z" fill="#B16668"/>
<path d="M221.195 440.7C222.34 440.59 223.494 440.773 224.549 441.233C224.976 441.481 225.333 441.832 225.588 442.255C225.843 442.678 225.986 443.158 226.005 443.651C226.252 444.873 226.655 448.084 226.655 448.084C226.655 448.084 225.979 449.566 222.976 448.955L221.195 440.7Z" fill="#263238"/>
<path d="M212.628 488.488C212.628 488.488 212.472 488.488 211.991 488.787C211.445 489.128 210.968 489.569 210.587 490.087C210.536 490.464 210.565 490.848 210.673 491.213C210.78 491.578 210.964 491.917 211.211 492.206C211.7 492.941 211.958 493.806 211.952 494.689C211.994 495.258 212.154 495.813 212.423 496.316C212.691 496.82 213.062 497.262 213.512 497.614C214.318 498.173 215.319 498.745 215.761 498.602C216.203 498.459 216.242 497.9 215.67 495.43C215.193 493.802 214.853 492.136 214.656 490.451L212.628 488.488Z" fill="#263238"/>
<path d="M212.979 488.02L212.446 488.735C212.362 488.845 212.303 488.971 212.274 489.106C212.245 489.241 212.246 489.381 212.277 489.515C212.357 489.997 212.606 490.435 212.979 490.75C213.192 490.909 213.455 490.988 213.72 490.971C213.903 490.957 214.081 490.905 214.242 490.818C214.404 490.73 214.545 490.61 214.656 490.464L215.072 489.905L212.979 488.02Z" fill="#B16668"/>
<path d="M225.615 457.405L222.508 458.575L219.908 463.203H220.077L221.455 474.071C220.366 474.809 219.437 475.759 218.725 476.866C217.581 478.634 213.031 488.02 213.031 488.02C213.031 488.02 213.564 490.113 215.124 489.905C215.124 489.905 217.542 486.889 220.142 483.587C222.359 480.957 224.417 478.196 226.304 475.319C227.5 471.107 225.615 457.405 225.615 457.405Z" fill="#64A3AF"/>
<path d="M218.673 476.866C217.529 478.634 212.979 488.02 212.979 488.02C212.979 488.02 213.512 490.113 215.072 489.905C215.072 489.905 217.49 486.889 220.09 483.587L218.673 476.866Z" fill="#64A3AF"/>
<path opacity="0.2" d="M218.673 476.866C217.529 478.634 212.979 488.02 212.979 488.02C212.979 488.02 213.512 490.113 215.072 489.905C215.072 489.905 217.49 486.889 220.09 483.587L218.673 476.866Z" fill="black"/>
<path d="M219.05 494.754C219.798 494.189 220.62 493.729 221.494 493.389C221.894 493.398 222.294 493.433 222.69 493.493C223.044 493.532 223.402 493.532 223.756 493.493C224.505 493.331 225.24 493.11 225.953 492.83C226.258 492.692 226.582 492.604 226.915 492.57C227.474 492.57 227.916 492.57 228.033 493.22C228.066 493.418 228.066 493.62 228.033 493.818C227.971 494.394 227.772 494.947 227.453 495.431C227.135 495.915 226.705 496.316 226.2 496.6C225.745 496.821 225.147 496.977 224.666 497.159C223.939 497.352 223.229 497.609 222.547 497.926C221.52 498.589 220.545 499.226 219.323 498.576C219.073 498.471 218.854 498.304 218.688 498.09C218.522 497.876 218.413 497.622 218.374 497.354C218.205 496.6 219.037 495.443 219.05 494.754Z" fill="#263238"/>
<path d="M225.238 456.833L213.2 457.6C212.342 460.343 212.355 462.8 213.304 468.13C213.989 471.562 214.927 474.938 216.112 478.231C215.563 480.041 215.536 481.97 216.034 483.795C217.022 487.058 218.907 495.313 218.907 495.313C219.782 494.497 220.8 493.85 221.91 493.402C221.91 493.402 221.325 488.423 221.039 485.121C220.753 481.819 220.584 479.063 220.48 477.022C220.311 473.772 219.843 463.203 219.843 463.203H220.012C220.012 463.203 224.419 461.591 225.212 458.003L225.238 456.833Z" fill="#64A3AF"/>
<path opacity="0.2" d="M219.856 463.203C221.308 462.526 222.66 461.651 223.873 460.603L220.753 463.528L221.312 473.317L219.856 463.203Z" fill="black"/>
<path d="M209.066 454.428C209.513 450.764 210.182 447.13 211.068 443.547C211.163 443.017 211.421 442.53 211.805 442.153C212.19 441.775 212.681 441.527 213.213 441.441V441.441C216.632 443.287 216.606 445.744 213.694 448.695C213.694 448.695 212.472 453.479 212.095 455.806C211.699 457.901 211.507 460.031 211.523 462.163C211.547 462.472 211.681 462.763 211.9 462.982C212.377 463.494 212.772 464.078 213.07 464.711C213.382 465.231 213.707 465.4 213.616 465.53C213.507 465.66 213.353 465.745 213.184 465.767C213.015 465.788 212.845 465.746 212.706 465.647C212.391 465.436 212.103 465.187 211.848 464.906C211.95 465.575 212.156 466.224 212.459 466.83C213.161 468.221 213.044 468.949 211.159 468.546C209.937 468.286 209.131 467.324 208.806 464.438C208.669 463.378 208.604 462.309 208.611 461.24C208.689 458.484 208.91 456.092 209.066 454.428Z" fill="#B16668"/>
<path d="M216.905 440.83L213.213 441.441C216.632 443.846 213.694 448.695 213.694 448.695L215.514 453.752C214.611 454.967 213.84 456.274 213.213 457.652C214.331 458.627 221.013 460.928 225.615 457.457C225.615 457.457 225.355 455.624 224.809 452.855C225.745 448.357 226.005 446.771 225.732 445.718C224.965 442.754 223.21 440.869 221.208 440.752L216.905 440.83Z" fill="#455A64"/>
<path d="M223.6 429.676C224.25 430.066 225.056 431.704 224.978 435.149C224.913 438.074 223.964 438.802 223.483 439.049C222.73 439.201 221.952 439.178 221.208 438.984V440.7C221.208 440.7 222.43 442.13 222.352 442.936C222.274 443.742 220.584 443.937 219.427 443.144C218.589 442.5 217.868 441.718 217.295 440.83V436.8C217.295 436.8 216.775 437.307 215.878 436.54C215.521 436.284 215.279 435.898 215.204 435.465C215.128 435.033 215.226 434.588 215.475 434.226C215.625 434.094 215.804 433.998 215.997 433.945C216.19 433.893 216.393 433.887 216.589 433.926C216.785 433.965 216.97 434.048 217.128 434.17C217.287 434.292 217.415 434.449 217.503 434.629C218.673 434.581 219.813 434.242 220.818 433.641C221.562 433.247 222.202 432.682 222.685 431.993C223.169 431.304 223.482 430.51 223.6 429.676V429.676Z" fill="#B16668"/>
<path d="M221.702 434.421C221.702 434.492 221.681 434.561 221.642 434.62C221.603 434.679 221.548 434.726 221.483 434.754C221.418 434.782 221.346 434.791 221.276 434.779C221.206 434.767 221.141 434.735 221.09 434.686C221.038 434.638 221.001 434.575 220.984 434.507C220.968 434.438 220.971 434.366 220.995 434.299C221.018 434.232 221.061 434.173 221.117 434.131C221.174 434.088 221.241 434.062 221.312 434.057C221.362 434.055 221.411 434.063 221.457 434.081C221.504 434.098 221.546 434.124 221.582 434.158C221.619 434.192 221.648 434.233 221.668 434.278C221.689 434.323 221.7 434.371 221.702 434.421Z" fill="#263238"/>
<path d="M221.806 436.904L222.651 437.164C222.636 437.222 222.61 437.276 222.573 437.324C222.536 437.371 222.491 437.411 222.438 437.44C222.386 437.469 222.328 437.487 222.269 437.494C222.209 437.5 222.149 437.494 222.092 437.476C221.979 437.438 221.885 437.356 221.832 437.249C221.778 437.142 221.769 437.018 221.806 436.904V436.904Z" fill="#9A4A4D"/>
<path d="M224.718 433.29L223.977 432.783C224.006 432.731 224.046 432.687 224.093 432.652C224.141 432.617 224.195 432.592 224.253 432.58C224.311 432.568 224.371 432.568 224.428 432.58C224.486 432.593 224.541 432.618 224.588 432.653C224.688 432.722 224.757 432.826 224.782 432.945C224.806 433.064 224.783 433.188 224.718 433.29Z" fill="#263238"/>
<path d="M224.549 434.2C224.559 434.254 224.557 434.311 224.543 434.364C224.53 434.418 224.504 434.468 224.469 434.51C224.433 434.553 224.389 434.587 224.339 434.611C224.289 434.635 224.234 434.647 224.179 434.647C224.123 434.647 224.068 434.635 224.018 434.611C223.968 434.587 223.924 434.553 223.888 434.51C223.853 434.468 223.827 434.418 223.814 434.364C223.8 434.311 223.798 434.254 223.808 434.2C223.804 434.151 223.811 434.102 223.827 434.056C223.843 434.009 223.868 433.967 223.901 433.93C223.933 433.894 223.973 433.864 224.017 433.844C224.062 433.823 224.11 433.812 224.159 433.81C224.211 433.808 224.262 433.817 224.31 433.836C224.359 433.855 224.402 433.884 224.439 433.92C224.475 433.957 224.504 434.001 224.523 434.049C224.542 434.097 224.551 434.148 224.549 434.2V434.2Z" fill="#263238"/>
<path d="M222.807 433.94L222.872 436.15L224.029 435.799L222.807 433.94Z" fill="#9A4A4D"/>
<path d="M221.195 438.945C220.246 438.815 218.322 438.256 218.023 437.502C218.138 437.891 218.375 438.233 218.699 438.477C219.48 438.938 220.32 439.292 221.195 439.53V438.945Z" fill="#9A4A4D"/>
<path d="M214.539 451.061L217.113 454.545L215.514 453.752L214.539 451.061Z" fill="#263238"/>
<path d="M215.371 426.582C215.859 426.859 216.25 427.278 216.493 427.784C216.735 428.29 216.816 428.858 216.725 429.412C216.635 429.965 216.377 430.478 215.986 430.88C215.595 431.282 215.09 431.555 214.539 431.662C213.988 431.768 213.418 431.703 212.905 431.475C212.393 431.248 211.962 430.869 211.672 430.389C211.381 429.909 211.245 429.351 211.281 428.792C211.317 428.232 211.524 427.697 211.874 427.258C212.261 426.721 212.839 426.353 213.489 426.227C214.138 426.102 214.812 426.229 215.371 426.582V426.582Z" fill="#263238"/>
<path d="M213.2 441.441C212.667 441.571 211.302 441.441 210.6 444.145C209.898 446.849 209.456 449.449 209.456 449.449C209.929 449.991 210.55 450.384 211.242 450.58C211.934 450.776 212.669 450.767 213.356 450.554C213.356 450.554 214.24 447.85 214.812 446.069C215.384 444.288 215.072 442.091 213.2 441.441Z" fill="#263238"/>
<path d="M123.37 397.176C122.826 394.149 122.669 391.065 122.902 387.998C122.905 387.924 122.933 387.853 122.98 387.795C123.028 387.738 123.093 387.699 123.166 387.682C123.238 387.666 123.314 387.674 123.382 387.705C123.449 387.737 123.504 387.789 123.539 387.855L125.892 392.21C125.892 392.21 126.165 395.408 126.464 397.592C126.67 399.578 127.075 401.537 127.673 403.442C127.777 403.714 127.976 403.94 128.232 404.079C128.799 404.411 129.311 404.828 129.753 405.314C130.169 405.691 130.507 405.769 130.468 405.899C130.402 406.045 130.285 406.161 130.139 406.226C129.992 406.291 129.827 406.299 129.675 406.25C129.335 406.145 129.007 406.001 128.7 405.821C128.975 406.395 129.339 406.921 129.779 407.381C130.793 408.447 130.884 409.136 129.025 409.292C127.855 409.396 126.88 408.746 125.801 406.25C125.394 405.333 125.046 404.391 124.761 403.429C124.124 400.92 123.682 398.71 123.37 397.176Z" fill="#FFA8A7"/>
<path d="M120.341 386.659C122.122 386.659 124.241 387.231 125.125 388.869C125.885 390.969 126.395 393.15 126.646 395.369C126.646 395.369 125.97 396.825 123.474 396.669L120.341 386.659Z" fill="#64A3AF"/>
<path d="M120.341 386.659C122.122 386.659 124.241 387.231 125.125 388.869C125.885 390.969 126.395 393.15 126.646 395.369C126.646 395.369 125.97 396.825 123.474 396.669L120.341 386.659Z" fill="#FFC366" fill-opacity="0.8"/>
<path d="M106.106 430.547C105.664 430.326 105.378 430.885 104.975 431.34C104.625 431.667 104.358 432.073 104.195 432.523C104.204 432.878 104.29 433.227 104.447 433.546C104.605 433.865 104.829 434.145 105.105 434.369C105.43 434.57 105.712 434.833 105.935 435.143C106.158 435.453 106.318 435.804 106.405 436.176C106.452 436.644 106.633 437.09 106.925 437.458C107.218 437.827 107.61 438.104 108.056 438.256C108.567 438.47 109.115 438.58 109.668 438.58C110.222 438.58 110.769 438.47 111.28 438.256C111.904 437.853 111.28 437.411 110.461 436.163C109.33 434.538 108.446 433.368 108.446 431.847L106.106 430.547Z" fill="#263238"/>
<path d="M107.016 429.221L106.08 430.586C105.98 430.726 105.909 430.884 105.871 431.051C105.833 431.219 105.828 431.392 105.857 431.561C105.886 431.73 105.948 431.892 106.04 432.037C106.132 432.182 106.251 432.308 106.392 432.406V432.406C106.675 432.575 107.009 432.639 107.335 432.587C107.66 432.535 107.957 432.369 108.173 432.12L109.642 430.534L107.016 429.221Z" fill="#FFA8A7"/>
<path d="M124.202 402.454C124.202 404.209 123.76 411.268 122.551 414.388C121.342 417.508 120.653 419.458 120.276 420.108C119.899 420.758 108.953 431.418 108.953 431.418C108.432 431.374 107.939 431.161 107.549 430.811C107.16 430.462 106.895 429.995 106.795 429.481C106.795 429.481 111.28 421.85 112.255 420.29C113.535 418.773 115.018 417.439 116.662 416.325L116.35 402.662L124.202 402.454Z" fill="#37474F"/>
<path d="M121.797 439.678L124.105 439.156L123.341 435.783L121.033 436.306L121.797 439.678Z" fill="#FFA8A7"/>
<path d="M124.202 402.454H113.1C112.862 404.078 112.723 405.714 112.684 407.355C112.593 412.165 117.078 420.901 117.078 420.901C116.856 422.845 116.952 424.812 117.364 426.725C118.398 430.228 119.617 433.674 121.017 437.047C121.463 437.113 121.918 437.083 122.351 436.957C122.784 436.831 123.185 436.614 123.526 436.319C123.526 436.319 122.044 423.15 121.641 419.77C121.212 416.117 120.107 409.448 120.107 409.448C120.839 408.716 121.505 407.92 122.096 407.069C123.123 405.701 123.842 404.126 124.202 402.454" fill="#37474F"/>
<path d="M108.693 399.867C109.2 394.732 111.059 390.962 111.293 389.662L112.814 396.032C112.284 397.718 111.85 399.432 111.514 401.167C111.139 403.129 110.956 405.123 110.968 407.121C110.993 407.408 111.123 407.676 111.332 407.875C111.787 408.355 112.165 408.903 112.45 409.5C112.749 409.981 113.048 410.15 112.97 410.254C112.868 410.378 112.723 410.459 112.564 410.481C112.405 410.502 112.243 410.463 112.112 410.371C111.818 410.168 111.547 409.933 111.306 409.669C111.398 410.298 111.591 410.908 111.878 411.476C112.541 412.776 112.437 413.478 110.578 413.088C109.434 412.841 108.68 411.944 108.381 409.188C108.249 408.193 108.188 407.189 108.199 406.185C108.342 403.676 108.55 401.427 108.693 399.867Z" fill="#FFA8A7"/>
<path d="M116.675 386.763C114.543 387.283 111.644 387.946 110.799 390.247C110.107 392.444 109.525 394.674 109.057 396.929C109.523 397.374 110.087 397.703 110.704 397.888C111.32 398.073 111.972 398.11 112.606 397.995L113.1 396.266V402.454C114.764 404.274 120.562 405.119 124.202 402.454V390.897C124.237 390.36 124.163 389.821 123.984 389.313C123.805 388.805 123.524 388.339 123.16 387.943C122.795 387.546 122.354 387.228 121.863 387.008C121.371 386.787 120.84 386.668 120.302 386.659L116.675 386.763Z" fill="#FFC366"/>
<path opacity="0.2" d="M113.1 396.266L114.166 392.912L113.1 397.774V396.266Z" fill="black"/>
<path d="M124.592 378.989C124.6 379.649 124.411 380.296 124.05 380.848C123.689 381.401 123.172 381.833 122.565 382.091C121.957 382.349 121.287 382.421 120.639 382.297C119.991 382.173 119.394 381.859 118.925 381.395C118.456 380.931 118.135 380.338 118.003 379.692C117.872 379.045 117.935 378.374 118.186 377.764C118.436 377.153 118.863 376.631 119.411 376.264C119.959 375.896 120.604 375.7 121.264 375.7C122.14 375.7 122.981 376.045 123.604 376.661C124.227 377.277 124.582 378.113 124.592 378.989V378.989Z" fill="#263238"/>
<path d="M115.869 377.312C115.68 377.293 115.488 377.316 115.309 377.378C115.129 377.441 114.965 377.543 114.829 377.676C114.374 378.144 114.478 378.976 114.829 380.939L116.22 381.108L115.869 377.312Z" fill="#263238"/>
<path d="M116.519 381.108C116.324 381.225 116.025 380.835 115.765 380.562C115.664 380.449 115.537 380.364 115.394 380.313C115.252 380.263 115.099 380.25 114.95 380.274C114.8 380.299 114.66 380.361 114.541 380.454C114.422 380.548 114.329 380.67 114.27 380.809C113.854 381.693 114.803 382.876 115.375 383.266C115.529 383.404 115.724 383.489 115.93 383.508C116.136 383.526 116.342 383.478 116.519 383.37L116.675 386.763C116.924 387.308 117.303 387.782 117.779 388.145C118.256 388.508 118.814 388.748 119.405 388.843C121.407 389.116 120.991 387.465 120.341 386.659V385.424C120.841 385.531 121.354 385.558 121.862 385.502C122.44 385.078 122.89 384.502 123.162 383.838C124.012 382.152 124.202 380.21 123.695 378.391C122.98 375.349 119.704 375.258 117.754 376.48C115.804 377.702 116.519 381.108 116.519 381.108Z" fill="#FFA8A7"/>
<path d="M116.519 381.446C116.428 381.446 116.025 380.796 115.765 380.562C115.505 380.328 115.869 377.312 115.869 377.312C115.773 376.999 115.755 376.667 115.816 376.346C115.877 376.024 116.016 375.722 116.22 375.466C116.922 374.725 118.287 374.855 119.275 374.816C120.766 374.74 122.261 374.775 123.747 374.92C123.998 374.914 124.241 375.007 124.423 375.18C124.484 375.28 124.522 375.393 124.536 375.51C124.549 375.626 124.537 375.744 124.501 375.856C124.363 376.509 124.017 377.1 123.516 377.54C123.015 377.981 122.384 378.247 121.719 378.3C120.397 378.296 119.084 378.098 117.819 377.715C117.442 377.715 117.364 378.027 117.156 379.015C116.948 380.003 116.87 381.446 116.519 381.446Z" fill="#263238"/>
<path d="M115.882 377.533L114.582 376.87C114.622 376.787 114.678 376.713 114.747 376.653C114.816 376.592 114.897 376.546 114.984 376.517C115.071 376.488 115.164 376.476 115.255 376.483C115.347 376.49 115.436 376.516 115.518 376.558C115.695 376.64 115.832 376.788 115.9 376.971C115.968 377.153 115.962 377.355 115.882 377.533Z" fill="#263238"/>
<path d="M120.328 385.424C119.481 385.261 118.65 385.021 117.845 384.709C117.462 384.514 117.148 384.205 116.948 383.825C117.044 384.203 117.216 384.557 117.455 384.865C117.923 385.476 120.328 385.918 120.328 385.918V385.424Z" fill="#F28F8F"/>
<path d="M120.393 381.03C120.403 381.084 120.401 381.14 120.387 381.194C120.374 381.248 120.348 381.298 120.313 381.34C120.277 381.383 120.233 381.417 120.183 381.441C120.133 381.464 120.078 381.477 120.023 381.477C119.967 381.477 119.912 381.464 119.862 381.441C119.812 381.417 119.768 381.383 119.732 381.34C119.697 381.298 119.671 381.248 119.658 381.194C119.644 381.14 119.642 381.084 119.652 381.03C119.642 380.976 119.644 380.919 119.658 380.866C119.671 380.812 119.697 380.762 119.732 380.72C119.768 380.677 119.812 380.643 119.862 380.619C119.912 380.595 119.967 380.583 120.023 380.583C120.078 380.583 120.133 380.595 120.183 380.619C120.233 380.643 120.277 380.677 120.313 380.72C120.348 380.762 120.374 380.812 120.387 380.866C120.401 380.919 120.403 380.976 120.393 381.03Z" fill="#263238"/>
<path d="M120.003 379.6L119.21 380.042C119.153 379.933 119.14 379.806 119.174 379.687C119.208 379.569 119.286 379.468 119.392 379.405C119.445 379.376 119.503 379.358 119.562 379.352C119.622 379.347 119.682 379.353 119.739 379.371C119.797 379.39 119.849 379.419 119.895 379.459C119.94 379.498 119.977 379.546 120.003 379.6Z" fill="#263238"/>
<path d="M120.172 383.5L121.017 383.812C120.998 383.87 120.968 383.923 120.928 383.969C120.888 384.014 120.839 384.052 120.785 384.078C120.73 384.105 120.671 384.12 120.61 384.124C120.55 384.127 120.489 384.118 120.432 384.098C120.375 384.076 120.323 384.044 120.279 384.002C120.235 383.96 120.2 383.91 120.176 383.854C120.152 383.798 120.139 383.738 120.138 383.677C120.137 383.617 120.149 383.556 120.172 383.5V383.5Z" fill="#F28F8F"/>
<path d="M123.695 379.951L122.967 379.392C123.001 379.342 123.044 379.299 123.095 379.266C123.146 379.233 123.203 379.212 123.263 379.202C123.323 379.192 123.384 379.195 123.442 379.21C123.501 379.224 123.556 379.251 123.604 379.288C123.697 379.369 123.758 379.48 123.774 379.602C123.791 379.724 123.763 379.848 123.695 379.951V379.951Z" fill="#263238"/>
<path d="M123.5 380.9C123.51 380.954 123.508 381.01 123.494 381.064C123.481 381.118 123.455 381.168 123.42 381.21C123.384 381.253 123.34 381.287 123.29 381.311C123.24 381.334 123.185 381.347 123.129 381.347C123.074 381.347 123.019 381.334 122.969 381.311C122.919 381.287 122.875 381.253 122.839 381.21C122.804 381.168 122.778 381.118 122.765 381.064C122.751 381.01 122.749 380.954 122.759 380.9C122.749 380.846 122.751 380.789 122.765 380.736C122.778 380.682 122.804 380.632 122.839 380.59C122.875 380.547 122.919 380.513 122.969 380.489C123.019 380.465 123.074 380.453 123.129 380.453C123.185 380.453 123.24 380.465 123.29 380.489C123.34 380.513 123.384 380.547 123.42 380.59C123.455 380.632 123.481 380.682 123.494 380.736C123.508 380.789 123.51 380.846 123.5 380.9Z" fill="#263238"/>
<path d="M121.732 380.887L121.381 383.084L122.603 382.941L121.732 380.887Z" fill="#F28F8F"/>
<path d="M123.838 438.022L123.76 437.684C124.007 437.684 125.06 439.452 126.074 440.206C127.088 440.96 128.18 441.506 128.674 441.883C129.168 442.26 128.375 443.391 126.711 443.482C125.74 443.539 124.774 443.314 123.929 442.832C123.461 442.403 123.123 441.675 122.759 441.35C122.395 441.025 121.654 440.765 121.459 440.362C121.301 439.948 121.252 439.5 121.316 439.062C121.316 438.633 121.316 438.152 121.485 438.165V438.412C121.92 438.632 122.402 438.739 122.889 438.724C123.305 438.763 124.033 438.672 123.838 438.022Z" fill="#263238"/>
<path d="M121.355 417.534C121.355 417.534 120.367 410.54 120.055 409.448C120.846 409.022 121.58 408.498 122.239 407.888C121.782 408.544 121.282 409.169 120.744 409.76L121.355 417.534Z" fill="#263238"/>
<path d="M115.414 417.3C115.892 418.534 116.448 419.737 117.078 420.901C117.078 420.901 116.948 423.15 116.974 423.605L116.35 424.138C116.335 423.122 116.426 422.106 116.623 421.109C116.084 419.887 115.679 418.61 115.414 417.3V417.3Z" fill="#263238"/>
</svg>
