<svg width="450" height="450" viewBox="0 0 450 450" fill="none" xmlns="http://www.w3.org/2000/svg">
<path d="M450 344.16H0V344.385H450V344.16Z" fill="#EBEBEB"/>
<path d="M404.91 352.728H323.1V352.953H404.91V352.728Z" fill="#EBEBEB"/>
<path d="M298.098 350.289H275.697V350.514H298.098V350.289Z" fill="#EBEBEB"/>
<path d="M349.299 361.089H314.568V361.314H349.299V361.089Z" fill="#EBEBEB"/>
<path d="M67.59 359.577H47.214V359.802H67.59V359.577Z" fill="#EBEBEB"/>
<path d="M99.801 359.577H75.6V359.802H99.801V359.577Z" fill="#EBEBEB"/>
<path d="M202.635 355.779H160.479V356.004H202.635V355.779Z" fill="#EBEBEB"/>
<path d="M213.3 304.02H39.519C38.1577 304.018 36.8528 303.475 35.891 302.512C34.9292 301.548 34.389 300.242 34.389 298.881V54.594C34.4009 53.2404 34.9463 51.9462 35.9068 50.9924C36.8674 50.0386 38.1654 49.5023 39.519 49.5H213.3C214.663 49.5 215.97 50.0414 216.934 51.0052C217.898 51.9689 218.439 53.2761 218.439 54.639V298.881C218.439 300.244 217.898 301.551 216.934 302.515C215.97 303.479 214.663 304.02 213.3 304.02V304.02ZM39.519 49.68C38.2173 49.6824 36.9697 50.2012 36.0501 51.1225C35.1305 52.0437 34.614 53.2923 34.614 54.594V298.881C34.614 300.183 35.1305 301.431 36.0501 302.353C36.9697 303.274 38.2173 303.793 39.519 303.795H213.3C214.603 303.793 215.851 303.274 216.772 302.353C217.693 301.432 218.212 300.184 218.214 298.881V54.594C218.212 53.2915 217.693 52.0429 216.772 51.1219C215.851 50.2009 214.603 49.6824 213.3 49.68H39.519Z" fill="#EBEBEB"/>
<path d="M407.979 304.02H234.189C232.827 304.018 231.521 303.475 230.558 302.512C229.595 301.549 229.052 300.243 229.05 298.881V54.594C229.064 53.2396 229.612 51.9454 230.574 50.9918C231.536 50.0383 232.835 49.5023 234.189 49.5H407.979C409.331 49.5047 410.627 50.042 411.585 50.9956C412.544 51.9491 413.088 53.242 413.1 54.594V298.881C413.1 300.241 412.561 301.545 411.601 302.508C410.641 303.472 409.339 304.015 407.979 304.02V304.02ZM234.189 49.68C232.886 49.6824 231.638 50.2009 230.717 51.1219C229.796 52.0429 229.277 53.2915 229.275 54.594V298.881C229.277 300.184 229.796 301.432 230.717 302.353C231.638 303.274 232.886 303.793 234.189 303.795H407.979C409.282 303.793 410.53 303.274 411.451 302.353C412.372 301.432 412.891 300.184 412.893 298.881V54.594C412.891 53.2915 412.372 52.0429 411.451 51.1219C410.53 50.2009 409.282 49.6824 407.979 49.68H234.189Z" fill="#EBEBEB"/>
<path d="M155.187 143.352C179.885 118.654 179.885 78.6108 155.187 53.9128C130.49 29.2149 90.4463 29.2149 65.7484 53.9128C41.0504 78.6108 41.0504 118.654 65.7484 143.352C90.4463 168.05 130.49 168.05 155.187 143.352Z" fill="#B8DCE6"/>
<path d="M62.676 89.1C63.36 90.333 65.0699 90.549 66.4919 89.586C67.9139 88.623 68.508 86.886 67.824 85.608C67.14 84.33 65.43 84.159 64.008 85.122C62.586 86.085 61.992 87.849 62.676 89.1Z" fill="white"/>
<path d="M91.134 74.853C91.2188 75.486 91.4963 76.0776 91.9288 76.5476C92.3612 77.0177 92.9277 77.3433 93.5515 77.4805C94.1753 77.6177 94.8262 77.5597 95.4159 77.3145C96.0057 77.0693 96.5057 76.6487 96.8484 76.1097C97.191 75.5706 97.3596 74.9393 97.3313 74.3012C97.303 73.6632 97.0792 73.0492 96.6902 72.5427C96.3012 72.0361 95.7659 71.6614 95.1567 71.4693C94.5476 71.2772 93.8942 71.2771 93.285 71.469C92.5558 71.6409 91.9227 72.091 91.5208 72.7233C91.1189 73.3555 90.9801 74.1198 91.134 74.853V74.853Z" fill="white"/>
<path d="M96.696 84.483C97.461 86.022 100.8 85.644 104.148 83.655C107.496 81.666 109.548 78.813 108.819 77.283C108.09 75.753 104.715 76.122 101.367 78.111C98.019 80.1 95.931 82.953 96.696 84.483Z" fill="#E9FAFF"/>
<path d="M57.042 100.629C57.591 102.195 60.867 102.429 64.359 101.151C67.851 99.873 70.245 97.551 69.696 95.994C69.147 94.437 65.88 94.194 62.388 95.472C58.896 96.75 56.502 99.063 57.042 100.629Z" fill="#E9FAFF"/>
<path d="M102.195 89.505C96.39 90.531 81.603 94.005 68.247 103.968C67.84 104.347 67.586 104.863 67.533 105.416C67.4799 105.97 67.6314 106.524 67.959 106.974C77.112 121.158 101.466 110.7 104.4 92.16C104.67 90.693 103.5 89.28 102.195 89.505Z" fill="#E2F0F3"/>
<path d="M81.369 104.4C82.3368 104.203 83.327 104.14 84.312 104.211C84.9796 103.169 85.8563 102.278 86.8866 101.593C87.9169 100.908 89.0782 100.445 90.297 100.233C91.9839 99.8698 93.7342 99.9261 95.3944 100.397C97.0545 100.868 98.5738 101.738 99.819 102.933C97.8381 105.616 95.3789 107.911 92.565 109.701C90.472 111.057 88.1876 112.091 85.788 112.77C82.0864 113.945 78.0985 113.85 74.457 112.5C74.043 108.783 76.896 105.3 81.369 104.4Z" fill="white"/>
<path d="M356.4 65.25C357.064 66.8679 357.955 68.3831 359.046 69.75C359.205 69.9353 359.416 70.0689 359.651 70.1334C359.887 70.198 360.136 70.1905 360.368 70.1122C360.599 70.0338 360.802 69.888 360.949 69.6935C361.097 69.4991 361.183 69.2649 361.197 69.021C361.341 66.897 362.169 65.34 363.609 64.89C364.129 64.7317 364.682 64.7131 365.211 64.836C365.423 64.8905 365.646 64.8874 365.857 64.8271C366.068 64.7667 366.259 64.6513 366.41 64.4927C366.561 64.3341 366.667 64.138 366.718 63.9247C366.768 63.7114 366.76 63.4885 366.696 63.279C366.561 62.901 366.426 62.523 366.264 62.145C364.167 57.042 360.261 53.586 357.534 54.441C354.807 55.296 354.312 60.138 356.4 65.25Z" fill="#EBEBEB"/>
<path d="M358.912 129.322C379.052 109.183 379.052 76.5306 358.912 56.3912C338.773 36.2519 306.121 36.2519 285.981 56.3912C265.842 76.5306 265.842 109.183 285.981 129.322C306.121 149.462 338.773 149.462 358.912 129.322Z" fill="#FFDFAF"/>
<path d="M130.214 306.305C147.31 289.21 147.31 261.492 130.214 244.397C113.119 227.301 85.4015 227.301 68.3059 244.397C51.2103 261.492 51.2103 289.21 68.3059 306.305C85.4015 323.401 113.119 323.401 130.214 306.305Z" fill="#FFD6D0"/>
<path d="M76.842 305.154C78.2751 305.747 79.6245 306.524 80.856 307.467C81.0189 307.594 81.1365 307.771 81.1914 307.97C81.2464 308.169 81.2357 308.381 81.161 308.574C81.0863 308.766 80.9516 308.93 80.7767 309.04C80.6019 309.151 80.3962 309.202 80.19 309.186C78.3 309.186 76.896 309.807 76.491 310.986C76.3464 311.4 76.3276 311.848 76.437 312.273C76.473 312.454 76.4589 312.642 76.3961 312.816C76.3334 312.99 76.2244 313.143 76.081 313.26C75.9375 313.377 75.765 313.452 75.5819 313.478C75.3989 313.504 75.2122 313.479 75.042 313.407C74.7 313.29 74.367 313.164 74.025 313.02C69.525 311.112 66.429 307.818 67.212 305.649C67.995 303.48 72.297 303.3 76.842 305.154Z" fill="#FFEEEE"/>
<path d="M91.8001 275.751C93.1865 276.265 94.4235 277.116 95.4001 278.226C96.0841 279 95.7331 281.286 94.8601 281.826C93.9646 282.376 93.2081 283.125 92.6493 284.014C92.0905 284.904 91.7444 285.911 91.6381 286.956C91.5256 287.777 91.5256 288.61 91.6381 289.431C91.8091 290.817 91.1611 292.41 90.4321 292.248C90.1279 292.18 89.8275 292.096 89.5321 291.996C85.4731 290.556 82.6921 285.768 83.3221 281.295C83.9521 276.822 87.7411 274.32 91.8001 275.751Z" fill="#FFEEEE"/>
<path d="M378.594 306.433C410.781 274.245 410.781 222.058 378.594 189.871C346.406 157.683 294.219 157.683 262.031 189.871C229.844 222.058 229.844 274.245 262.031 306.433C294.219 338.621 346.406 338.621 378.594 306.433Z" fill="#F4EFFF"/>
<path d="M304.533 278.514C302.031 281.16 304.443 285.003 309.933 287.091C315.423 289.179 321.894 288.711 324.396 286.056C326.898 283.401 324.477 279.567 318.996 277.488C313.515 275.409 307.035 275.859 304.533 278.514Z" fill="white"/>
<path d="M364.284 284.751C364.536 287.604 369.099 288.819 374.472 287.451C379.845 286.083 383.994 282.672 383.742 279.819C383.49 276.966 378.927 275.742 373.563 277.119C368.199 278.496 364.032 281.889 364.284 284.751Z" fill="white"/>
<path d="M309.6 304.677C319.248 306.261 338.616 308.97 354.987 308.331C355.428 308.312 355.864 308.435 356.23 308.682C356.596 308.929 356.873 309.287 357.02 309.703C357.167 310.119 357.177 310.572 357.047 310.994C356.918 311.416 356.656 311.786 356.301 312.048C345.951 319.815 325.224 324.432 307.854 308.205C307.535 307.902 307.322 307.505 307.246 307.072C307.169 306.638 307.233 306.192 307.428 305.798C307.623 305.404 307.939 305.082 308.33 304.881C308.721 304.679 309.166 304.608 309.6 304.677Z" fill="#CAD7FF"/>
<path d="M225 384.804C321.374 384.804 399.501 380.243 399.501 374.616C399.501 368.989 321.374 364.428 225 364.428C128.626 364.428 50.499 368.989 50.499 374.616C50.499 380.243 128.626 384.804 225 384.804Z" fill="#F5F5F5"/>
<path d="M244.629 366.561L237.888 363.78L243.315 347.463L250.056 350.244L244.629 366.561Z" fill="#FF8B7B"/>
<path d="M309.996 367.11H302.643L301.995 350.091H309.348L309.996 367.11Z" fill="#FF8B7B"/>
<path d="M301.707 366.3H310.707C310.85 366.302 310.988 366.353 311.098 366.444C311.208 366.536 311.283 366.663 311.31 366.804L312.453 373.338C312.478 373.501 312.467 373.667 312.421 373.825C312.375 373.983 312.296 374.129 312.188 374.253C312.08 374.377 311.946 374.476 311.796 374.544C311.646 374.611 311.483 374.645 311.319 374.643C308.439 374.598 306.342 374.427 302.715 374.427C300.474 374.427 295.866 374.661 292.815 374.661C289.764 374.661 289.467 371.61 290.745 371.331C296.46 370.089 298.674 368.388 300.564 366.759C300.882 366.48 301.285 366.318 301.707 366.3Z" fill="#263238"/>
<path d="M237.474 362.385L244.899 365.436C245.037 365.495 245.151 365.597 245.226 365.727C245.3 365.857 245.331 366.007 245.313 366.156L244.521 372.897C244.508 373.056 244.456 373.21 244.372 373.345C244.287 373.48 244.171 373.593 244.033 373.674C243.896 373.755 243.741 373.802 243.581 373.811C243.422 373.82 243.263 373.79 243.117 373.725C240.462 372.582 236.646 370.827 233.28 369.441C229.338 367.83 227.637 367.38 223.029 365.481C220.239 364.329 220.455 361.125 221.715 361.341C227.448 362.34 230.058 363.267 235.656 362.241C236.264 362.117 236.894 362.167 237.474 362.385V362.385Z" fill="#263238"/>
<path d="M282.969 150.3C282.015 151.2 281.169 151.866 280.269 152.586C279.369 153.306 278.469 153.999 277.569 154.692C275.769 156.078 273.852 157.347 271.917 158.589C269.982 159.831 267.966 160.965 265.923 162.054C263.827 163.133 261.676 164.104 259.479 164.961C258.372 165.402 257.211 165.762 256.059 166.131C255.528 166.32 254.772 166.491 254.106 166.653C253.391 166.808 252.666 166.916 251.937 166.977C248.814 167.316 245.663 166.658 242.937 165.096C241.646 164.341 240.48 163.391 239.481 162.279C238.558 161.259 237.76 160.132 237.105 158.922C236.488 157.793 235.979 156.609 235.584 155.385C235.386 154.782 235.233 154.179 235.089 153.585C234.945 152.991 234.855 152.415 234.738 151.65L240.12 150.3L240.786 151.452C241.029 151.857 241.29 152.262 241.551 152.649C242.053 153.399 242.613 154.109 243.225 154.773C243.769 155.37 244.372 155.909 245.025 156.384C245.595 156.768 246.216 157.071 246.87 157.284C248.074 157.641 249.356 157.641 250.56 157.284C250.893 157.212 251.244 157.077 251.595 156.978C251.946 156.879 252.261 156.735 252.747 156.528C253.647 156.15 254.547 155.799 255.402 155.349C259.021 153.591 262.494 151.548 265.788 149.238C267.489 148.095 269.145 146.88 270.801 145.638C271.629 145.026 272.448 144.396 273.249 143.757L275.562 141.894L282.969 150.3Z" fill="#FF8B7B"/>
<path d="M287.298 148.239C284.157 154.683 272.223 159.993 272.223 159.993L267.723 145.593C267.723 145.593 269.649 142.983 274.545 140.643C286.101 135.135 291.528 139.554 287.298 148.239Z" fill="#263238"/>
<path opacity="0.2" d="M279.774 147.969C277.109 150.753 274.993 154.013 273.537 157.581C273.255 158.281 273.012 158.996 272.808 159.723C274.608 158.823 280.377 155.943 284.274 152.19L284.571 150.453C284.666 149.862 284.572 149.256 284.303 148.722C284.033 148.187 283.602 147.751 283.071 147.476C282.539 147.201 281.935 147.101 281.343 147.189C280.751 147.277 280.202 147.55 279.774 147.969V147.969Z" fill="black"/>
<path d="M241.839 153.612L237.825 144.99L232.902 153.153C232.902 153.153 235.305 158.094 240.246 156.366L241.839 153.612Z" fill="#FF8B7B"/>
<path d="M231.759 141.138L228.42 147.294L232.902 153.153L237.825 144.99L231.759 141.138Z" fill="#FF8B7B"/>
<path opacity="0.2" d="M243.315 347.472L240.516 355.878L247.266 358.659L250.065 350.253L243.315 347.472Z" fill="black"/>
<path opacity="0.2" d="M309.348 350.091H301.995L302.337 358.866H309.69L309.348 350.091Z" fill="black"/>
<path d="M277.956 142.893C274.784 162.413 273.371 182.178 273.735 201.951L312.714 207.063C313.389 201.339 314.37 175.023 318.951 147.42C319.329 145.152 319.446 143.415 317.223 142.776C314.766 142.065 309.951 140.733 306.702 140.139C301.225 139.099 295.693 138.375 290.133 137.97C287.856 137.892 285.576 137.931 283.302 138.087C282.001 138.171 280.765 138.691 279.796 139.563C278.826 140.435 278.178 141.608 277.956 142.893Z" fill="#263238"/>
<path d="M306.702 140.139C301.222 139.098 295.687 138.374 290.124 137.97C288.927 137.925 287.748 137.925 286.623 137.97L287.793 139.644C289.207 141.794 290.324 144.125 291.114 146.574V146.574C291.159 146.723 291.235 146.862 291.336 146.981C291.437 147.1 291.561 147.197 291.701 147.266C291.841 147.335 291.994 147.375 292.15 147.383C292.306 147.391 292.462 147.367 292.608 147.312L294.354 146.646C297.234 145.557 302.013 144.279 304.911 143.55C306.643 143.111 308.347 142.567 310.014 141.921L311.67 141.291C309.942 140.823 308.16 140.4 306.702 140.139Z" fill="white"/>
<path opacity="0.2" d="M307.575 155.7C305.869 160.198 305.457 165.083 306.387 169.803C306.519 170.529 306.93 171.174 307.533 171.6C308.135 172.026 308.881 172.198 309.609 172.08L312.768 171.585C313.354 171.491 313.897 171.216 314.318 170.798C314.739 170.38 315.019 169.84 315.117 169.254L318.6 148.554C318.699 147.963 318.607 147.356 318.34 146.82C318.072 146.284 317.641 145.847 317.109 145.571C316.577 145.295 315.972 145.195 315.38 145.284C314.787 145.374 314.238 145.649 313.812 146.07C311.14 148.854 309.023 152.123 307.575 155.7Z" fill="black"/>
<path d="M306.423 121.122L295.623 128.538C296.361 132.849 296.19 137.313 290.133 137.97C291.223 139.536 292.172 141.195 292.968 142.929C293.077 143.199 293.285 143.416 293.55 143.537C293.814 143.658 294.115 143.672 294.39 143.577C299.124 141.93 306.711 140.139 306.711 140.139C303.228 136.062 304.992 126.36 306.423 121.122Z" fill="#FF8B7B"/>
<path opacity="0.2" d="M302.013 124.2L295.623 128.583C295.805 129.584 295.904 130.599 295.92 131.616C298.215 131.616 301.518 129.483 301.932 127.116C302.135 126.157 302.163 125.169 302.013 124.2V124.2Z" fill="black"/>
<path d="M295.92 100.494C290.79 102.951 288.072 114.615 295.38 112.005C302.688 109.395 301.5 97.821 295.92 100.494Z" fill="#263238"/>
<path d="M312.489 113.832C310.248 120.681 308.178 125.802 303.705 128.232C296.982 131.931 289.17 125.964 289.305 118.458C289.431 111.699 294.183 100.656 301.77 100.062C303.485 99.9573 305.201 100.272 306.767 100.98C308.333 101.687 309.704 102.765 310.759 104.122C311.815 105.478 312.524 107.071 312.826 108.763C313.127 110.455 313.011 112.195 312.489 113.832V113.832Z" fill="#FF8B7B"/>
<path d="M307.134 112.248C308.457 110.556 313.182 106.317 308.664 106.758C304.146 107.199 295.308 105.651 292.698 100.377C290.088 95.103 296.505 95.436 297.837 97.47C297.378 94.572 299.286 92.412 301.581 93.465C302.98 94.1422 304.061 95.3361 304.596 96.795C304.596 96.795 305.208 91.944 308.556 94.491C310.562 96.0417 312.1 98.1158 313.002 100.485C313.002 100.485 323.505 104.985 318.033 108.891C322.83 109.791 321.633 118.962 309.933 120.186C304.074 119.16 305.172 114.75 307.134 112.248Z" fill="#263238"/>
<path d="M318.897 109.197C318.334 109.238 317.77 109.146 317.249 108.929C316.729 108.711 316.267 108.375 315.9 107.946C315.876 107.895 315.871 107.837 315.886 107.782C315.9 107.728 315.933 107.68 315.979 107.647C316.024 107.614 316.08 107.598 316.136 107.602C316.193 107.605 316.246 107.628 316.287 107.667C317.025 108.72 318.735 108.891 320.004 108.567C320.814 108.387 321.219 108.072 321.255 107.856C321.291 107.64 321.048 107.496 320.895 107.397C320.869 107.381 320.846 107.359 320.829 107.334C320.811 107.309 320.798 107.28 320.792 107.25C320.785 107.22 320.784 107.189 320.79 107.158C320.795 107.128 320.806 107.099 320.823 107.073C320.839 107.046 320.86 107.023 320.885 107.004C320.91 106.986 320.938 106.972 320.968 106.965C320.998 106.957 321.03 106.956 321.06 106.96C321.091 106.965 321.121 106.976 321.147 106.992C321.696 107.343 321.768 107.703 321.723 107.892C321.642 108.369 321.039 108.792 320.112 108.99C319.715 109.102 319.308 109.171 318.897 109.197V109.197Z" fill="#263238"/>
<path d="M313.101 121.167C311.934 122.521 310.297 123.383 308.52 123.579C306.126 123.84 305.334 121.779 306.342 119.826C307.242 118.089 309.573 115.866 311.805 116.505C312.279 116.629 312.712 116.875 313.061 117.219C313.41 117.562 313.663 117.991 313.794 118.463C313.925 118.935 313.93 119.433 313.808 119.908C313.687 120.382 313.443 120.816 313.101 121.167V121.167Z" fill="#FF8B7B"/>
<path d="M273.735 201.951C273.735 201.951 261.477 253.98 256.5 275.931C251.244 298.8 238.5 353.223 238.5 353.223L250.02 357.957C250.02 357.957 263.034 313.857 270.027 292.023C277.659 268.236 297.927 224.523 299.34 205.308L273.735 201.951Z" fill="#176E88"/>
<path opacity="0.2" d="M285.165 251.847C289.341 241.047 293.364 230.247 296.064 220.986C286.443 216.414 284.4 234.162 285.165 251.847Z" fill="black"/>
<path d="M290.196 204.111C290.196 204.111 288.621 261.945 290.754 283.671C293.094 307.458 298.854 357.165 298.854 357.165H312.354C312.354 357.165 310.608 308.565 310.365 285.372C310.104 260.172 311.391 225.468 312.732 207.072L290.196 204.111Z" fill="#176E88"/>
<path d="M298.674 357.462H313.362V352.413H297.045L298.674 357.462Z" fill="#FF725E"/>
<path d="M298.674 357.462H313.362V352.413H297.045L298.674 357.462Z" fill="#37474F"/>
<path d="M237.024 352.935L250.866 358.677L253.071 354.339L238.068 347.904L237.024 352.935Z" fill="#FF725E"/>
<path d="M237.024 352.935L250.866 358.677L253.071 354.339L238.068 347.904L237.024 352.935Z" fill="#37474F"/>
<path d="M300.258 113.4C300.105 113.967 299.682 114.3 299.313 114.21C298.944 114.12 298.755 113.535 298.908 112.968C299.061 112.401 299.475 112.068 299.808 112.149C300.141 112.23 300.402 112.806 300.258 113.4Z" fill="#263238"/>
<path d="M293.805 111.312C293.661 111.879 293.238 112.212 292.86 112.122C292.482 112.032 292.311 111.447 292.455 110.88C292.599 110.313 293.022 109.98 293.4 110.07C293.778 110.16 293.958 110.745 293.805 111.312Z" fill="#263238"/>
<path d="M295.785 112.248C294.655 113.768 293.309 115.114 291.789 116.244C292.1 116.643 292.492 116.971 292.938 117.209C293.385 117.446 293.877 117.586 294.381 117.621L295.785 112.248Z" fill="#FF5652"/>
<path d="M295.641 119.7C296.385 119.978 297.187 120.065 297.974 119.952C298.76 119.838 299.506 119.529 300.141 119.052C300.157 119.036 300.17 119.017 300.179 118.996C300.187 118.975 300.192 118.953 300.192 118.931C300.192 118.908 300.187 118.886 300.179 118.865C300.17 118.844 300.157 118.825 300.141 118.809C300.126 118.792 300.107 118.778 300.086 118.769C300.065 118.759 300.043 118.754 300.02 118.754C299.997 118.754 299.974 118.759 299.953 118.769C299.932 118.778 299.913 118.792 299.898 118.809C299.306 119.236 298.619 119.512 297.896 119.614C297.173 119.716 296.436 119.64 295.749 119.394C295.728 119.386 295.706 119.382 295.684 119.383C295.662 119.384 295.64 119.39 295.62 119.4C295.601 119.41 295.584 119.425 295.57 119.442C295.556 119.46 295.547 119.48 295.542 119.502C295.536 119.541 295.542 119.581 295.559 119.617C295.577 119.653 295.606 119.682 295.641 119.7Z" fill="#263238"/>
<path d="M303.453 110.601C303.526 110.628 303.605 110.628 303.678 110.601C303.722 110.587 303.762 110.564 303.796 110.534C303.83 110.504 303.858 110.467 303.877 110.426C303.897 110.384 303.908 110.339 303.909 110.294C303.91 110.248 303.902 110.202 303.885 110.16C303.715 109.62 303.424 109.126 303.034 108.716C302.644 108.306 302.166 107.99 301.635 107.793C301.591 107.779 301.545 107.775 301.5 107.78C301.454 107.785 301.41 107.8 301.371 107.822C301.331 107.845 301.296 107.876 301.269 107.913C301.242 107.949 301.222 107.991 301.212 108.036C301.193 108.128 301.209 108.223 301.257 108.304C301.306 108.384 301.383 108.443 301.473 108.468V108.468C301.897 108.628 302.279 108.882 302.591 109.211C302.903 109.54 303.136 109.935 303.273 110.367C303.285 110.417 303.307 110.463 303.338 110.503C303.369 110.544 303.408 110.577 303.453 110.601V110.601Z" fill="#263238"/>
<path d="M292.212 107.604C292.273 107.626 292.339 107.629 292.401 107.613C292.464 107.597 292.52 107.562 292.563 107.514C292.84 107.189 293.192 106.937 293.589 106.78C293.986 106.624 294.416 106.566 294.84 106.614C294.884 106.623 294.929 106.623 294.973 106.613C295.017 106.604 295.058 106.586 295.095 106.559C295.131 106.533 295.162 106.5 295.184 106.461C295.207 106.422 295.222 106.38 295.227 106.335C295.236 106.243 295.21 106.151 295.156 106.076C295.101 106.001 295.021 105.949 294.93 105.93C294.393 105.857 293.846 105.919 293.339 106.113C292.833 106.306 292.383 106.624 292.032 107.037C291.967 107.103 291.93 107.192 291.93 107.285C291.93 107.377 291.967 107.466 292.032 107.532C292.081 107.578 292.145 107.604 292.212 107.604Z" fill="#263238"/>
<path d="M322.767 151.254C322.623 152.892 322.443 154.296 322.209 155.754C321.975 157.212 321.732 158.697 321.453 160.164C320.886 163.08 320.193 165.996 319.329 168.894C318.469 171.837 317.416 174.72 316.179 177.525C314.895 180.509 313.257 183.328 311.301 185.922L310.905 186.426L310.698 186.678L310.347 187.101C309.863 187.635 309.319 188.112 308.727 188.523C307.795 189.17 306.781 189.691 305.712 190.071C304.037 190.642 302.305 191.028 300.546 191.223C297.48 191.555 294.39 191.624 291.312 191.43C285.447 191.067 279.624 190.203 273.906 188.847L274.635 183.384C277.389 183.384 280.224 183.384 282.996 183.339C285.768 183.294 288.549 183.195 291.249 182.988C293.856 182.827 296.448 182.484 299.007 181.962C300.065 181.751 301.095 181.419 302.076 180.972C302.348 180.86 302.597 180.702 302.814 180.504C302.859 180.504 302.814 180.45 302.814 180.504C302.814 180.558 302.751 180.576 302.814 180.504L302.931 180.324L303.165 179.973C304.466 177.904 305.549 175.705 306.396 173.412C307.293 170.97 308.062 168.482 308.7 165.96C309.366 163.377 309.942 160.74 310.446 158.085C310.698 156.753 310.932 155.385 311.139 154.08C311.346 152.775 311.553 151.38 311.697 150.165L322.767 151.254Z" fill="#FF8B7B"/>
<path d="M323.685 148.014C327.285 156.447 321.444 168.201 321.444 168.201L307.485 163.296C307.808 158.301 308.433 153.33 309.357 148.41C310.869 140.031 320.904 141.516 323.685 148.014Z" fill="#263238"/>
<path d="M298.917 367.542C299.561 367.524 300.2 367.437 300.825 367.281C300.858 367.273 300.887 367.255 300.908 367.229C300.929 367.203 300.941 367.171 300.942 367.137C300.946 367.103 300.94 367.068 300.924 367.038C300.907 367.007 300.883 366.982 300.852 366.966C300.582 366.795 298.152 365.337 297.333 365.751C297.247 365.801 297.176 365.873 297.128 365.96C297.081 366.048 297.058 366.147 297.063 366.246C297.057 366.418 297.091 366.589 297.163 366.745C297.235 366.902 297.342 367.039 297.477 367.146C297.901 367.432 298.407 367.571 298.917 367.542V367.542ZM300.303 367.038C299.443 367.318 298.51 367.27 297.684 366.903C297.594 366.825 297.523 366.728 297.476 366.619C297.43 366.51 297.408 366.392 297.414 366.273C297.408 366.233 297.415 366.191 297.432 366.155C297.45 366.118 297.478 366.087 297.513 366.066C297.9 365.85 299.313 366.48 300.303 367.038Z" fill="#FF725E"/>
<path d="M300.78 367.281C300.812 367.29 300.847 367.29 300.879 367.281C300.902 367.262 300.92 367.236 300.931 367.208C300.942 367.18 300.946 367.149 300.942 367.119C300.942 367.029 300.636 364.914 299.736 364.212C299.633 364.127 299.513 364.063 299.385 364.024C299.257 363.986 299.122 363.973 298.989 363.987C298.86 363.988 298.736 364.034 298.639 364.118C298.541 364.203 298.477 364.319 298.458 364.446C298.35 365.265 299.916 366.876 300.699 367.29L300.78 367.281ZM299.124 364.302C299.275 364.307 299.42 364.36 299.538 364.455C300.083 365.113 300.429 365.912 300.537 366.759C299.745 366.183 298.737 364.959 298.8 364.482C298.8 364.437 298.8 364.338 299.052 364.311L299.124 364.302Z" fill="#FF725E"/>
<path d="M234.234 362.439C234.952 362.724 235.697 362.935 236.457 363.069C236.491 363.077 236.526 363.073 236.557 363.058C236.588 363.043 236.613 363.019 236.628 362.988C236.649 362.958 236.661 362.922 236.661 362.884C236.661 362.847 236.649 362.811 236.628 362.781C236.376 362.493 234.135 359.946 233.145 360.081C233.053 360.093 232.966 360.129 232.893 360.186C232.821 360.243 232.764 360.319 232.731 360.405C232.662 360.545 232.626 360.699 232.626 360.855C232.626 361.011 232.662 361.165 232.731 361.305C233.091 361.841 233.62 362.24 234.234 362.439V362.439ZM236.034 362.619C234.441 362.259 233.334 361.719 233.064 361.179C233.015 361.084 232.99 360.979 232.99 360.873C232.99 360.767 233.015 360.662 233.064 360.567C233.076 360.532 233.098 360.501 233.127 360.477C233.155 360.454 233.189 360.438 233.226 360.432C233.712 360.36 235.062 361.602 235.998 362.619H236.034Z" fill="#FF725E"/>
<path d="M236.421 363.06C236.456 363.073 236.494 363.073 236.529 363.06C236.557 363.05 236.583 363.034 236.604 363.012C236.624 362.99 236.639 362.963 236.646 362.934C236.646 362.853 237.123 360.909 236.511 359.82C236.343 359.508 236.058 359.275 235.719 359.172C235.26 359.037 235.053 359.217 234.963 359.388C234.567 360.126 235.665 362.295 236.358 362.988L236.421 363.06ZM235.737 359.559C235.944 359.646 236.116 359.802 236.223 360C236.516 360.808 236.57 361.683 236.376 362.52C235.719 361.62 235.017 360.018 235.26 359.577C235.26 359.577 235.341 359.433 235.638 359.523L235.737 359.559Z" fill="#FF725E"/>
<path d="M80.523 148.068L79.713 147.744C80.613 145.503 81.612 143.244 82.674 141.129L83.466 141.516C82.413 143.649 81.423 145.854 80.523 148.068Z" fill="#FF725E"/>
<path d="M74.52 170.262L73.62 170.136C74.4799 164.31 75.8686 158.574 77.769 153L78.606 153.288C76.7311 158.81 75.3634 164.492 74.52 170.262V170.262Z" fill="#FF725E"/>
<path d="M237.702 251.459C274.761 214.4 274.761 154.315 237.702 117.256C200.643 80.1967 140.558 80.1967 103.499 117.256C66.4395 154.315 66.4395 214.4 103.499 251.459C140.558 288.518 200.643 288.518 237.702 251.459Z" fill="#FF725E"/>
<path opacity="0.07" d="M175.932 235.773C215.304 235.773 247.221 203.856 247.221 164.484C247.221 125.112 215.304 93.195 175.932 93.195C136.56 93.195 104.643 125.112 104.643 164.484C104.643 203.856 136.56 235.773 175.932 235.773Z" fill="white"/>
<path d="M213.849 129.366C213.714 132.066 210.438 134.163 206.532 133.965C202.626 133.767 199.575 131.391 199.719 128.646C199.863 125.901 203.13 123.858 207.036 124.056C210.942 124.254 213.993 126.63 213.849 129.366Z" fill="#263238"/>
<path d="M140.913 133.866C141.435 136.566 138.744 139.338 134.91 140.085C131.076 140.832 127.539 139.257 127.017 136.566C126.495 133.875 129.177 131.085 133.02 130.338C136.863 129.591 140.4 131.175 140.913 133.866Z" fill="#263238"/>
<path d="M131.823 154.449C139.175 154.449 145.134 152.229 145.134 149.49C145.134 146.751 139.175 144.531 131.823 144.531C124.472 144.531 118.512 146.751 118.512 149.49C118.512 152.229 124.472 154.449 131.823 154.449Z" fill="#FF725E"/>
<path d="M225.9 139.257C226.305 141.867 220.959 144.873 213.966 145.971C206.973 147.069 200.961 145.836 200.547 143.226C200.133 140.616 205.488 137.619 212.481 136.521C219.474 135.423 225.513 136.647 225.9 139.257Z" fill="#FF725E"/>
<path d="M153.342 155.313C160.2 153.171 178.146 148.437 198.099 150.246C198.394 150.278 198.68 150.369 198.939 150.514C199.198 150.658 199.425 150.854 199.608 151.088C199.79 151.322 199.923 151.59 199.999 151.877C200.076 152.164 200.094 152.463 200.052 152.757C197.838 170.145 165.69 173.709 152.352 158.841C152.11 158.568 151.94 158.239 151.858 157.884C151.777 157.528 151.785 157.158 151.884 156.807C151.983 156.456 152.168 156.135 152.422 155.874C152.677 155.613 152.993 155.42 153.342 155.313V155.313Z" fill="#263238"/>
<path opacity="0.6" d="M184.095 157.563C182.945 157.894 181.837 158.356 180.792 158.94C178.04 157.783 174.964 157.655 172.125 158.58C167.778 159.84 164.403 162.792 163.242 165.969C169.851 168.34 176.994 168.798 183.852 167.292C188.703 166.212 193.014 164.097 195.975 161.037C194.4 157.563 189.45 156.006 184.095 157.563Z" fill="#FF725E"/>
<path d="M276.03 183.798L269.604 180L269.1 189.639C269.1 189.639 275.22 191.583 276.471 188.316L276.03 183.798Z" fill="#FF8B7B"/>
<path d="M261.873 180.711L261.864 188.622L269.091 189.639L269.604 180.036L261.873 180.711Z" fill="#FF8B7B"/>
</svg>
