<svg width="500" height="500" viewBox="0 0 500 500" fill="none" xmlns="http://www.w3.org/2000/svg">
<path d="M252.9 456.23C376.424 456.23 476.56 401.792 476.56 334.64C476.56 267.488 376.424 213.05 252.9 213.05C129.376 213.05 29.24 267.488 29.24 334.64C29.24 401.792 129.376 456.23 252.9 456.23Z" fill="#F5F5F5"/>
<path d="M366.05 320C391.809 320 412.69 307.943 412.69 293.07C412.69 278.197 391.809 266.14 366.05 266.14C340.292 266.14 319.41 278.197 319.41 293.07C319.41 307.943 340.292 320 366.05 320Z" fill="#E0E0E0"/>
<path d="M113.75 388.29C139.509 388.29 160.39 376.233 160.39 361.36C160.39 346.487 139.509 334.43 113.75 334.43C87.9915 334.43 67.1101 346.487 67.1101 361.36C67.1101 376.233 87.9915 388.29 113.75 388.29Z" fill="#E0E0E0"/>
<path d="M436.14 283.65L429.4 279.8C429.4 279.8 426.17 261.99 428.58 246.69C431.98 225.17 446.63 217.74 451.96 219.88C457.29 222.02 458.53 228.4 448.96 240.88C443.25 248.17 436 263.67 436.14 283.65Z" fill="#8AD4C2"/>
<g opacity="0.1">
<path d="M436.14 283.65L429.4 279.8C429.4 279.8 426.17 261.99 428.58 246.69C431.98 225.17 446.63 217.74 451.96 219.88C457.29 222.02 458.53 228.4 448.96 240.88C443.25 248.17 436 263.67 436.14 283.65Z" fill="black"/>
</g>
<path d="M432.93 274.89H433C433.063 274.884 433.124 274.865 433.18 274.835C433.236 274.805 433.286 274.764 433.326 274.715C433.366 274.665 433.395 274.609 433.413 274.548C433.431 274.487 433.437 274.423 433.43 274.36C431.23 254.14 439.97 232.36 449.33 223.69C449.424 223.603 449.48 223.481 449.484 223.353C449.489 223.224 449.442 223.099 449.355 223.005C449.267 222.911 449.146 222.855 449.018 222.851C448.889 222.846 448.764 222.893 448.67 222.98C439.15 231.77 430.24 253.98 432.47 274.47C432.486 274.583 432.541 274.686 432.625 274.763C432.709 274.839 432.816 274.884 432.93 274.89V274.89Z" fill="white"/>
<path d="M454.83 294.44C455.89 295.05 458.08 293.72 458.92 293.15C460.362 292.173 461.526 290.84 462.3 289.28C463.168 287.507 463.465 285.509 463.15 283.56C462.974 282.546 462.733 281.544 462.43 280.56C462.14 279.56 461.86 278.56 461.58 277.61C461.233 276.65 461.086 275.629 461.15 274.61C461.4 272.61 463.15 271.18 464.82 269.96C466.62 268.61 468.5 266.83 468.49 264.4C468.354 262.515 467.602 260.726 466.35 259.31C465.19 257.84 463.81 256.54 462.76 254.99C461.929 253.909 461.498 252.573 461.54 251.21C461.648 250.378 461.927 249.578 462.36 248.86C463.346 247.355 464.209 245.773 464.94 244.13C465.53 242.43 465.45 240.31 464.12 239.13C463.525 238.694 462.849 238.381 462.131 238.209C461.413 238.037 460.668 238.01 459.94 238.13C458.561 238.298 457.234 238.762 456.05 239.49C452.19 241.64 449.99 246.21 445.9 247.86C444.29 248.334 442.654 248.715 441 249C440.16 249.153 439.361 249.481 438.656 249.964C437.952 250.446 437.357 251.072 436.91 251.8C435.41 254.8 438.2 258.5 437.14 261.68C436.2 264.5 433.46 265.58 431.93 268.12C431.301 269.241 431.049 270.535 431.21 271.81C431.341 273.967 431.866 276.082 432.76 278.05C433.764 280.005 434.91 281.884 436.19 283.67C436.2 283.71 454.66 294.35 454.83 294.44Z" fill="#8AD4C2"/>
<path d="M443.89 288.62C443.954 288.619 444.017 288.605 444.075 288.579C444.134 288.553 444.186 288.515 444.23 288.469C444.274 288.422 444.308 288.367 444.33 288.308C444.353 288.248 444.363 288.184 444.36 288.12C443.57 269.05 452.55 248 459.09 241.88C459.136 241.837 459.173 241.785 459.199 241.727C459.225 241.669 459.239 241.607 459.241 241.544C459.243 241.481 459.232 241.418 459.21 241.359C459.187 241.3 459.153 241.246 459.11 241.2C459.067 241.154 459.015 241.117 458.957 241.091C458.9 241.065 458.837 241.051 458.774 241.049C458.711 241.047 458.648 241.058 458.589 241.08C458.53 241.103 458.476 241.137 458.43 241.18C451.76 247.42 442.6 268.82 443.43 288.18C443.44 288.297 443.492 288.406 443.577 288.487C443.661 288.568 443.773 288.616 443.89 288.62V288.62Z" fill="white"/>
<path d="M446.75 266.09H446.89C451.408 264.841 456.049 264.093 460.73 263.86C460.857 263.852 460.975 263.796 461.061 263.703C461.147 263.61 461.193 263.487 461.19 263.36C461.19 263.296 461.177 263.233 461.152 263.174C461.126 263.116 461.089 263.063 461.042 263.02C460.994 262.976 460.939 262.944 460.878 262.923C460.818 262.902 460.754 262.894 460.69 262.9C455.928 263.14 451.206 263.901 446.61 265.17C446.55 265.188 446.493 265.218 446.445 265.258C446.396 265.299 446.355 265.348 446.326 265.404C446.296 265.459 446.277 265.52 446.271 265.583C446.265 265.646 446.272 265.71 446.29 265.77C446.322 265.866 446.384 265.948 446.467 266.006C446.55 266.064 446.649 266.093 446.75 266.09V266.09Z" fill="white"/>
<path d="M48.4301 305.31L55.1301 301.44C55.1301 301.44 58.3801 283.63 55.9601 268.33C52.5701 246.81 37.9601 239.39 32.5901 241.52C27.2201 243.65 26.0201 250.04 35.5901 262.52C41.3001 269.81 48.6101 285.34 48.4301 305.31Z" fill="#8AD4C2"/>
<g opacity="0.1">
<path d="M48.4301 305.31L55.1301 301.44C55.1301 301.44 58.3801 283.63 55.9601 268.33C52.5701 246.81 37.9601 239.39 32.5901 241.52C27.2201 243.65 26.0201 250.04 35.5901 262.52C41.3001 269.81 48.6101 285.34 48.4301 305.31Z" fill="black"/>
</g>
<path d="M52 304.28C51.8691 304.272 51.7465 304.213 51.6586 304.116C51.5707 304.019 51.5245 303.891 51.5299 303.76C53.1099 273.76 48.8899 256.69 37.41 246.56C37.3177 246.465 37.2661 246.338 37.2661 246.205C37.2661 246.072 37.3177 245.945 37.41 245.85C37.5051 245.758 37.6324 245.706 37.7649 245.706C37.8975 245.706 38.0248 245.758 38.1199 245.85C49.8499 256.2 54.18 273.55 52.58 303.85C52.5715 303.917 52.5495 303.981 52.5155 304.04C52.4814 304.098 52.4359 304.149 52.3817 304.189C52.3275 304.229 52.2658 304.258 52.2002 304.273C52.1345 304.289 52.0664 304.291 52 304.28Z" fill="white"/>
<path d="M50.46 304.13C50.6 297.69 46.85 276.36 34.23 268.6C21.61 260.84 15.48 270.51 20.59 276.37C24.34 280.66 31.32 283.76 37.89 292.63C42.4 298.73 45 307.3 45 307.3L50.46 304.13Z" fill="#8AD4C2"/>
<path d="M48.2 306.63C48.0725 306.63 47.9496 306.582 47.8567 306.494C47.7637 306.407 47.7077 306.287 47.7 306.16C46.49 289.9 37.26 275.31 25.25 270.69C25.1883 270.666 25.1319 270.631 25.0839 270.585C25.0359 270.54 24.9974 270.485 24.9704 270.425C24.9435 270.365 24.9287 270.3 24.9269 270.234C24.9252 270.168 24.9364 270.102 24.96 270.04C24.9837 269.978 25.0192 269.922 25.0647 269.874C25.1102 269.826 25.1646 269.787 25.225 269.76C25.2853 269.734 25.3504 269.719 25.4165 269.717C25.4826 269.715 25.5483 269.726 25.61 269.75C38 274.52 47.46 289.46 48.7 306.09C48.7055 306.157 48.6976 306.223 48.6768 306.287C48.656 306.35 48.6227 306.409 48.5789 306.459C48.5351 306.509 48.4816 306.551 48.4217 306.58C48.3618 306.609 48.2967 306.626 48.23 306.63H48.2Z" fill="white"/>
<path d="M302.48 114.45C304 115.7 305.74 116.35 307.74 118.29C309.004 119.729 310.6 120.837 312.39 121.52C314.7 122.44 316.87 122.17 323.28 121.14C331.11 119.89 334.48 118.57 337.86 115.69C341.81 112.32 350.65 102.15 354.92 98.1599C359.44 93.9399 365.65 95.5699 365.65 95.5699C363.728 101.825 360.869 107.752 357.17 113.15C353.75 118.02 347.36 122.69 344.47 125.09C339.84 128.94 337.38 130.46 327.22 131.23C319.55 131.81 318.53 131.99 312.22 131.81C309.95 131.74 308.54 131.72 304.82 131.41C303.205 131.304 301.606 131.026 300.05 130.58C298.29 130.175 296.604 129.5 295.05 128.58C293.022 127.263 291.385 125.426 290.31 123.26C289.722 122.069 289.421 120.758 289.43 119.43C289.446 118.092 289.935 116.802 290.81 115.79C290.981 115.583 291.201 115.422 291.45 115.32C291.935 115.237 292.432 115.345 292.84 115.62C295.24 116.85 297.66 118.55 300.18 119.52C302.3 120.33 303.92 120.62 303.76 120.19C303.6 119.76 302.32 119.37 301 117.88C299.68 116.39 299.35 114.32 300.2 113.67C301.05 113.02 301 113.19 302.48 114.45Z" fill="#FFA8A7"/>
<path d="M367.47 95.5398C365.053 94.3781 362.311 94.0782 359.7 94.6899C355.75 95.8299 352.58 98.4098 348.81 102.46C345.04 106.51 338.67 113.05 338.67 113.05C338.67 113.05 341.81 120.98 348.85 123.8L363.61 110.15L367.47 95.5398Z" fill="#E0E0E0"/>
<path d="M389.16 276.74H380.21V292.06H389.16V276.74Z" fill="#FFA8A7"/>
<path d="M364.39 280.6L355.45 280.91L355 264.7L364.39 264.39V280.6Z" fill="#FFA8A7"/>
<path d="M393 162.37C393 170.91 391.49 220.61 391.49 220.61C391.69 223.07 394.06 227.44 394.25 236.3C394.51 249.14 389.57 284.4 389.57 284.4C388.02 285.166 386.321 285.58 384.592 285.615C382.864 285.649 381.149 285.303 379.57 284.6C379.57 284.6 375.51 236.8 373.9 224.09C372.5 212.99 370.13 182.85 370.13 182.85L365.92 219.07C366.946 223.736 367.309 228.523 367 233.29C366.58 239.17 364.92 275.58 364.92 275.58C363.362 276.461 361.628 276.989 359.843 277.126C358.058 277.262 356.264 277.004 354.59 276.37C354.59 276.37 348.28 224.46 348.18 219.07C348.06 212.92 350.51 150.13 350.51 150.13L393 162.37Z" fill="#37474F"/>
<path d="M387.09 99.5099C389.06 100.383 390.608 101.996 391.4 104C392.318 106.471 392.763 109.094 392.71 111.73V129.26L392.97 162.37C380.12 169.14 363.8 169.59 350.09 159.58C350.09 159.58 350.86 116.97 350.86 110C350.86 109.69 350.86 109.37 350.86 109C351.36 98.9999 361.16 92.2099 370.86 94.6899L379 96.8299L387.14 99.5099H387.09Z" fill="#F0F0F0"/>
<path d="M366.936 78.8924C373.548 77.3319 377.643 70.7073 376.082 64.0959C374.522 57.4844 367.897 53.3898 361.286 54.9502C354.674 56.5106 350.579 63.1353 352.14 69.7467C353.7 76.3582 360.325 80.4528 366.936 78.8924Z" fill="#407BFF"/>
<path opacity="0.5" d="M366.936 78.8924C373.548 77.3319 377.643 70.7073 376.082 64.0959C374.522 57.4844 367.897 53.3898 361.286 54.9502C354.674 56.5106 350.579 63.1353 352.14 69.7467C353.7 76.3582 360.325 80.4528 366.936 78.8924Z" fill="black"/>
<path d="M385.37 75.6399C385.37 75.6399 383.37 85.0099 382.58 86.5399C382.051 87.4969 381.173 88.2132 380.13 88.5399L380.27 81.9499L385.37 75.6399Z" fill="#407BFF"/>
<path opacity="0.5" d="M385.37 75.6399C385.37 75.6399 383.37 85.0099 382.58 86.5399C382.051 87.4969 381.173 88.2132 380.13 88.5399L380.27 81.9499L385.37 75.6399Z" fill="black"/>
<path d="M382.87 62.2298C383.568 62.1483 384.275 62.2276 384.937 62.4616C385.599 62.6956 386.199 63.0781 386.69 63.5798C388.33 65.2498 387.41 70.4998 385.37 75.6398L381.62 76.0798L382.87 62.2298Z" fill="#407BFF"/>
<path opacity="0.5" d="M382.87 62.2298C383.568 62.1483 384.275 62.2276 384.937 62.4616C385.599 62.6956 386.199 63.0781 386.69 63.5798C388.33 65.2498 387.41 70.4998 385.37 75.6398L381.62 76.0798L382.87 62.2298Z" fill="black"/>
<path d="M380.49 76.0799C381.24 76.5299 382.32 75.0799 383.24 74.0799C384.16 73.0799 387.24 71.7799 388.71 74.9699C390.18 78.1599 387.38 82.4999 384.99 83.2499C380.88 84.5399 380.27 81.8999 380.27 81.8999L380 97.2199C374.89 103.77 360.71 103.22 366.62 96.3699V91.8599C364.789 92.1497 362.931 92.2436 361.08 92.1399C358.08 91.6699 356.15 89.2899 355.23 86.0199C353.76 80.7599 353.23 76.5199 354.45 66.1799C355.82 54.8499 369 54.7299 376.12 59.1799C383.24 63.6299 380.49 76.0799 380.49 76.0799Z" fill="#FFA8A7"/>
<path d="M380.49 77.3399C380.87 77.3399 382.31 74.9599 383.24 74.1099C384.54 72.9299 382.87 62.2299 382.87 62.2299C383.212 61.3045 383.275 60.2994 383.053 59.3382C382.831 58.377 382.333 57.5017 381.62 56.8199C379.84 54.8199 376.87 54.6499 371.79 53.8199C369.13 53.3999 365.09 52.6599 362.43 52.1599C359.26 51.5699 356.63 50.9499 354.43 52.8999C353.549 53.6589 352.926 54.6728 352.646 55.8014C352.367 56.9301 352.445 58.1176 352.87 59.1999C353.497 60.5481 354.617 61.6041 356 62.1499C356 62.1499 357.38 63.3799 362.2 63.9699C366.645 64.2991 371.111 64.2121 375.54 63.7099C376.94 63.5199 377.24 64.8799 377.99 68.5699C378.67 71.8199 379.22 77.3199 380.49 77.3399Z" fill="#407BFF"/>
<path opacity="0.5" d="M380.49 77.3399C380.87 77.3399 382.31 74.9599 383.24 74.1099C384.54 72.9299 382.87 62.2299 382.87 62.2299C383.212 61.3045 383.275 60.2994 383.053 59.3382C382.831 58.377 382.333 57.5017 381.62 56.8199C379.84 54.8199 376.87 54.6499 371.79 53.8199C369.13 53.3999 365.09 52.6599 362.43 52.1599C359.26 51.5699 356.63 50.9499 354.43 52.8999C353.549 53.6589 352.926 54.6728 352.646 55.8014C352.367 56.9301 352.445 58.1176 352.87 59.1999C353.497 60.5481 354.617 61.6041 356 62.1499C356 62.1499 357.38 63.3799 362.2 63.9699C366.645 64.2991 371.111 64.2121 375.54 63.7099C376.94 63.5199 377.24 64.8799 377.99 68.5699C378.67 71.8199 379.22 77.3199 380.49 77.3399Z" fill="black"/>
<path d="M382.86 63.0599L387.41 60.6199C387.264 60.3181 387.06 60.0486 386.808 59.8272C386.557 59.6057 386.263 59.4369 385.946 59.3307C385.628 59.2244 385.292 59.1829 384.958 59.2085C384.624 59.2342 384.298 59.3264 384 59.4799C383.386 59.8155 382.925 60.3747 382.713 61.0415C382.5 61.7082 382.553 62.4311 382.86 63.0599V63.0599Z" fill="#407BFF"/>
<path opacity="0.5" d="M382.86 63.0599L387.41 60.6199C387.264 60.3181 387.06 60.0486 386.808 59.8272C386.557 59.6057 386.263 59.4369 385.946 59.3307C385.628 59.2244 385.292 59.1829 384.958 59.2085C384.624 59.2342 384.298 59.3264 384 59.4799C383.386 59.8155 382.925 60.3747 382.713 61.0415C382.5 61.7082 382.553 62.4311 382.86 63.0599V63.0599Z" fill="black"/>
<path d="M366.59 91.86C366.59 91.86 373.34 90.5 375.7 89.24C377.104 88.5205 378.255 87.3903 379 86C378.645 87.3782 378.016 88.6707 377.15 89.8C375.42 92.01 366.63 93.63 366.63 93.63L366.59 91.86Z" fill="#F28F8F"/>
<path d="M366.92 74.39C366.928 74.6552 367.014 74.9121 367.167 75.1288C367.32 75.3455 367.533 75.5123 367.78 75.6084C368.028 75.7044 368.298 75.7255 368.557 75.669C368.816 75.6125 369.053 75.4809 369.238 75.2906C369.423 75.1003 369.547 74.8597 369.596 74.599C369.645 74.3383 369.616 74.0689 369.513 73.8246C369.41 73.5802 369.237 73.3717 369.016 73.225C368.795 73.0784 368.535 73.0001 368.27 73C367.907 73.0079 367.563 73.1581 367.31 73.4182C367.057 73.6783 366.917 74.0274 366.92 74.39Z" fill="#263238"/>
<path d="M368.35 69.2799L371.25 70.8799C371.453 70.4825 371.496 70.0221 371.37 69.594C371.243 69.166 370.957 68.8029 370.57 68.5799C370.379 68.4751 370.17 68.4101 369.953 68.3887C369.737 68.3673 369.518 68.39 369.31 68.4554C369.103 68.5208 368.911 68.6276 368.746 68.7693C368.581 68.911 368.446 69.0847 368.35 69.2799V69.2799Z" fill="#263238"/>
<path d="M367.2 83.73L364.11 84.89C364.179 85.0955 364.289 85.285 364.433 85.4472C364.577 85.6095 364.752 85.7411 364.948 85.8344C365.144 85.9276 365.357 85.9806 365.573 85.9902C365.79 85.9997 366.007 85.9657 366.21 85.89C366.621 85.7264 366.953 85.4107 367.138 85.0084C367.322 84.6061 367.344 84.1482 367.2 83.73V83.73Z" fill="#F28F8F"/>
<path d="M355.25 70.4099L357.89 68.4099C357.772 68.2265 357.617 68.0694 357.435 67.9485C357.254 67.8275 357.049 67.7452 356.834 67.7068C356.619 67.6683 356.399 67.6745 356.187 67.7249C355.974 67.7753 355.775 67.8689 355.6 67.9999C355.238 68.2759 354.999 68.6829 354.933 69.1334C354.868 69.584 354.981 70.0422 355.25 70.4099Z" fill="#263238"/>
<path d="M356.06 73.9998C356.07 74.2665 356.158 74.5243 356.313 74.7413C356.468 74.9583 356.684 75.1248 356.933 75.2201C357.182 75.3154 357.454 75.3353 357.715 75.2773C357.975 75.2194 358.213 75.086 358.398 74.894C358.583 74.702 358.708 74.4597 358.756 74.1973C358.805 73.935 358.775 73.6641 358.671 73.4185C358.567 73.1729 358.392 72.9634 358.17 72.816C357.948 72.6687 357.687 72.59 357.42 72.5898C357.238 72.5924 357.058 72.631 356.891 72.7034C356.724 72.7758 356.573 72.8806 356.446 73.0117C356.32 73.1427 356.221 73.2975 356.154 73.4671C356.088 73.6367 356.056 73.8178 356.06 73.9998V73.9998Z" fill="#263238"/>
<path d="M362.95 72.72L362.51 80.86L358.26 79.41L362.95 72.72Z" fill="#F28F8F"/>
<path d="M380.21 287.64V286.36C379.35 286.74 377.36 294.36 373.81 297.56C370.99 300.14 367.14 303.11 366.16 305.98C365.18 308.85 371.52 310.61 374.16 310.15C377.22 309.6 382.53 307.45 383.87 305.45C385.21 303.45 385.82 300.5 386.87 299.03C387.92 297.56 390.45 295.93 391.03 294.23C391.35 293.3 390.97 291.23 390.52 289.54C390.07 287.85 389.66 286.22 389.12 286.36C389.12 286.56 389.12 287.36 389.12 287.36C387.843 288.36 386.262 288.893 384.64 288.87C383.37 288.9 380.2 288.64 380.21 287.64Z" fill="#263238"/>
<path d="M355.36 278.15C354.89 278.15 354.51 278.82 353.49 279.93C351.96 281.477 350.182 282.758 348.23 283.72C344.88 285.39 338.36 287.97 335.41 289.3C333.57 290.13 333.66 292.36 335.56 293.62C337.46 294.88 342.06 295.8 347.56 294.57C350.56 293.89 354.48 291.12 356.96 291.27C359.44 291.42 364.07 291.38 365.9 290.12C367.73 288.86 367 286.17 366.48 283.85C365.92 281.33 365.21 277.39 364.38 277.57V278.44C363.3 280.07 357.75 280.73 355.38 279.53L355.36 278.15Z" fill="#263238"/>
<path d="M370.14 182.85C365.514 181.41 361.261 178.973 357.68 175.71C357.68 175.71 360.08 180.21 367.23 184.4L366.23 216.03L370.14 182.85Z" fill="#263238"/>
<path d="M104.73 125.34H107.92C112.67 125.34 117.225 127.227 120.584 130.586C123.943 133.944 125.83 138.5 125.83 143.25V181.25H86.8298V143.25C86.8298 138.5 88.7168 133.944 92.0755 130.586C95.4343 127.227 99.9898 125.34 104.74 125.34H104.73Z" fill="#263238"/>
<path d="M103.45 368.07L100.94 365.84C98.5099 363.62 96.6599 359.84 95.5899 357.3C94.986 355.834 94.6735 354.265 94.6699 352.68V347.68H85.9099V355.81V356C86.3299 357.82 90.3599 362.67 92.6399 365.83C94.1799 367.95 97.0899 370.64 100.57 371.11C103.9 371.61 105.59 370.57 103.45 368.07Z" fill="#FFA8A7"/>
<path d="M128.78 354.73C129.026 354.588 129.24 354.397 129.41 354.17C130.09 353.23 129.55 352.72 129.05 351.97C128.449 350.929 127.947 349.834 127.55 348.7C127.14 347.7 126.61 345.92 126.61 345.92C126.61 345.92 126.61 344.61 126.61 344.08V339.08H117.84V347.43C118.29 349.43 120.07 351.26 121.23 352.81C122.13 354.01 124.45 354.62 125.85 354.92C126.463 355.077 127.1 355.121 127.73 355.05C128.097 355.012 128.454 354.903 128.78 354.73V354.73Z" fill="#FFA8A7"/>
<path d="M87.6499 219.86C80.8499 234.71 87.8999 287.01 87.8999 287.01C87.6899 289.42 84.8999 294.16 83.8999 304.76C82.6899 317.29 85.7999 348.76 85.7999 348.76C87.1384 349.535 88.6459 349.972 90.1916 350.033C91.7372 350.094 93.2744 349.777 94.6699 349.11C94.6699 349.11 103.02 301.73 104.59 289.27C105.96 278.4 108.59 254.5 108.59 254.5L113.82 289.26C112.733 292.767 111.947 296.36 111.47 300C110.76 307.32 117.86 341.44 117.86 341.44C117.86 341.44 120.86 342.55 126.63 341.7C126.63 341.7 129.14 296.43 129.8 287.6C130.91 272.78 129.22 226.48 126.5 217.71L87.6499 219.86Z" fill="#37474F"/>
<path d="M108.61 254.49L110.81 240.7C110.81 240.7 120.15 238.76 124.38 234.78C124.38 234.78 119.94 240.31 113.38 242.12L110.9 252.73L113.12 284.23L108.61 254.49Z" fill="#263238"/>
<path d="M94.7 354.5V353.23C95.54 353.6 97.5 361.06 100.99 364.23C103.76 366.76 107.55 369.68 108.51 372.5C109.47 375.32 103.24 377.05 100.65 376.6C97.65 376.06 92.43 373.94 91.12 371.98C89.81 370.02 89.19 367.12 88.12 365.68C87.05 364.24 84.6 362.64 84 361C83.68 360.09 84.06 358.08 84.5 356.39C84.94 354.7 85.35 353.13 85.88 353.27V354.27C87.1316 355.251 88.6799 355.776 90.27 355.76C91.59 355.74 94.71 355.48 94.7 354.5Z" fill="#263238"/>
<path d="M126.61 345.92C127.06 345.92 127.61 346.62 128.61 347.71C130.114 349.229 131.861 350.487 133.78 351.43C137.07 353.08 143.47 355.61 146.37 356.92C148.18 357.73 148.09 359.92 146.22 361.16C144.35 362.4 139.84 363.3 134.42 362.09C131.42 361.43 127.62 358.7 125.18 358.85C122.74 359 118.18 358.96 116.4 357.72C114.62 356.48 115.32 353.84 115.83 351.57C116.39 349.09 117.08 345.22 117.9 345.39V346.25C118.96 347.85 124.41 348.5 126.73 347.32L126.61 345.92Z" fill="#263238"/>
<path d="M114.15 167.88C116.282 167.692 118.427 168.053 120.38 168.928C122.334 169.804 124.031 171.164 125.31 172.88C128.82 177.46 138.06 196.22 138.06 196.22C138.06 196.22 158.35 194.86 159.32 193.69C160.29 192.52 159.75 190.14 159.48 188.83C159.21 187.52 158.77 184.62 158.48 183.83C157.97 182.4 160.08 182.83 161.32 184.12C162.56 185.41 163.11 188.05 163.73 188.5C164.35 188.95 169.06 183.5 171.34 180.91C173.62 178.32 174.7 176.47 176.23 177.55C177.34 178.33 176.63 179.88 174.99 182.12C174.224 183.076 173.516 184.078 172.87 185.12C172.68 185.53 173.28 185.85 173.52 186.06C173.97 186.46 174.75 187.11 174.81 187.73C174.8 188.064 174.82 188.399 174.87 188.73C175.08 189.48 176.01 189.83 176.27 190.56C176.46 191.09 176.27 191.68 176.35 192.23C176.42 192.58 176.62 192.9 176.68 193.23C176.704 193.583 176.651 193.938 176.525 194.27C176.399 194.601 176.203 194.901 175.95 195.15C174.34 197.06 172.15 197.79 170.04 198.96C168.29 199.96 166.49 200.35 164.47 201.25C162.45 202.15 137.79 208.53 134.1 206.48C130.41 204.43 116.26 182.21 116.26 182.21C110.74 173.06 114.15 167.88 114.15 167.88Z" fill="#FFA8A7"/>
<path d="M99.64 168.28C90.93 168.88 90.32 173.09 88.14 177.69C86.47 181.2 87.02 185.38 88.29 189.04L93.8 206.49C93.8 206.49 90.95 213.37 87.65 219.86C102.89 228.37 121.92 223.86 126.5 217.69C126.7 216.37 125.5 206.08 124.8 199.35C127.48 192.62 128.19 188.35 127.06 183.9C124.95 175.64 116.79 167.59 113.18 167.9L99.64 168.28Z" fill="#407BFF"/>
<path d="M85.8799 133.39L88.5199 137.63C88.2504 137.817 87.9458 137.947 87.6245 138.013C87.3032 138.079 86.9719 138.08 86.6504 138.014C86.329 137.949 86.0242 137.819 85.7542 137.633C85.4843 137.446 85.2549 137.207 85.0799 136.93C84.7354 136.349 84.6264 135.659 84.7751 135.001C84.9239 134.342 85.3193 133.766 85.8799 133.39V133.39Z" fill="#263238"/>
<path d="M119.43 133.23C121.49 134.44 124.03 139.62 123.78 150.49C123.57 159.69 120.58 161.97 119.09 162.62C117.6 163.27 114.7 162.88 111.89 162.41V167.94C111.89 167.94 115.77 172.45 115.53 174.94C115.29 177.43 109.92 178.07 106.29 175.6C103.92 173.906 101.886 171.787 100.29 169.35V156C100.29 156 98.3998 158.53 95.2898 156.47C92.1798 154.41 92.0698 149.31 93.8698 147.47C95.6698 145.63 99.5598 146.22 100.28 148.75C100.28 148.75 104.76 148.91 110.73 145.64C113.052 144.399 115.049 142.629 116.561 140.473C118.072 138.317 119.055 135.836 119.43 133.23Z" fill="#FFA8A7"/>
<path d="M112.47 148.17C112.474 148.397 112.41 148.621 112.288 148.813C112.165 149.005 111.989 149.156 111.781 149.249C111.573 149.341 111.342 149.37 111.117 149.332C110.893 149.294 110.684 149.191 110.518 149.036C110.352 148.88 110.235 148.679 110.182 148.458C110.129 148.237 110.142 148.004 110.22 147.791C110.298 147.577 110.438 147.391 110.621 147.255C110.804 147.12 111.023 147.042 111.25 147.03C111.405 147.024 111.559 147.05 111.705 147.104C111.85 147.158 111.983 147.241 112.096 147.347C112.21 147.453 112.301 147.58 112.365 147.721C112.429 147.862 112.465 148.015 112.47 148.17V148.17Z" fill="#263238"/>
<path d="M113.81 156L116.5 156.86C116.455 157.043 116.373 157.215 116.26 157.365C116.146 157.516 116.003 157.642 115.839 157.735C115.676 157.829 115.495 157.888 115.307 157.91C115.12 157.931 114.93 157.914 114.75 157.86C114.379 157.736 114.073 157.472 113.897 157.123C113.721 156.775 113.69 156.371 113.81 156V156Z" fill="#F28F8F"/>
<path d="M122 144.62L119.62 143C119.718 142.842 119.848 142.705 120 142.598C120.153 142.492 120.326 142.417 120.509 142.38C120.691 142.343 120.88 142.343 121.062 142.381C121.244 142.418 121.417 142.493 121.57 142.6C121.889 142.816 122.111 143.147 122.192 143.523C122.272 143.9 122.203 144.293 122 144.62V144.62Z" fill="#263238"/>
<path d="M121.42 147.34C121.432 147.494 121.414 147.649 121.365 147.795C121.317 147.942 121.239 148.078 121.138 148.194C121.036 148.311 120.913 148.406 120.774 148.474C120.635 148.541 120.484 148.581 120.33 148.59C120.091 148.612 119.852 148.561 119.642 148.446C119.432 148.33 119.262 148.154 119.153 147.941C119.044 147.727 119.001 147.486 119.03 147.248C119.06 147.01 119.159 146.787 119.317 146.606C119.474 146.426 119.682 146.296 119.914 146.235C120.146 146.173 120.39 146.183 120.617 146.262C120.843 146.341 121.04 146.486 121.183 146.678C121.327 146.87 121.409 147.101 121.42 147.34V147.34Z" fill="#263238"/>
<path d="M115.77 146.67L115.95 153.64L119.62 152.51L115.77 146.67Z" fill="#F28F8F"/>
<path d="M111.89 162.41C108.89 162.02 102.89 160.27 101.89 157.86C102.265 159.082 103.009 160.158 104.02 160.94C105.84 162.5 111.89 164.25 111.89 164.25V162.41Z" fill="#F28F8F"/>
<path opacity="0.1" d="M103.54 221.51C99.3899 220.51 95.1799 215.99 97.0799 211.56C97.6215 210.316 98.5512 209.281 99.7299 208.61C100.165 208.363 100.666 208.258 101.163 208.312C101.661 208.366 102.128 208.575 102.5 208.91C100.5 207.6 97.0699 201.23 96.6099 198.91L94.2599 191.07C94.0412 189.277 94.2014 187.457 94.7299 185.73L88.5999 178.65L87.4699 179.43C86.4699 182.5 87.2299 185.97 88.2899 189.04L93.7999 206.49C93.7999 206.49 90.9499 213.37 87.6499 219.86C92.6089 222.523 98.0812 224.092 103.698 224.461C109.314 224.83 114.945 223.991 120.21 222C114.672 222.889 109.016 222.722 103.54 221.51V221.51Z" fill="black"/>
<path d="M175.52 395.49L155.7 384.05C153.64 382.83 152.49 379.77 152.49 375.83L152.41 288.9L172.41 300.43L172.33 387.64C172.3 391.48 173.54 394.22 175.52 395.49Z" fill="#407BFF"/>
<path opacity="0.9" d="M175.52 395.49L155.7 384.05C153.64 382.83 152.49 379.77 152.49 375.83L152.41 288.9L172.41 300.43L172.33 387.64C172.3 391.48 173.54 394.22 175.52 395.49Z" fill="#FFCC79"/>
<path d="M175.66 395.57L175.52 395.49C173.52 394.22 172.3 391.49 172.3 387.64L172.38 300.43L152.38 288.9L169.65 278.83L169.81 278.74L172.26 277.32L175.02 275.4L175.13 275.33L175.24 275.25C175.39 275.15 175.51 275.04 175.64 274.94L175.8 274.83L176.28 274.47L176.74 274.11C176.867 273.99 176.997 273.88 177.13 273.78L177.28 273.66L177.42 273.54C177.68 273.34 177.93 273.12 178.17 272.91L178.55 272.56L178.69 272.41C179.16 271.98 179.63 271.51 180.06 271.04L180.22 270.89C180.4 270.697 180.57 270.507 180.73 270.32C180.815 270.23 180.892 270.133 180.96 270.03C181.041 269.954 181.114 269.87 181.18 269.78V269.71L181.24 269.62L181.35 269.5L181.88 268.83C182.02 268.63 182.17 268.42 182.3 268.21L182.41 268.08V268.02C182.6 267.75 182.77 267.48 182.94 267.21C183.11 266.94 183.23 266.74 183.37 266.5L183.42 266.41C183.53 266.19 183.65 265.99 183.76 265.77L183.93 265.46C184.07 265.19 184.2 264.92 184.32 264.64L184.54 264.13C184.628 263.963 184.701 263.789 184.76 263.61C184.834 263.469 184.894 263.322 184.94 263.17C184.99 263.03 185.06 262.87 185.11 262.73C185.24 262.38 185.35 262.02 185.47 261.65C185.56 261.36 185.66 261.05 185.74 260.74C185.74 260.74 185.74 260.66 185.74 260.61C185.84 260.28 185.91 259.94 185.98 259.61V259.5C185.98 259.24 186.1 258.97 186.15 258.69C186.22 258.31 186.3 257.87 186.35 257.46V257.25C186.35 257.16 186.35 257.07 186.35 256.97C186.355 256.933 186.355 256.896 186.35 256.86C186.345 256.767 186.345 256.673 186.35 256.58C186.4 256.09 186.44 255.58 186.48 255.14V254.92V254.37C186.48 253.65 186.5 252.92 186.54 252.18V252C186.54 251.79 186.54 251.6 186.54 251.38V250.84C186.54 250.6 186.54 250.34 186.54 250.11C186.545 250.047 186.545 249.983 186.54 249.92C186.545 249.857 186.545 249.793 186.54 249.73V249.46C186.54 249.09 186.49 248.73 186.46 248.4V248.34C186.46 248.02 186.39 247.72 186.36 247.43C186.179 246.078 185.902 244.742 185.53 243.43C185.3 242.63 185.05 241.9 184.83 241.21C184.246 239.643 183.837 238.017 183.61 236.36C183.61 236.03 183.53 235.69 183.5 235.36C183.47 235.03 183.5 234.59 183.43 234.18V234C183.42 233.904 183.42 233.806 183.43 233.71C183.411 233.5 183.411 233.29 183.43 233.08C183.43 228.47 186.23 223.08 189.7 221.08C190.044 220.877 190.414 220.722 190.8 220.62C191.048 220.552 191.303 220.512 191.56 220.5C191.806 220.469 192.054 220.469 192.3 220.5C192.419 220.516 192.536 220.543 192.65 220.58C192.999 220.684 193.335 220.828 193.65 221.01L214 232.6C214.118 232.666 214.231 232.74 214.34 232.82C215.52 233.72 216.18 235.43 216.18 237.65C216.18 237.95 216.18 238.26 216.12 238.74V238.87C215.982 241.756 215.519 244.618 214.74 247.4C214.57 248.11 214.4 248.82 214.24 249.57C214.17 249.82 214.12 250.08 214.07 250.33C213.89 251.09 213.73 251.88 213.6 252.73C213.55 253 213.51 253.29 213.47 253.57L227.47 245.64L247.47 257.17V280.11C247.47 286.55 246.98 290.85 245.98 293.25C245.28 294.91 244.21 295.95 241.74 297.37C239.801 298.567 237.578 299.226 235.3 299.28C234.58 299.28 233.9 299.41 233.21 299.5L232.4 299.64C232.14 299.69 231.89 299.74 231.62 299.81C231.14 299.92 230.62 300.08 230.14 300.24L229.74 300.39C228.985 300.682 228.248 301.016 227.53 301.39C227.438 301.427 227.351 301.474 227.27 301.53H227.2L227.08 301.59C226.81 301.71 226.5 301.86 226.18 302.04C223.216 303.884 220.698 306.364 218.81 309.3C217.809 310.787 216.93 312.352 216.18 313.98C215.465 315.52 214.857 317.107 214.36 318.73L215.46 317.56C216.5 316.389 217.609 315.281 218.78 314.24C219.756 313.395 220.811 312.645 221.93 312C223.53 311.08 224.81 310.34 225.76 310.93L245.58 322.74L245.81 322.91C245.865 322.962 245.915 323.019 245.96 323.08C245.996 323.104 246.024 323.139 246.04 323.18C246.098 323.244 246.148 323.314 246.19 323.39C246.19 323.39 246.19 323.39 246.19 323.44C246.251 323.535 246.305 323.636 246.35 323.74C246.86 324.82 247.2 326.74 247.35 329.96C247.35 330.31 247.35 330.68 247.35 331.08C247.35 332.08 247.35 333.22 247.35 334.47V357.4L182.05 395.1C180.988 395.752 179.79 396.149 178.55 396.26C178.157 396.295 177.762 396.295 177.37 396.26C177.24 396.254 177.112 396.227 176.99 396.18C176.519 396.043 176.071 395.837 175.66 395.57V395.57Z" fill="#FFE0B0"/>
<path opacity="0.1" d="M225.75 310.93L245.55 322.74C244.61 322.14 243.32 322.9 241.72 323.82C240.602 324.462 239.551 325.212 238.58 326.06C237.401 327.092 236.289 328.197 235.25 329.37C232.962 332.023 230.329 334.357 227.42 336.31C227.03 336.59 226.57 336.88 226.14 337.13C218.89 341.32 212.99 336.86 212.99 327.19C213.026 324.311 213.488 321.454 214.36 318.71C214.73 318.32 215.08 317.93 215.44 317.56C216.481 316.389 217.589 315.281 218.76 314.24C219.733 313.395 220.784 312.645 221.9 312C223.51 311.08 224.81 310.34 225.75 310.93Z" fill="black"/>
<path opacity="0.1" d="M213.41 253.58L227.48 245.64L247.48 257.18L230.29 267.1L225.12 269.8H225.06H225.01L224.64 269.96L224.45 270.03L223.59 270.38L223.11 270.55L222.98 270.6C222.7 270.69 222.43 270.79 222.17 270.86L221.61 271.01C221.32 271.09 221.05 271.14 220.78 271.19H220.69L220.32 271.25C219.988 271.295 219.654 271.322 219.32 271.33H219C218.61 271.325 218.222 271.285 217.84 271.21L217.64 271.16C217.345 271.08 217.058 270.976 216.78 270.85C216.697 270.822 216.62 270.782 216.55 270.73V270.73C216.299 270.586 216.059 270.426 215.83 270.25H215.78L215.61 270.1C215.351 269.86 215.116 269.596 214.91 269.31L214.81 269.19C214.27 268.358 213.871 267.442 213.63 266.48L213.58 266.31C213.45 265.8 213.36 265.31 213.27 264.76V264.49C213.18 263.89 213.11 263.25 213.07 262.6C213.01 261.74 212.99 260.99 212.99 260.24C212.962 258.012 213.102 255.786 213.41 253.58V253.58Z" fill="black"/>
<path opacity="0.1" d="M172.38 300.43L152.38 288.9L169.65 278.83L169.8 278.74H169.86L172.31 277.32L175.08 275.4L175.18 275.33L175.29 275.25C175.44 275.15 175.56 275.04 175.69 274.94L175.84 274.83L176.33 274.47L176.79 274.11C176.917 273.99 177.047 273.88 177.18 273.78L177.33 273.66L177.47 273.54C177.73 273.34 177.98 273.12 178.22 272.91L178.6 272.56L178.74 272.41C179.21 271.98 179.68 271.51 180.11 271.04L180.27 270.89C180.45 270.697 180.62 270.507 180.78 270.32C180.865 270.23 180.942 270.133 181.01 270.03C181.09 269.95 181.15 269.86 181.22 269.78L181.28 269.71L181.35 269.63L181.45 269.5C181.63 269.28 181.82 269.06 181.98 268.83L182.41 268.22L182.51 268.08V268.02C182.7 267.75 182.87 267.48 183.04 267.21C183.21 266.94 183.33 266.74 183.47 266.5V266.4C183.59 266.19 183.71 265.99 183.82 265.77C183.886 265.67 183.946 265.567 184 265.46C184.12 265.18 184.26 264.91 184.38 264.64L184.6 264.13C184.68 263.97 184.75 263.8 184.83 263.62C184.91 263.44 184.95 263.33 185 263.17C185.05 263.01 185.12 262.87 185.17 262.73C185.3 262.37 185.41 262.03 185.53 261.65C185.62 261.36 185.72 261.05 185.8 260.74C185.8 260.74 185.8 260.66 185.8 260.61C185.88 260.29 185.97 259.94 186.04 259.61V259.51C186.09 259.23 186.15 258.97 186.2 258.69C186.27 258.31 186.35 257.87 186.4 257.46V257.25C186.4 257.17 186.4 257.07 186.4 256.97C186.405 256.933 186.405 256.896 186.4 256.86C186.4 256.77 186.4 256.67 186.4 256.57C186.46 256.07 186.5 255.57 186.53 255.14V254.92C186.53 254.73 186.53 254.57 186.53 254.37C186.53 253.65 186.55 252.92 186.59 252.18V252C186.59 251.79 186.59 251.6 186.59 251.38V250.84C186.59 250.6 186.59 250.34 186.59 250.1V249.92C186.595 249.857 186.595 249.793 186.59 249.73V249.46C186.59 249.09 186.54 248.73 186.51 248.4V248.33L186.42 247.43C186.239 246.078 185.962 244.742 185.59 243.43C185.37 242.62 185.12 241.89 184.89 241.21C184.306 239.643 183.897 238.017 183.67 236.36C183.67 236.03 183.59 235.69 183.56 235.36C183.53 235.03 183.56 234.6 183.5 234.18V234C183.5 233.9 183.5 233.8 183.5 233.7C183.481 233.49 183.481 233.279 183.5 233.07C183.5 228.46 186.3 223.07 189.77 221.07C190.114 220.867 190.484 220.712 190.87 220.61C191.118 220.542 191.373 220.502 191.63 220.49C191.875 220.45 192.125 220.45 192.37 220.49C192.489 220.506 192.606 220.533 192.72 220.57C193.069 220.674 193.405 220.818 193.72 221L214 232.6C213.575 232.355 213.099 232.211 212.61 232.18C212.254 232.166 211.898 232.197 211.55 232.27C210.968 232.4 210.411 232.623 209.9 232.93C209.289 233.293 208.722 233.726 208.21 234.22C206.812 235.598 205.7 237.24 204.94 239.05C204.76 239.44 204.62 239.84 204.47 240.25C204.28 240.824 204.123 241.408 204 242C203.781 242.951 203.667 243.924 203.66 244.9C203.66 245.17 203.66 245.48 203.66 245.82V245.92C203.701 247.541 203.933 249.152 204.35 250.72C204.41 250.98 204.49 251.23 204.56 251.48C204.72 251.99 204.88 252.48 205.04 252.98C205.27 253.67 205.52 254.39 205.75 255.2C205.83 255.48 205.9 255.76 205.97 256.04C206.04 256.32 206.11 256.63 206.19 256.94C206.412 257.983 206.576 259.038 206.68 260.1V260.15C206.67 260.326 206.67 260.503 206.68 260.68V261.22V261.36V261.5C206.68 261.62 206.68 261.74 206.68 261.87C206.69 261.993 206.69 262.117 206.68 262.24C206.68 262.36 206.68 262.49 206.68 262.61V263.16C206.68 263.35 206.68 263.55 206.68 263.77V263.86C206.68 264.23 206.68 264.6 206.68 264.97C206.68 265.34 206.68 265.7 206.63 266.07C206.63 266.25 206.63 266.44 206.63 266.61V266.83C206.63 267.3 206.56 267.78 206.5 268.26C206.5 268.49 206.44 268.71 206.41 268.95V269.14L206.2 270.39L206.02 271.2V271.3C206.02 271.49 205.94 271.68 205.88 271.88C205.82 272.08 205.78 272.26 205.73 272.43C205.68 272.6 205.73 272.59 205.68 272.67C205.63 272.75 205.53 273.12 205.47 273.35C205.36 273.71 205.24 274.07 205.11 274.42C204.98 274.77 204.88 275.02 204.77 275.31C204.66 275.6 204.48 276 204.33 276.31L203.92 277.15C203.84 277.3 203.76 277.47 203.67 277.62L203.42 278.09L203.36 278.19C203.297 278.314 203.227 278.434 203.15 278.55L203.08 278.67C203.037 278.748 202.987 278.821 202.93 278.89C202.76 279.17 202.59 279.44 202.41 279.71V279.77L202.31 279.91C202.243 280.015 202.17 280.115 202.09 280.21C202.026 280.314 201.956 280.414 201.88 280.51L201.69 280.76C201.584 280.909 201.471 281.053 201.35 281.19L201.25 281.32L201.14 281.47L200.91 281.74L200.84 281.82C200.84 281.88 200.74 281.95 200.68 282.01L200.42 282.3C200.35 282.39 200.26 282.48 200.17 282.58L200.02 282.73C199.585 283.211 199.124 283.669 198.64 284.1L198.5 284.25L198.11 284.6C197.88 284.82 197.63 285.03 197.37 285.24L197.23 285.35L197.16 285.42L197.09 285.48L196.7 285.8L195.7 286.52L195.55 286.64L195.15 286.94L194.93 287.09L192.16 289.01L189.71 290.43L189.63 290.49L189.47 290.57L172.38 300.43Z" fill="black"/>
<path d="M248.67 300.52L227.38 288.23L227.85 287.58L227.9 287.52L228.13 287.19C228.47 286.69 228.79 286.19 229.13 285.66L229.22 285.5C229.53 284.95 229.83 284.35 230.12 283.72C230.18 283.57 230.25 283.42 230.31 283.26V283.16C230.46 282.8 230.64 282.37 230.81 281.89C230.89 281.68 230.96 281.47 231.04 281.24V281.11C231.16 280.75 231.28 280.39 231.38 280.02C231.48 279.65 231.55 279.43 231.63 279.12C231.71 278.81 231.79 278.45 231.88 278.12C231.97 277.79 232.02 277.46 232.08 277.12C232.14 276.78 232.21 276.49 232.26 276.18V276.03C232.32 275.73 232.37 275.41 232.42 275.09C232.47 274.77 232.47 274.72 232.5 274.54V274.34C232.72 272.74 232.85 271.06 232.96 269.24V269.04L233.07 264.13V240.78L254.28 253.2V276.56L254.17 281.48V281.67C254.08 283.49 253.94 285.17 253.73 286.76V286.97C253.73 287.16 253.68 287.34 253.65 287.53C253.62 287.72 253.56 288.16 253.5 288.46V288.6C253.45 288.93 253.39 289.23 253.33 289.55C253.27 289.87 253.19 290.2 253.11 290.55C253.03 290.9 252.96 291.23 252.88 291.55C252.8 291.87 252.71 292.16 252.63 292.45C252.55 292.74 252.41 293.18 252.28 293.53V293.68C252.21 293.89 252.13 294.12 252.05 294.33C251.89 294.79 251.7 295.23 251.55 295.6L251.5 295.69L251.32 296.15C251.03 296.77 250.73 297.37 250.42 297.94L250.33 298.1C250.04 298.6 249.72 299.1 249.38 299.63C249.309 299.74 249.228 299.843 249.14 299.94V300.01L248.67 300.52Z" fill="#407BFF"/>
<path d="M233.08 341.13L233.14 321.85L232.84 322.16C233.72 321.16 234.53 320.35 235.41 319.49L235.56 319.35L235.82 319.1L236 319C237.681 317.38 239.547 315.964 241.56 314.78L241.78 314.67H241.83L241.98 314.58C242.46 314.31 242.98 314.07 243.41 313.84C243.54 313.77 243.68 313.72 243.81 313.66L243.95 313.59C244.27 313.47 244.61 313.32 244.95 313.21C245.13 313.13 245.3 313.09 245.46 313.03H245.54C245.83 312.96 246.11 312.88 246.37 312.83C246.63 312.78 246.77 312.75 246.96 312.73C247.206 312.71 247.454 312.71 247.7 312.73C247.886 312.72 248.073 312.72 248.26 312.73C248.479 312.749 248.697 312.785 248.91 312.84H249L249.41 312.94C249.619 313.013 249.82 313.107 250.01 313.22C250.224 313.324 250.428 313.448 250.62 313.59C250.851 313.755 251.069 313.939 251.27 314.14C251.384 314.26 251.491 314.387 251.59 314.52L251.66 314.62L251.72 314.69C251.824 314.821 251.92 314.958 252.01 315.1C252.137 315.292 252.251 315.492 252.35 315.7C252.45 315.89 252.54 316.06 252.62 316.25C252.7 316.44 252.82 316.73 252.92 316.99C253.02 317.25 253.05 317.37 253.11 317.57C253.17 317.77 253.28 318.13 253.36 318.43L253.48 318.93V319.01C253.55 319.34 253.63 319.68 253.69 320.01C253.69 320.1 253.69 320.2 253.69 320.3V320.42C253.91 321.83 254.07 323.42 254.18 325.29V325.37L254.29 329.83V353.51L233.08 341.13Z" fill="#407BFF"/>
<path d="M221.82 328.12L200.89 316C199.5 315.26 198.69 313.32 198.69 310.75C198.778 307.702 199.736 304.742 201.45 302.22L201.85 301.66C201.75 301.82 201.63 301.98 201.53 302.13L222.81 314.42C222.754 314.489 222.704 314.563 222.66 314.64C220.94 317.156 219.982 320.114 219.9 323.16C219.9 325.57 220.64 327.29 221.82 328.12Z" fill="#407BFF"/>
<path d="M248.67 300.52L227.38 288.23L227.85 287.58L227.9 287.52L228.13 287.19C228.47 286.69 228.79 286.19 229.13 285.66L229.22 285.5C229.53 284.95 229.83 284.35 230.12 283.72C230.18 283.57 230.25 283.42 230.31 283.26V283.16C230.46 282.8 230.64 282.37 230.81 281.89C230.89 281.68 230.96 281.47 231.04 281.24V281.11C231.16 280.75 231.28 280.39 231.38 280.02C231.48 279.65 231.55 279.43 231.63 279.12C231.71 278.81 231.79 278.45 231.88 278.12C231.97 277.79 232.02 277.46 232.08 277.12C232.14 276.78 232.21 276.49 232.26 276.18V276.03C232.32 275.73 232.37 275.41 232.42 275.09C232.47 274.77 232.47 274.72 232.5 274.54V274.34C232.72 272.74 232.85 271.06 232.96 269.24V269.04L233.07 264.13V240.78L254.28 253.2V276.56L254.17 281.48V281.67C254.08 283.49 253.94 285.17 253.73 286.76V286.97C253.73 287.16 253.68 287.34 253.65 287.53C253.62 287.72 253.56 288.16 253.5 288.46V288.6C253.45 288.93 253.39 289.23 253.33 289.55C253.27 289.87 253.19 290.2 253.11 290.55C253.03 290.9 252.96 291.23 252.88 291.55C252.8 291.87 252.71 292.16 252.63 292.45C252.55 292.74 252.41 293.18 252.28 293.53V293.68C252.21 293.89 252.13 294.12 252.05 294.33C251.89 294.79 251.7 295.23 251.55 295.6L251.5 295.69L251.32 296.15C251.03 296.77 250.73 297.37 250.42 297.94L250.33 298.1C250.04 298.6 249.72 299.1 249.38 299.63C249.309 299.74 249.228 299.843 249.14 299.94V300.01L248.67 300.52Z" fill="#97ABE9"/>
<path d="M233.08 341.13L233.14 321.85L232.84 322.16C233.72 321.16 234.53 320.35 235.41 319.49L235.56 319.35L235.82 319.1L236 319C237.681 317.38 239.547 315.964 241.56 314.78L241.78 314.67H241.83L241.98 314.58C242.46 314.31 242.98 314.07 243.41 313.84C243.54 313.77 243.68 313.72 243.81 313.66L243.95 313.59C244.27 313.47 244.61 313.32 244.95 313.21C245.13 313.13 245.3 313.09 245.46 313.03H245.54C245.83 312.96 246.11 312.88 246.37 312.83C246.63 312.78 246.77 312.75 246.96 312.73C247.206 312.71 247.454 312.71 247.7 312.73C247.886 312.72 248.073 312.72 248.26 312.73C248.479 312.749 248.697 312.785 248.91 312.84H249L249.41 312.94C249.619 313.013 249.82 313.107 250.01 313.22C250.224 313.324 250.428 313.448 250.62 313.59C250.851 313.755 251.069 313.939 251.27 314.14C251.384 314.26 251.491 314.387 251.59 314.52L251.66 314.62L251.72 314.69C251.824 314.821 251.92 314.958 252.01 315.1C252.137 315.292 252.251 315.492 252.35 315.7C252.45 315.89 252.54 316.06 252.62 316.25C252.7 316.44 252.82 316.73 252.92 316.99C253.02 317.25 253.05 317.37 253.11 317.57C253.17 317.77 253.28 318.13 253.36 318.43L253.48 318.93V319.01C253.55 319.34 253.63 319.68 253.69 320.01C253.69 320.1 253.69 320.2 253.69 320.3V320.42C253.91 321.83 254.07 323.42 254.18 325.29V325.37L254.29 329.83V353.51L233.08 341.13Z" fill="#365AAA"/>
<path d="M221.82 328.12L200.89 316C199.5 315.26 198.69 313.32 198.69 310.75C198.778 307.702 199.736 304.742 201.45 302.22L201.85 301.66C201.75 301.82 201.63 301.98 201.53 302.13L222.81 314.42C222.754 314.489 222.704 314.563 222.66 314.64C220.94 317.156 219.982 320.114 219.9 323.16C219.9 325.57 220.64 327.29 221.82 328.12Z" fill="#97ABE9"/>
<path d="M222 328.19L221.86 328.11C220.68 327.28 219.94 325.56 219.94 323.19C220.022 320.144 220.98 317.186 222.7 314.67C222.744 314.593 222.794 314.519 222.85 314.45L201.57 302.16C201.67 302.01 201.79 301.85 201.89 301.69C202.16 301.34 202.44 301.01 202.73 300.69C202.865 300.533 203.009 300.383 203.16 300.24C203.307 300.077 203.468 299.926 203.64 299.79C204.051 299.408 204.504 299.072 204.99 298.79V298.79C205.168 298.687 205.351 298.593 205.54 298.51L205.78 298.41H205.84C206.724 297.939 207.66 297.573 208.63 297.32L208.97 297.24C209.847 297.061 210.736 296.944 211.63 296.89C214.779 296.78 217.845 295.846 220.52 294.18L221.22 293.75C221.43 293.63 221.62 293.5 221.82 293.36C222.02 293.22 222.13 293.17 222.28 293.07H222.34L223.08 292.53L223.78 291.98L223.91 291.88L224.02 291.78L224.1 291.71L224.4 291.45C224.49 291.37 224.6 291.29 224.69 291.2C224.78 291.11 225.05 290.88 225.23 290.7L225.48 290.45L225.59 290.33L226.03 289.87C226.21 289.68 226.39 289.48 226.56 289.28L226.63 289.2L226.92 288.86C227.05 288.68 227.21 288.5 227.34 288.31L248.64 300.61L249.02 300.09V300.02C249.108 299.923 249.189 299.82 249.26 299.71C249.6 299.19 249.92 298.71 250.21 298.18L250.3 298.02C250.61 297.45 250.91 296.85 251.2 296.23L251.38 295.77L251.43 295.68C251.58 295.31 251.77 294.87 251.93 294.41C252.01 294.2 252.09 293.97 252.16 293.76V293.61C252.29 293.26 252.4 292.9 252.51 292.53C252.62 292.16 252.67 291.94 252.76 291.63C252.85 291.32 252.92 290.96 252.99 290.63C253.06 290.3 253.14 289.98 253.21 289.63C253.28 289.28 253.33 289.01 253.38 288.68V288.54C253.44 288.24 253.48 287.93 253.53 287.61C253.58 287.29 253.58 287.24 253.61 287.05V286.84C253.82 285.25 253.96 283.57 254.05 281.75V281.56L254.16 276.64V253.21L232.95 240.79L241.65 235.79L246.14 233.2L250.14 230.88L251.7 230C252.11 229.8 252.48 229.58 252.86 229.4C254.187 228.672 255.588 228.089 257.04 227.66L257.48 227.55C257.931 227.442 258.397 227.408 258.86 227.45C259.12 227.45 259.26 227.68 259.46 227.8L280.92 240C281.126 240.135 281.303 240.309 281.441 240.514C281.578 240.718 281.673 240.948 281.72 241.19C281.72 241.36 281.81 241.56 281.85 241.77C281.89 241.98 281.91 242.22 281.94 242.48V242.88C281.94 243.16 281.94 243.46 281.94 243.79C281.94 244.12 281.94 244.47 281.94 244.85C281.94 245.8 281.94 246.66 281.82 247.48C281.82 247.69 281.82 247.89 281.82 248.09C281.82 248.29 281.82 248.48 281.75 248.68C281.68 248.88 281.75 249.06 281.66 249.26C281.57 249.46 281.61 249.64 281.58 249.83C281.51 250.2 281.45 250.56 281.38 250.94C281.31 251.32 281.22 251.67 281.15 252.03C281.14 252.056 281.14 252.084 281.15 252.11C282.87 248.261 283.799 244.105 283.88 239.89C283.88 239.3 283.88 238.71 283.82 238.21C283.719 235.003 283.105 231.832 282 228.82C281.05 226.324 280.585 223.67 280.63 221C280.63 216.06 280.63 213.34 291.11 207.31L308.22 197.51L329.5 209.8V296.86C329.5 304.11 325.08 312.56 319.65 315.7L254.35 353.4V329.74L254.24 325.28V325.2C254.13 323.35 253.97 321.74 253.75 320.33V320.21C253.75 320.11 253.75 320.01 253.75 319.92C253.69 319.56 253.61 319.22 253.54 318.92V318.84L253.42 318.34C253.34 318.04 253.27 317.76 253.17 317.48C253.07 317.2 253.05 317.09 252.98 316.9C252.91 316.71 252.79 316.39 252.68 316.16C252.57 315.93 252.51 315.8 252.41 315.61C252.311 315.402 252.197 315.202 252.07 315.01C251.98 314.868 251.883 314.731 251.78 314.6L251.72 314.53L251.65 314.43C251.551 314.297 251.444 314.17 251.33 314.05C251.129 313.849 250.911 313.665 250.68 313.5C250.488 313.358 250.284 313.234 250.07 313.13C249.88 313.017 249.679 312.923 249.47 312.85L249.06 312.75H248.97C248.757 312.695 248.539 312.659 248.32 312.64C248.133 312.63 247.946 312.63 247.76 312.64C247.514 312.621 247.266 312.621 247.02 312.64C246.83 312.64 246.64 312.7 246.43 312.74C246.22 312.78 245.89 312.87 245.6 312.94H245.52C245.36 313 245.19 313.04 245.01 313.12C244.67 313.23 244.33 313.38 244.01 313.5L243.87 313.57C243.74 313.63 243.6 313.68 243.47 313.75C242.99 313.98 242.52 314.22 242.04 314.49L241.89 314.58H241.84L241.62 314.69C239.582 315.898 237.695 317.345 236 319L235.87 319.12L235.61 319.37L235.46 319.51C234.58 320.37 233.77 321.23 232.89 322.18C231.176 324.187 229.198 325.953 227.01 327.43V327.43C226.75 327.61 226.52 327.78 226.3 327.9C225.715 328.262 225.061 328.497 224.38 328.59C223.96 328.67 223.529 328.67 223.11 328.59C222.719 328.524 222.343 328.389 222 328.19V328.19Z" fill="#407BFF"/>
<path d="M254.36 253.2L233.15 240.78L241.85 235.78L246.34 233.19L250.34 230.87L251.9 229.99C252.31 229.79 252.68 229.57 253.06 229.39C254.387 228.662 255.788 228.079 257.24 227.65L257.68 227.54C258.131 227.432 258.598 227.398 259.06 227.44C259.32 227.44 259.46 227.67 259.66 227.79L280.86 240C280.785 239.958 280.704 239.928 280.62 239.91C280.518 239.859 280.404 239.835 280.29 239.84V239.84C279.958 239.79 279.621 239.79 279.29 239.84C279.008 239.874 278.73 239.934 278.46 240.02C276.036 240.81 273.719 241.895 271.56 243.25L267.56 245.57L263.06 248.17L254.36 253.2Z" fill="#97ABE9"/>
<path d="M281.8 276.93C279.8 274.93 278.8 271.56 278.8 267.49C278.79 266.906 278.813 266.321 278.87 265.74C278.87 265.74 278.87 265.74 278.87 265.67C278.87 264.67 278.97 263.74 279.08 262.67C279.08 262.37 279.15 262.08 279.19 261.78C279.26 261.16 279.35 260.55 279.45 259.98C279.55 259.41 279.63 258.92 279.73 258.41C279.79 258.14 279.84 257.88 279.89 257.63C280.13 256.52 280.38 255.41 280.67 254.22C280.86 253.47 281.03 252.75 281.19 252.03C282.899 248.206 283.821 244.078 283.9 239.89C283.9 239.3 283.9 238.72 283.83 238.22C283.735 235.007 283.124 231.829 282.02 228.81C281.074 226.317 280.609 223.666 280.65 221C280.65 216.07 280.65 213.35 291.13 207.3L308.24 197.51L329.52 209.8L312.34 219.72C301.86 225.72 301.86 228.49 301.86 233.42C301.807 236.091 302.272 238.746 303.23 241.24C304.325 244.258 304.936 247.431 305.04 250.64C305.04 251.14 305.11 251.72 305.1 252.3C305.1 261.97 299.21 273.25 291.94 277.43C288 279.72 284.31 279.53 281.8 276.93Z" fill="#365AAA"/>
<path d="M222.81 314.46L201.53 302.17C201.63 302.02 201.75 301.86 201.85 301.7C202.12 301.35 202.4 301.02 202.69 300.7C202.826 300.543 202.969 300.393 203.12 300.25C203.267 300.087 203.428 299.936 203.6 299.8C204.012 299.418 204.464 299.082 204.95 298.8V298.8C205.128 298.697 205.312 298.603 205.5 298.52L205.74 298.43H205.8C206.684 297.959 207.621 297.593 208.59 297.34L208.93 297.26C209.807 297.081 210.696 296.965 211.59 296.91C214.739 296.8 217.805 295.866 220.48 294.2L221.18 293.77C221.39 293.65 221.58 293.52 221.78 293.38C221.936 293.289 222.086 293.189 222.23 293.08V293.08H222.29L223.03 292.54L223.74 291.99L223.86 291.89L223.97 291.79L224.06 291.72L224.35 291.46C224.44 291.38 224.55 291.3 224.64 291.21C224.73 291.12 225 290.89 225.18 290.71L225.43 290.46C225.465 290.418 225.505 290.381 225.55 290.35L225.98 289.88C226.16 289.69 226.34 289.49 226.51 289.29L226.58 289.21L226.87 288.87C227 288.69 227.16 288.51 227.29 288.32L248.6 300.62L248.51 300.72C248.37 300.92 248.22 301.11 248.07 301.31C247.92 301.51 247.88 301.52 247.79 301.63L247.71 301.71C247.39 302.08 247.07 302.43 246.71 302.76L246.51 302.96C246.46 303.02 246.4 303.07 246.36 303.13L245.81 303.63L245.23 304.13L245.15 304.21L244.9 304.4C244.44 304.79 243.96 305.15 243.47 305.5C243.47 305.5 243.41 305.5 243.36 305.57C242.8 305.97 242.219 306.34 241.62 306.68L241 307L240.27 307.37C238.644 308.216 236.891 308.794 235.08 309.08L234.16 309.2H233.7L232.85 309.28C231.584 309.325 230.329 309.54 229.12 309.92C228.75 310.04 228.36 310.19 227.93 310.37C227.66 310.49 227.36 310.63 227.06 310.79L226.81 310.89C226.621 310.971 226.437 311.065 226.26 311.17C225.772 311.462 225.31 311.797 224.88 312.17C224.726 312.299 224.579 312.436 224.44 312.58C224.29 312.72 224.14 312.88 224 313.04C223.812 313.226 223.638 313.427 223.48 313.64C223.369 313.767 223.265 313.901 223.17 314.04C223 314.23 222.89 314.34 222.81 314.46Z" fill="#97ABE9"/>
<path d="M287.84 268.59L266.51 256.27C266.41 256.219 266.313 256.162 266.22 256.1C265.03 255.2 264.48 253.33 264.48 251.1C264.457 250.74 264.457 250.379 264.48 250.02V249.89C264.631 247.004 265.097 244.144 265.87 241.36C266.21 239.93 266.57 238.36 266.87 236.75L271.49 234.08L271.67 233.98L271.78 233.92L275.42 231.97L275.52 231.92C276.664 231.35 277.847 230.862 279.06 230.46H279.2L279.67 230.31C279.856 230.249 280.047 230.202 280.24 230.17H280.35C280.57 230.11 280.8 230.05 281.03 230.01L281.63 229.93C281.86 229.93 282.1 229.93 282.33 229.93C282.56 229.93 282.69 229.93 282.86 229.93C283.098 229.934 283.336 229.961 283.57 230.01H283.66L284 230.07C284.276 230.144 284.547 230.237 284.81 230.35L285.05 230.45C285.764 230.83 286.378 231.375 286.84 232.04C286.881 232.097 286.918 232.157 286.95 232.22C287.168 232.534 287.356 232.869 287.51 233.22C287.51 233.29 287.58 233.37 287.61 233.43V233.5C287.76 233.87 287.89 234.27 288.02 234.69L288.1 235.01C288.232 235.499 288.333 235.997 288.4 236.5L288.45 236.73C288.644 238.151 288.734 239.585 288.72 241.02C288.679 245.373 288.074 249.702 286.92 253.9C286.156 256.689 285.693 259.552 285.54 262.44V262.56C285.54 263.02 285.49 263.35 285.49 263.65C285.49 265.88 286.14 267.59 287.32 268.49L287.84 268.59Z" fill="#407BFF"/>
<path d="M254.35 244L233.15 231.59V208.65C233.079 205.284 233.293 201.919 233.79 198.59C234.53 194.5 235.65 193.26 238.87 191.4C240.816 190.202 243.045 189.543 245.33 189.49C246.08 189.43 246.79 189.36 247.51 189.25L248.08 189.15L249.08 188.94C249.49 188.82 249.93 188.7 250.39 188.54C250.58 188.485 250.767 188.418 250.95 188.34C251.682 188.072 252.397 187.758 253.09 187.4L253.18 187.35C253.612 187.176 254.03 186.968 254.43 186.73C258.37 184.46 262.07 179.99 264.57 174.49C264.74 174.13 264.88 173.77 265.03 173.42L264.5 173.95C265.18 173.28 265.84 172.56 266.5 171.82C268.792 169.18 271.421 166.854 274.32 164.9C274.729 164.592 275.16 164.315 275.61 164.07C282.86 159.87 288.77 164.34 288.77 174C288.686 178.466 287.664 182.865 285.77 186.91C283.26 192.42 279.56 196.91 275.62 199.16C275.217 199.391 274.8 199.595 274.37 199.77C274.34 199.779 274.309 199.779 274.28 199.77C273.587 200.145 272.872 200.479 272.14 200.77L271.58 200.97C271.15 201.119 270.713 201.246 270.27 201.35C269.92 201.44 269.6 201.51 269.27 201.57L268.69 201.67C267.98 201.77 267.26 201.86 266.51 201.91C264.227 201.957 262 202.617 260.06 203.82C256.84 205.67 255.71 206.91 254.98 211C254.474 214.335 254.254 217.707 254.32 221.08V236.18L254.35 244Z" fill="#407BFF"/>
<path d="M256.3 178.49L235 166.17C233.75 165.41 233.18 162.25 233.18 154.31L233.09 131.51L254.37 143.8V166.72C254.37 174.72 255.04 177.77 256.31 178.48L256.3 178.49Z" fill="#407BFF"/>
<path opacity="0.9" d="M287.84 268.59L266.51 256.27C266.41 256.219 266.313 256.162 266.22 256.1C265.03 255.2 264.48 253.33 264.48 251.1C264.457 250.74 264.457 250.379 264.48 250.02V249.89C264.631 247.004 265.097 244.144 265.87 241.36C266.21 239.93 266.57 238.36 266.87 236.75L271.49 234.08L271.67 233.98L271.78 233.92L275.42 231.97L275.52 231.92C276.664 231.35 277.847 230.862 279.06 230.46H279.2L279.67 230.31C279.856 230.249 280.047 230.202 280.24 230.17H280.35C280.57 230.11 280.8 230.05 281.03 230.01L281.63 229.93C281.86 229.93 282.1 229.93 282.33 229.93C282.56 229.93 282.69 229.93 282.86 229.93C283.098 229.934 283.336 229.961 283.57 230.01H283.66L284 230.07C284.276 230.144 284.547 230.237 284.81 230.35L285.05 230.45C285.764 230.83 286.378 231.375 286.84 232.04C286.881 232.097 286.918 232.157 286.95 232.22C287.168 232.534 287.356 232.869 287.51 233.22C287.51 233.29 287.58 233.37 287.61 233.43V233.5C287.76 233.87 287.89 234.27 288.02 234.69L288.1 235.01C288.232 235.499 288.333 235.997 288.4 236.5L288.45 236.73C288.644 238.151 288.734 239.585 288.72 241.02C288.679 245.373 288.074 249.702 286.92 253.9C286.156 256.689 285.693 259.552 285.54 262.44V262.56C285.54 263.02 285.49 263.35 285.49 263.65C285.49 265.88 286.14 267.59 287.32 268.49L287.84 268.59Z" fill="#64A3AF"/>
<path opacity="0.9" d="M254.35 244L233.15 231.59V208.65C233.079 205.284 233.293 201.919 233.79 198.59C234.53 194.5 235.65 193.26 238.87 191.4C240.816 190.202 243.045 189.543 245.33 189.49C246.08 189.43 246.79 189.36 247.51 189.25L248.08 189.15L249.08 188.94C249.49 188.82 249.93 188.7 250.39 188.54C250.58 188.485 250.767 188.418 250.95 188.34C251.682 188.072 252.397 187.758 253.09 187.4L253.18 187.35C253.612 187.176 254.03 186.968 254.43 186.73C258.37 184.46 262.07 179.99 264.57 174.49C264.74 174.13 264.88 173.77 265.03 173.42L264.5 173.95C265.18 173.28 265.84 172.56 266.5 171.82C268.792 169.18 271.421 166.854 274.32 164.9C274.729 164.592 275.16 164.315 275.61 164.07C282.86 159.87 288.77 164.34 288.77 174C288.686 178.466 287.664 182.865 285.77 186.91C283.26 192.42 279.56 196.91 275.62 199.16C275.217 199.391 274.8 199.595 274.37 199.77C274.34 199.779 274.309 199.779 274.28 199.77C273.587 200.145 272.872 200.479 272.14 200.77L271.58 200.97C271.15 201.119 270.713 201.246 270.27 201.35C269.92 201.44 269.6 201.51 269.27 201.57L268.69 201.67C267.98 201.77 267.26 201.86 266.51 201.91C264.227 201.957 262 202.617 260.06 203.82C256.84 205.67 255.71 206.91 254.98 211C254.474 214.335 254.254 217.707 254.32 221.08V236.18L254.35 244Z" fill="#64A3AF"/>
<path opacity="0.9" d="M256.3 178.49L235 166.17C233.75 165.41 233.18 162.25 233.18 154.31L233.09 131.51L254.37 143.8V166.72C254.37 174.72 255.04 177.77 256.31 178.48L256.3 178.49Z" fill="#64A3AF"/>
<path d="M288 268.69L287.84 268.6L287.5 268.38C286.32 267.48 285.67 265.77 285.67 263.54C285.67 263.24 285.67 262.91 285.72 262.45V262.33C285.873 259.442 286.336 256.579 287.1 253.79C288.254 249.592 288.859 245.263 288.9 240.91C288.914 239.475 288.824 238.041 288.63 236.62L288.58 236.39C288.513 235.887 288.412 235.389 288.28 234.9L288.2 234.58C288.07 234.16 287.94 233.76 287.79 233.39V233.32C287.79 233.26 287.73 233.18 287.69 233.11C287.536 232.759 287.348 232.424 287.13 232.11C287.098 232.047 287.061 231.987 287.02 231.93C286.558 231.265 285.944 230.72 285.23 230.34L284.99 230.24C284.727 230.127 284.456 230.034 284.18 229.96L283.84 229.9H283.75C283.516 229.851 283.279 229.824 283.04 229.82C282.87 229.82 282.69 229.82 282.51 229.82C282.33 229.82 282.04 229.82 281.81 229.82L281.21 229.9C280.98 229.9 280.75 230 280.53 230.06H280.42C280.227 230.092 280.036 230.139 279.85 230.2L279.38 230.35H279.24C278.027 230.752 276.844 231.24 275.7 231.81L275.6 231.86L271.96 233.81L271.85 233.87L271.67 233.97L267.05 236.64L254.35 244V236.17V221.07C254.281 217.701 254.498 214.332 255 211C255.73 206.91 256.86 205.67 260.08 203.82C262.02 202.617 264.248 201.957 266.53 201.91C267.28 201.91 268 201.77 268.71 201.67L269.29 201.57C269.62 201.51 269.94 201.44 270.29 201.35C270.733 201.246 271.17 201.119 271.6 200.97L272.16 200.77C272.892 200.479 273.607 200.145 274.3 199.77C274.329 199.779 274.361 199.779 274.39 199.77C274.82 199.595 275.237 199.391 275.64 199.16C279.58 196.87 283.28 192.42 285.79 186.91C287.684 182.864 288.706 178.466 288.79 174C288.79 164.34 282.88 159.87 275.63 164.07C275.18 164.315 274.749 164.592 274.34 164.9C271.441 166.854 268.812 169.18 266.52 171.82C265.83 172.56 265.17 173.28 264.52 173.95C263.463 175.009 262.304 175.96 261.06 176.79L260.61 177.07L260.09 177.38C259.49 177.72 258.95 178.04 258.44 178.27L257.95 178.47C257.803 178.534 257.648 178.577 257.49 178.6C257.351 178.647 257.206 178.67 257.06 178.67C256.794 178.678 256.531 178.613 256.3 178.48C255.03 177.77 254.36 174.74 254.36 166.72V143.8L233.08 131.51L298.46 93.6898C298.7 93.5598 298.92 93.4298 299.16 93.3198C299.372 93.2097 299.593 93.1161 299.82 93.0398L300.48 92.8298C300.685 92.761 300.896 92.7108 301.11 92.6798C301.377 92.6306 301.648 92.6006 301.92 92.5898C303.017 92.5407 304.103 92.8305 305.03 93.4198L326.03 105.53C326.679 105.886 327.248 106.373 327.7 106.96C327.856 107.161 327.999 107.371 328.13 107.59C328.225 107.735 328.311 107.885 328.39 108.04C328.55 108.36 328.7 108.69 328.84 109.04C328.89 109.22 328.96 109.4 329.01 109.59C329.386 110.889 329.565 112.237 329.54 113.59V200.65L312.35 210.57L312.04 210.77L311.83 210.89H311.78L308.37 213C307.01 213.892 305.705 214.864 304.46 215.91L304.37 215.98L304.17 216.15L303.28 216.95L303.21 217.03C303.08 217.14 302.95 217.27 302.83 217.39C302.71 217.51 302.3 217.91 302.05 218.18C301.8 218.45 301.71 218.53 301.56 218.71C301.41 218.89 301.07 219.25 300.84 219.53L300.37 220.12L299.71 221L299.35 221.53L299.27 221.67L299.18 221.81C299.01 222.06 298.83 222.32 298.67 222.59C298.51 222.86 298.45 222.98 298.35 223.18L298.27 223.34C297.96 223.9 297.66 224.49 297.39 225.09L297.33 225.24C297.21 225.49 297.1 225.75 297 226C296.91 226.26 296.81 226.52 296.72 226.79L296.64 226.99L296.34 227.91C296.24 228.24 296.15 228.57 296.06 228.91C295.97 229.25 295.89 229.59 295.81 229.91C295.73 230.23 295.67 230.58 295.61 230.91C295.55 231.24 295.48 231.64 295.43 232.01V232.07C295.43 232.38 295.33 232.69 295.3 233C295.27 233.31 295.22 233.78 295.18 234.22V234.46C295.18 234.69 295.18 234.92 295.13 235.15C295.13 235.64 295.13 236.15 295.13 236.87V237C295.13 237.12 295.13 237.25 295.13 237.37C295.056 241.053 295.667 244.719 296.93 248.18C297.768 250.423 298.234 252.787 298.31 255.18V255.29C298.31 255.61 298.36 255.94 298.37 256.21C298.37 260.82 295.55 266.21 292.09 268.21C291.459 268.596 290.753 268.844 290.02 268.94C289.87 268.955 289.719 268.955 289.57 268.94H289.5C289.407 268.955 289.313 268.955 289.22 268.94C289.137 268.955 289.052 268.955 288.97 268.94L288.77 268.89L288.53 268.82C288.466 268.808 288.405 268.784 288.35 268.75C288.23 268.765 288.108 268.744 288 268.69V268.69Z" fill="#64A3AF"/>
<path opacity="0.3" d="M254.35 143.8L233.07 131.51L298.45 93.6898C298.69 93.5598 298.91 93.4298 299.15 93.3198C299.362 93.2097 299.583 93.1161 299.81 93.0398V93.0398L300.47 92.8298C300.675 92.761 300.886 92.7108 301.1 92.6798C301.367 92.6306 301.638 92.6006 301.91 92.5898C303.007 92.5407 304.093 92.8305 305.02 93.4198L325.78 105.42C325.599 105.325 325.408 105.251 325.21 105.2C325.165 105.188 325.121 105.171 325.08 105.15C324.898 105.088 324.71 105.044 324.52 105.02H324.33C324.207 105.004 324.083 105.004 323.96 105.02V105.02H323.6C323.57 105.015 323.54 105.015 323.51 105.02C323.337 105.005 323.163 105.005 322.99 105.02L322.59 105.08C322.318 105.113 322.05 105.174 321.79 105.26L321.39 105.38L320.61 105.69C320.31 105.83 320.01 105.99 319.69 106.17L254.35 143.8Z" fill="white"/>
<path d="M220.89 261.17L199.68 248.73C198.85 248.24 198.59 246.87 198.59 243.91C198.594 241.471 198.886 239.04 199.46 236.67C198.821 238.142 198.28 239.656 197.84 241.2C199.84 233.85 204.51 226.86 209.84 223.76C213.35 221.76 216.65 221.65 219.14 223.53C221.63 225.41 223 229 223 233.7C223 234.15 223 234.59 222.95 234.99V235.21C222.95 235.32 222.95 235.43 222.95 235.54C222.95 236.54 222.83 237.54 222.72 238.59C222.71 238.758 222.69 238.924 222.66 239.09V239.24C222.57 239.95 222.48 240.64 222.37 241.33C222.29 241.74 222.21 242.15 222.14 242.55C222.07 242.95 221.98 243.36 221.9 243.76C221.68 244.76 221.43 245.85 221.17 246.94C220.303 249.996 219.842 253.153 219.8 256.33C219.79 259.31 220 260.68 220.89 261.17Z" fill="#407BFF"/>
<path d="M172.3 291.39L151 279.11L151.08 191.9C151.15 188.429 151.979 185.016 153.51 181.9L174.77 194.17C173.206 197.33 172.356 200.795 172.28 204.32L172.3 291.39Z" fill="#407BFF"/>
<path d="M220.89 261.17L199.68 248.73C198.85 248.24 198.59 246.87 198.59 243.91C198.594 241.471 198.886 239.04 199.46 236.67V236.67C201.86 231.1 205.63 226.21 209.88 223.76C213.39 221.76 216.69 221.65 219.18 223.53C221.67 225.41 223 229 223 233.7C223 234.15 223 234.59 222.95 234.99V235.21C222.95 235.32 222.95 235.43 222.95 235.54C222.95 236.54 222.83 237.54 222.72 238.59C222.71 238.758 222.69 238.924 222.66 239.09V239.24C222.57 239.95 222.48 240.64 222.37 241.33C222.29 241.74 222.21 242.15 222.14 242.55C222.07 242.95 221.98 243.36 221.9 243.76C221.68 244.76 221.43 245.85 221.17 246.94C220.303 249.996 219.842 253.153 219.8 256.33C219.79 259.31 220 260.68 220.89 261.17Z" fill="#FF725E"/>
<path d="M172.3 291.39L151 279.11L151.08 191.9C151.15 188.429 151.979 185.016 153.51 181.9L174.77 194.17C173.206 197.33 172.356 200.795 172.28 204.32L172.3 291.39Z" fill="#FF725E"/>
<path d="M172.3 291.39V204.31C172.376 200.785 173.226 197.32 174.79 194.16L153.53 181.89C153.59 181.76 153.64 181.64 153.7 181.52C153.788 181.321 153.888 181.127 154 180.94C154.14 180.67 154.28 180.41 154.43 180.15C154.58 179.89 154.79 179.52 154.99 179.23L155.1 179.02C155.127 178.978 155.157 178.937 155.19 178.9C155.36 178.62 155.56 178.33 155.76 178.05L155.94 177.8C156.042 177.642 156.156 177.491 156.28 177.35C156.388 177.197 156.505 177.05 156.63 176.91L156.73 176.78C156.91 176.55 157.1 176.32 157.3 176.11L157.54 175.86C157.591 175.795 157.648 175.735 157.71 175.68L157.82 175.55L158.03 175.36L158.4 175C158.432 174.965 158.469 174.934 158.51 174.91C158.62 174.81 158.72 174.7 158.82 174.62L158.93 174.53H158.98L159.25 174.33C159.35 174.24 159.46 174.17 159.56 174.09C159.66 174.01 159.76 173.93 159.86 173.85C159.979 173.76 160.102 173.676 160.23 173.6C160.448 173.431 160.678 173.281 160.92 173.15L226.15 135.59L247.43 147.88V167.04L247.74 166.72C249.455 164.71 251.437 162.943 253.63 161.47V161.47H253.71C253.916 161.315 254.129 161.172 254.35 161.04C254.946 160.627 255.648 160.394 256.373 160.367C257.098 160.341 257.815 160.522 258.44 160.89L279.65 173.14C279.765 173.197 279.872 173.267 279.97 173.35L280.15 173.49C280.888 174.178 281.391 175.081 281.59 176.07C281.65 176.32 281.7 176.59 281.74 176.86C281.798 177.304 281.825 177.752 281.82 178.2C281.766 180.628 281.139 183.01 279.99 185.15C279.001 187.192 277.468 188.922 275.56 190.15C275.304 190.297 275.04 190.431 274.77 190.55H274.72C272.929 191.493 270.944 192.009 268.92 192.06C265.769 192.175 262.703 193.117 260.03 194.79C258.85 195.464 257.729 196.236 256.68 197.1L256.56 197.19C256.07 197.6 255.56 198.02 255.18 198.44L255.12 198.51C254.143 199.476 253.262 200.534 252.49 201.67V201.67C252.16 202.16 251.84 202.67 251.49 203.24L251.34 203.51V203.59C251.08 204.05 250.84 204.59 250.61 205.03V205.1C250.556 205.21 250.509 205.323 250.47 205.44C250.24 205.95 250.03 206.44 249.83 207.03L249.73 207.29C249.5 207.93 249.29 208.59 249.12 209.21L249.07 209.42C248.92 209.97 248.78 210.54 248.66 211.12C248.66 211.28 248.58 211.46 248.55 211.63V211.77C248.47 212.2 248.4 212.62 248.32 213.06C248.32 213.31 248.23 213.58 248.2 213.84C248.17 214.1 248.08 214.65 248.03 215.07V215.27C248.03 215.47 247.98 215.68 247.97 215.9C247.97 216.32 247.88 216.76 247.85 217.19V217.42C247.85 217.58 247.85 217.74 247.8 217.9V218.05L247.57 225.05V248.05L241.57 251.54L235.9 254.81L230.41 257.98C226.6 260.19 223.94 261.31 222.32 261.43C222.194 261.44 222.067 261.44 221.94 261.43C221.63 261.426 221.326 261.351 221.05 261.21C220.2 260.72 219.95 259.35 219.95 256.37C219.992 253.193 220.453 250.036 221.32 246.98C221.58 245.89 221.83 244.83 222.05 243.8C222.13 243.4 222.22 243 222.29 242.59C222.36 242.18 222.44 241.78 222.52 241.37C222.63 240.68 222.72 239.99 222.81 239.28V239.13C222.84 238.965 222.86 238.798 222.87 238.63C222.98 237.58 223.06 236.63 223.1 235.58C223.1 235.47 223.1 235.36 223.1 235.25V235C223.1 234.6 223.16 234.16 223.15 233.71C223.15 229.02 221.79 225.41 219.3 223.53C216.81 221.65 213.51 221.72 210 223.76C205.75 226.21 202 231.1 199.58 236.67C199.086 237.77 198.658 238.898 198.3 240.05C198.18 240.43 198.06 240.82 197.96 241.2C197.86 241.58 197.72 242.11 197.61 242.57C197.578 242.646 197.558 242.727 197.55 242.81C197.45 243.25 197.36 243.7 197.29 244.14C197.118 245.09 196.995 246.048 196.92 247.01C196.9 247.296 196.9 247.584 196.92 247.87C196.92 248.21 196.92 248.55 196.92 248.87C196.92 249.46 196.92 250.08 196.99 250.56C197.087 253.763 197.698 256.93 198.8 259.94C199.405 261.552 199.818 263.231 200.03 264.94V265.14V265.2V265.28C200.025 265.35 200.025 265.42 200.03 265.49C200.08 266.23 200.12 266.96 200.12 267.72C200.12 272.65 200.12 275.37 189.65 281.42L172.3 291.39Z" fill="#F28F8F"/>
<path d="M258.55 160.68L279.76 172.93C279.109 172.607 278.383 172.466 277.659 172.525C276.935 172.583 276.24 172.837 275.65 173.26C275.47 173.36 275.24 173.52 275.01 173.68L274.94 173.75H274.89C272.695 175.221 270.713 176.988 269 179C266.452 181.96 263.452 184.498 260.11 186.52L259.69 186.75L259.53 186.83L259.41 186.89C259.09 187.06 258.78 187.24 258.49 187.38L257.93 187.62L257.74 187.69L257.63 187.75L256.93 188.01C256.722 188.092 256.508 188.158 256.29 188.21H256.21L255.5 188.38C255.26 188.44 255.04 188.45 254.81 188.49H254.15C253.94 188.49 253.73 188.49 253.53 188.49C253.33 188.49 253.14 188.42 252.95 188.39C252.759 188.353 252.571 188.3 252.39 188.23C252.213 188.17 252.042 188.093 251.88 188H251.79C251.642 187.928 251.499 187.848 251.36 187.76C251.225 187.664 251.098 187.557 250.98 187.44L250.9 187.38L250.82 187.3C250.71 187.21 250.59 187.1 250.48 186.99C250.352 186.839 250.232 186.683 250.12 186.52L250.06 186.43C249.838 186.11 249.638 185.776 249.46 185.43L249.4 185.3C249.313 185.148 249.237 184.991 249.17 184.83C249.1 184.66 249.02 184.45 248.95 184.25V184.11V183.99C248.89 183.81 248.82 183.65 248.76 183.45C248.7 183.25 248.62 182.91 248.55 182.63C248.48 182.35 248.42 182.15 248.38 181.9C248.34 181.65 248.26 181.3 248.21 180.98C248.16 180.66 248.12 180.46 248.08 180.2C248.04 179.94 248 179.53 247.96 179.2C247.92 178.87 247.9 178.65 247.87 178.37C247.84 178.09 247.8 177.64 247.78 177.25C247.78 177.05 247.78 176.81 247.78 176.58V176.28C247.78 175.93 247.78 175.56 247.72 175.18V175.03L247.65 171.03V166.89C247.74 166.78 247.85 166.68 247.94 166.58C249.655 164.57 251.637 162.803 253.83 161.33V161.33H253.88L253.96 161.27C254.16 161.116 254.371 160.976 254.59 160.85C255.172 160.464 255.848 160.244 256.546 160.214C257.244 160.185 257.937 160.345 258.55 160.68V160.68Z" fill="#FF725E"/>
<path d="M174.8 194.17L153.52 181.88C153.58 181.75 153.63 181.64 153.7 181.52C153.788 181.32 153.888 181.127 154 180.94C154.14 180.67 154.28 180.41 154.43 180.15C154.58 179.89 154.79 179.52 154.99 179.23C155.047 179.114 155.114 179.004 155.19 178.9C155.36 178.62 155.56 178.33 155.76 178.05L155.94 177.8C156.042 177.642 156.156 177.491 156.28 177.35C156.419 177.151 156.569 176.961 156.73 176.78C156.91 176.55 157.1 176.32 157.3 176.11L157.54 175.86C157.591 175.795 157.648 175.735 157.71 175.68L158.03 175.36L158.4 175C158.432 174.965 158.469 174.934 158.51 174.91C158.64 174.773 158.781 174.646 158.93 174.53H158.98L159.25 174.33C159.445 174.159 159.648 173.999 159.86 173.85C159.979 173.76 160.102 173.676 160.23 173.6C160.448 173.431 160.678 173.281 160.92 173.15L226.14 135.58L247.42 147.87L218.75 164.42L182.11 185.59C181.83 185.75 181.56 185.92 181.29 186.1C181.02 186.28 180.79 186.46 180.56 186.66C180.425 186.749 180.298 186.849 180.18 186.96C179.94 187.15 179.7 187.38 179.47 187.6C179.24 187.82 178.91 188.15 178.64 188.43C178.039 189.086 177.481 189.781 176.97 190.51C176.77 190.79 176.57 191.07 176.38 191.37C175.795 192.269 175.267 193.204 174.8 194.17V194.17Z" fill="#FFA8A7"/>
<path d="M143.45 215.72C144.492 215.78 145.52 215.456 146.34 214.81C148.55 213.1 150.2 213.24 152.57 212.22C154.43 211.41 155.18 210.42 155.57 210.76C155.958 211.19 156.168 211.751 156.159 212.33C156.149 212.909 155.921 213.462 155.52 213.88C154.805 214.712 153.977 215.439 153.06 216.04C155.258 215.903 157.426 215.459 159.5 214.72C164.5 213.02 166.87 213.72 164.6 220.07C163.18 224.07 159.6 226.27 149.79 226.07C146.165 225.826 142.56 225.338 139 224.61C129.29 222.7 109.74 219.77 106.33 215.18C96.6799 202.18 87.8299 191.46 86.6099 181.76C85.6099 173.62 90.6099 169.07 95.2399 169.07C97.8699 171.84 99.4699 175.14 101.89 182.91C101.89 182.91 114.45 205.4 115.72 207.04C118.88 208.77 141.39 215.39 143.45 215.72Z" fill="#FFA8A7"/>
<path d="M324.82 132.4C326.51 133.4 328.32 133.83 330.57 135.47C332.024 136.719 333.761 137.594 335.63 138.02C338.04 138.61 357.01 132.2 360.52 129.49C367.67 123.98 373.84 113.61 377.28 109.68C380.11 106.44 383.28 101.56 386.81 101.54C392.58 103.28 391.28 111.86 386.45 119.54C382.45 125.93 374.87 134 366.29 139.63C362.13 142.36 342.96 147.31 336.59 147.73C334.66 147.85 333.23 148.29 329.59 148.81C328.077 149.117 326.527 149.201 324.99 149.06C323.103 148.766 321.268 148.204 319.54 147.39C317.347 146.367 315.469 144.775 314.1 142.78C313.353 141.683 312.874 140.426 312.7 139.11C312.525 137.785 312.83 136.44 313.56 135.32C313.697 135.086 313.894 134.893 314.13 134.76C314.595 134.609 315.101 134.645 315.54 134.86C318.1 135.75 320.72 137.09 323.35 137.7C325.57 138.21 327.21 138.27 326.99 137.87C326.77 137.47 325.45 137.25 323.94 135.97C322.43 134.69 321.81 132.67 322.56 131.91C323.31 131.15 323.14 131.36 324.82 132.4Z" fill="#FFA8A7"/>
<path d="M387.18 99.5099C391.44 101.6 393.18 104.78 391.28 111.86C389.58 118.22 383.06 129.07 377.93 134.38C377.93 134.38 369.15 130.22 364.48 124.81C369.1 117.74 371.33 113.58 375.67 107.59C380.01 101.6 384.58 98.7999 387.18 99.5099Z" fill="#E0E0E0"/>
</svg>
