<svg width="200" height="200" viewBox="0 0 200 200" fill="none" xmlns="http://www.w3.org/2000/svg">
<path d="M75.2385 22L106.358 73.7773M75.2385 22H157.219L187 73.7773M75.2385 22L13 126.223L43.7846 178M106.358 73.7773H187M106.358 73.7773L92.9731 97.4947M187 73.7773L173.615 97.4947L138.146 96.76M92.9731 97.4947C60.4366 67.4618 33.8721 121.448 60.4366 157.623M92.9731 97.4947L138.146 96.76M43.7846 178L60.4366 157.623M43.7846 178H128.777L141.492 157.623M60.4366 157.623H141.492M141.492 157.623C129.909 141.634 126.769 112.193 138.146 96.76" stroke="#365AAA" stroke-width="6"/>
</svg>
