<?xml version="1.0" standalone="no"?>
<!DOCTYPE svg PUBLIC "-//W3C//DTD SVG 20010904//EN"
 "http://www.w3.org/TR/2001/REC-SVG-20010904/DTD/svg10.dtd">
<svg version="1.0" xmlns="http://www.w3.org/2000/svg"
 width="700.000000pt" height="700.000000pt" viewBox="0 0 700.000000 700.000000"
 preserveAspectRatio="xMidYMid meet">
<metadata>
Created by potrace 1.14, written by Peter Selinger 2001-2017
</metadata>
<g transform="translate(0.000000,700.000000) scale(0.100000,-0.100000)"
fill="#000000" stroke="none">
<path d="M2639 6329 c-5 -3 -8 -26 -6 -52 l3 -46 -42 24 c-24 14 -45 25 -48
25 -3 0 -68 -105 -144 -232 -453 -758 -547 -916 -562 -943 -10 -16 -105 -176
-212 -355 -107 -179 -299 -498 -425 -710 -126 -212 -333 -558 -460 -770 -127
-212 -271 -453 -320 -537 l-91 -151 98 -164 c53 -90 177 -298 275 -463 98
-165 194 -327 215 -360 20 -33 48 -80 62 -105 53 -94 449 -755 457 -763 5 -5
27 3 50 17 l41 26 0 -50 c0 -27 3 -51 8 -51 4 -1 684 -2 1512 -3 1497 -1 1505
-1 1524 19 10 11 120 182 243 380 222 358 223 360 201 375 -65 44 -65 44 -21
75 l40 29 -42 66 c-149 230 -263 575 -292 880 -10 108 -10 345 0 430 15 133
19 157 44 250 28 106 68 209 112 286 l30 51 118 -2 c143 -4 700 -15 949 -20
l181 -4 74 132 c41 72 86 151 100 176 14 25 67 118 116 206 50 88 116 205 147
259 31 55 55 105 52 112 -3 7 -22 22 -42 32 l-38 19 42 24 c23 13 42 28 42 32
0 5 -43 83 -97 175 -53 92 -110 192 -126 222 -16 30 -33 60 -37 65 -6 8 -265
458 -377 655 -11 19 -44 76 -73 125 -29 50 -65 113 -81 140 -15 28 -83 147
-151 265 l-124 215 -1458 0 c-802 0 -1462 -2 -1467 -6z m2815 -224 c9 -11 16
-23 16 -27 0 -3 21 -42 46 -85 26 -43 115 -197 199 -343 214 -372 482 -839
543 -944 29 -49 52 -91 52 -93 0 -2 11 -21 25 -43 14 -22 25 -41 25 -43 0 -2
-580 -4 -1289 -4 l-1290 0 -68 114 c-37 62 -77 129 -88 148 -11 19 -67 113
-125 207 -58 95 -110 182 -116 193 -6 11 -135 227 -287 479 -153 253 -277 460
-277 460 0 1 589 1 1310 1 1297 0 1309 0 1324 -20z m-2342 -875 c256 -426 471
-785 477 -798 8 -15 9 -28 3 -35 -8 -10 -112 -194 -226 -398 -17 -30 -55 -98
-85 -151 l-55 -96 -75 53 c-198 137 -382 198 -576 191 -110 -4 -167 -16 -266
-56 -301 -122 -551 -476 -638 -906 -30 -145 -35 -209 -36 -389 0 -203 13 -324
52 -480 8 -33 16 -68 18 -77 20 -101 148 -391 232 -526 30 -49 42 -77 36 -85
-23 -29 -180 -223 -194 -239 -9 -10 -63 -77 -120 -148 -57 -71 -107 -129 -110
-130 -8 0 -199 318 -199 331 0 5 -4 9 -8 9 -5 0 -14 12 -21 27 -7 15 -68 120
-135 233 -521 870 -609 1023 -599 1039 12 19 281 469 828 1386 214 358 420
703 459 768 39 64 76 125 81 135 6 9 23 40 40 67 16 28 36 62 45 76 8 15 53
90 100 168 47 78 92 154 101 169 36 62 363 609 376 631 8 13 18 19 22 15 5 -5
217 -358 473 -784z m3243 -922 c3 -2 -26 -59 -64 -125 -37 -66 -71 -127 -74
-134 -3 -8 -50 -90 -104 -184 l-98 -170 -95 2 c-52 1 -252 5 -445 9 -443 10
-854 10 -1455 0 -464 -8 -556 -9 -573 -7 -5 1 3 22 18 49 15 26 37 65 49 87
12 22 78 138 145 257 l122 217 52 3 c81 5 2517 1 2522 -4z m-3638 -533 c76
-17 130 -37 211 -80 61 -31 186 -121 237 -167 19 -18 20 -18 52 19 l32 38 2
-27 c1 -16 3 -32 4 -38 1 -5 3 -16 4 -24 1 -11 31 -13 169 -11 92 2 361 6 597
10 237 4 470 8 519 9 91 2 113 -7 87 -38 -27 -32 -101 -270 -116 -372 -4 -21
-8 -46 -10 -54 -25 -97 -26 -519 -1 -656 5 -25 18 -118 18 -121 -1 -2 4 -17 9
-35 5 -18 12 -49 15 -68 18 -107 105 -353 174 -490 l40 -80 -1297 2 -1298 3
-33 50 c-131 197 -242 502 -278 765 -10 71 -11 368 -2 442 45 353 197 660 403
815 141 106 301 143 462 108z m2034 -2414 c-5 -9 -75 -122 -156 -251 l-146
-235 -1337 -1 c-735 0 -1340 1 -1345 3 -5 3 139 193 163 213 3 3 44 52 90 110
47 58 90 110 95 116 6 6 20 23 31 36 l22 25 1296 1 c1194 0 1295 -2 1287 -17z"/>
</g>
</svg>
